<svg xmlns="http://www.w3.org/2000/svg" width="61.416" height="76.77" viewBox="0 0 61.416 76.77">
    <path d="M93.416 23.677c0-2.7-3.17-4.592-9.975-5.954A111.036 111.036 0 0 0 62.708 16a111.041 111.041 0 0 0-20.733 1.723C35.169 19.085 32 20.977 32 23.677v61.416c0 2.7 3.17 4.592 9.975 5.954a111.037 111.037 0 0 0 20.733 1.723 111.041 111.041 0 0 0 20.733-1.723c6.806-1.362 9.975-3.253 9.975-5.954zm-3.838 15.141c-1.211 1.419-10.287 4.051-26.87 4.051s-25.659-2.632-26.87-4.051V27.864a31.145 31.145 0 0 0 6.137 1.766 110.951 110.951 0 0 0 20.733 1.724 111.041 111.041 0 0 0 20.733-1.723 31.244 31.244 0 0 0 6.137-1.766v10.954zm0 15.354c-1.211 1.419-10.287 4.051-26.87 4.051s-25.659-2.632-26.87-4.051V43.218a31.145 31.145 0 0 0 6.137 1.766 110.951 110.951 0 0 0 20.733 1.724 111.04 111.04 0 0 0 20.733-1.723 31.244 31.244 0 0 0 6.137-1.766v10.954zm0 15.354c-1.211 1.419-10.287 4.051-26.87 4.051s-25.659-2.632-26.87-4.051V58.572a31.145 31.145 0 0 0 6.137 1.766 110.951 110.951 0 0 0 20.733 1.724 111.04 111.04 0 0 0 20.733-1.723 31.244 31.244 0 0 0 6.137-1.766v10.954zm-26.87-49.687c15.782 0 24.771 2.385 26.645 3.839-1.874 1.454-10.862 3.839-26.645 3.839s-24.771-2.385-26.645-3.839c1.874-1.455 10.863-3.839 26.645-3.839zm0 69.093c-16.557 0-25.637-2.625-26.87-4.045v-10.96a31.244 31.244 0 0 0 6.137 1.766 111.036 111.036 0 0 0 20.733 1.723 111.041 111.041 0 0 0 20.733-1.723 31.245 31.245 0 0 0 6.137-1.766v10.959c-1.233 1.421-10.313 4.046-26.87 4.046z" transform="translate(-32 -16)" style="fill:#007bc0"/>
</svg>
