<svg xmlns="http://www.w3.org/2000/svg" width="68.511" height="64.705" viewBox="0 0 68.511 64.705">
    <path d="M92.511 28v64.7H24V28h3.806v60.9H88.7V28zM41.128 45.128a3.806 3.806 0 1 0-3.806-3.806 3.806 3.806 0 0 0 3.806 3.806zm17.128 0a3.806 3.806 0 1 0-3.806-3.806 3.806 3.806 0 0 0 3.805 3.806zm17.128 0a3.806 3.806 0 1 0-3.806-3.806 3.806 3.806 0 0 0 3.805 3.806zM41.128 62.255a3.806 3.806 0 1 0-3.806-3.806 3.806 3.806 0 0 0 3.806 3.806zm17.128 0a3.806 3.806 0 1 0-3.806-3.806 3.806 3.806 0 0 0 3.805 3.806zm17.128 0a3.806 3.806 0 1 0-3.806-3.806 3.806 3.806 0 0 0 3.805 3.806zM41.128 79.383a3.806 3.806 0 1 0-3.806-3.806 3.806 3.806 0 0 0 3.806 3.806zm17.128 0a3.806 3.806 0 1 0-3.806-3.806 3.806 3.806 0 0 0 3.805 3.806zm17.128 0a3.806 3.806 0 1 0-3.806-3.806 3.806 3.806 0 0 0 3.805 3.806z" transform="translate(-24 -28)" style="fill:#007bc0"/>
</svg>
