<svg xmlns="http://www.w3.org/2000/svg" width="76.631" height="61.305" viewBox="0 0 76.631 61.305">
    <path d="M92.631 81.81V32H16v49.81h30.653v7.663h-7.664v3.832h30.653v-3.831h-7.663V81.81zm-72.8-45.979H88.8v42.148H19.832zm38.316 53.643h-7.663V81.81h7.663zM40.905 68.4H23.663V51.158h17.242zm-13.41-3.832h9.579v-9.579h-9.579zm36.4 3.832H44.737V51.158h19.158zm-15.327-3.832h11.495v-9.579H48.568zm36.4 3.832H67.726V51.158h17.242zm-13.41-3.832h9.579v-9.579h-9.579zM54.316 43.495H23.663v-3.832h30.653zm30.653 0h-3.832v-3.832h3.832zm-7.663 0h-3.832v-3.832h3.832z" transform="translate(-16 -32)" style="fill:#007bc0"/>
</svg>
