<svg xmlns="http://www.w3.org/2000/svg" width="70.826" height="66.398" viewBox="0 0 70.826 66.398">
    <path d="M54.417 69.922 35.6 88.741l-7.97-7.968 18.819-18.82L49.1 64.61 32.941 80.773l2.659 2.656 16.16-16.163 2.656 2.656zM68.8 39.606l-7.967-7.967 9.3-9.3 7.967 7.967 2.656-2.656 7.967 7.967-2.663 2.661 4.883 4.883-5.578 13.014-8.6-8.6-9.065 9.067-2.66-2.656 9.068-9.068-2.656-2.656-9.068 9.068-2.656-2.656 9.072-9.068zM84.1 49.6l2.39-5.578-16.366-16.367-3.984 3.984L84.1 49.6zm-5.553 39.141L37.381 47.575l-7.967 7.967-9.3-9.3 23.9-23.9 9.3 9.3-7.968 7.967 41.169 41.164-7.967 7.967zM29.413 50.23 48 31.639l-3.98-3.984-18.591 18.591zm10.624-5.312 38.51 38.511 2.653-2.656-38.508-38.511-2.656 2.656z" transform="translate(-20.117 -22.343)" style="fill:#007bc0"/>
</svg>
