<svg xmlns="http://www.w3.org/2000/svg" width="19.924" height="19.924" viewBox="0 0 19.924 19.924">
    <path data-name="my-brand-frame (3)" d="M9.962 0a9.962 9.962 0 1 0 9.962 9.962A9.973 9.973 0 0 0 9.962 0zM5.484 17.724a4.227 4.227 0 0 1 4.479-4.275 4.227 4.227 0 0 1 4.479 4.275 8.934 8.934 0 0 1-8.957 0zm1.988-8.26a2.491 2.491 0 1 1 2.491 2.491 2.493 2.493 0 0 1-2.491-2.491zm7.916 7.63a5.1 5.1 0 0 0-3.951-4.471 3.487 3.487 0 1 0-2.949 0 5.1 5.1 0 0 0-3.951 4.471 8.966 8.966 0 1 1 10.851 0z"/>
</svg>
