<svg xmlns="http://www.w3.org/2000/svg" width="76.502" height="78.463" viewBox="0 0 76.502 78.463">
    <path d="M74.924 51.309A15.715 15.715 0 0 1 89.5 61.19a19.7 19.7 0 0 1 4.9 3.449 19.61 19.61 0 0 0-21.533-17.145 19.616 19.616 0 1 0-31.193 0 19.616 19.616 0 1 0 15.6 28.046 19.741 19.741 0 0 0 4.067 5.593 19.247 19.247 0 0 1 .19-5.963 15.685 15.685 0 0 1 13.393-23.861zM57.27 19.923a15.693 15.693 0 1 1-15.693 15.693A15.71 15.71 0 0 1 57.27 19.923zM39.616 82.694A15.693 15.693 0 1 1 55.309 67a15.71 15.71 0 0 1-15.693 15.694zm43.155-5.885h5.885v3.923h-5.885v5.885h-3.923v-5.885h-5.885v-3.923h5.885v-5.885h3.923zm-1.962-13.731A15.693 15.693 0 1 0 96.5 78.771a15.71 15.71 0 0 0-15.691-15.693zm0 27.462a11.77 11.77 0 1 1 11.77-11.77 11.783 11.783 0 0 1-11.77 11.77z" transform="translate(-20 -16)" style="fill:#007bc0"/>
</svg>
