<svg xmlns="http://www.w3.org/2000/svg" width="78.975" height="79.025" viewBox="0 0 78.975 79.025">
    <path d="M89.052 63.632V47.343A7.9 7.9 0 0 0 87.078 31.8a7.742 7.742 0 0 0-5.923 2.715l-17.918-8.989a9.175 9.175 0 0 0 .2-1.629 7.9 7.9 0 1 0-15.8 0 5.9 5.9 0 0 0 .2 1.629L29.821 34.51A7.742 7.742 0 0 0 23.9 31.8a7.9 7.9 0 0 0-1.974 15.548v16.333A7.9 7.9 0 0 0 23.9 79.23a7.742 7.742 0 0 0 5.923-2.715L47.738 85.5a9.175 9.175 0 0 0-.2 1.629 7.9 7.9 0 0 0 15.8 0 5.9 5.9 0 0 0-.2-1.629l17.918-8.983a7.742 7.742 0 0 0 5.923 2.715 7.921 7.921 0 0 0 7.9-7.9 7.758 7.758 0 0 0-5.824-7.7zm-1.974-27.888a3.949 3.949 0 1 1-3.949 3.949 3.96 3.96 0 0 1 3.949-3.949zm-31.59-15.8a3.949 3.949 0 1 1-3.949 3.956 3.96 3.96 0 0 1 3.949-3.951zm-5.923 9.136a7.819 7.819 0 0 0 11.846 0l17.918 8.983a9.175 9.175 0 0 0-.2 1.629 5.9 5.9 0 0 0 .2 1.629l-17.918 8.935a7.845 7.845 0 0 0-5.973-2.715 8.1 8.1 0 0 0-5.973 2.715L31.6 41.322a9.175 9.175 0 0 0 .2-1.629 5.9 5.9 0 0 0-.2-1.629zm5.923 30.356a3.949 3.949 0 1 1 3.949-3.949 3.96 3.96 0 0 1-3.949 3.949zM19.949 39.693a3.949 3.949 0 1 1 3.951 3.948 3.96 3.96 0 0 1-3.951-3.948zM23.9 75.232a3.949 3.949 0 1 1 3.949-3.949 3.96 3.96 0 0 1-3.949 3.949zm7.7-2.32a9.175 9.175 0 0 0 .2-1.629 7.938 7.938 0 0 0-5.923-7.651V47.343a7.531 7.531 0 0 0 3.949-2.468l17.918 8.983a8.321 8.321 0 0 0-.148 1.629 7.938 7.938 0 0 0 5.923 7.651v16.339a7.531 7.531 0 0 0-3.949 2.468zm23.89 18.115a3.949 3.949 0 1 1 3.949-3.949 3.96 3.96 0 0 1-3.951 3.949zm5.921-9.127a7.936 7.936 0 0 0-3.949-2.468V63.089a7.9 7.9 0 0 0 5.923-7.651 6.132 6.132 0 0 0-.2-1.629l17.967-8.934a7.936 7.936 0 0 0 3.948 2.468v16.338a7.9 7.9 0 0 0-5.923 7.651 5.9 5.9 0 0 0 .2 1.629zm25.667-6.664a3.949 3.949 0 1 1 3.949-3.949 3.96 3.96 0 0 1-3.949 3.945z" transform="translate(-16 -16)" style="fill:#007bc0"/>
</svg>
