<svg xmlns="http://www.w3.org/2000/svg" width="75.948" height="75.948" viewBox="0 0 75.948 75.948">
    <path d="M60.13 80.174a9.494 9.494 0 1 0-12.312 0 13.3 13.3 0 0 0-7.135 11.774h3.8a9.494 9.494 0 0 1 18.987 0h3.8a13.3 13.3 0 0 0-7.14-11.774zm-11.852-7.213a5.7 5.7 0 1 1 5.7 5.7 5.7 5.7 0 0 1-5.7-5.7zm-12.832 7.214a9.493 9.493 0 1 0-12.311 0A13.3 13.3 0 0 0 16 91.948h3.8a9.5 9.5 0 0 1 17.8-4.6l3.32-1.842a13.3 13.3 0 0 0-5.474-5.333zm-11.851-7.214a5.7 5.7 0 1 1 5.7 5.7 5.7 5.7 0 0 1-5.7-5.7zm61.219 7.213a9.494 9.494 0 1 0-12.311 0 13.3 13.3 0 0 0-5.474 5.333l3.32 1.842a9.5 9.5 0 0 1 17.8 4.6h3.8a13.3 13.3 0 0 0-7.136-11.775zm-11.853-7.213a5.7 5.7 0 1 1 5.7 5.7 5.7 5.7 0 0 1-5.7-5.7zm2.177-36.075h-5.7v-3.8h5.7zm-35.4 0h-5.7v-3.8h5.7zM55.873 21.7h-3.8V16h3.8zm-12.846 5.032L39 22.7l2.685-2.686 4.028 4.028zm22.781 17.4 4.028 4.028-2.686 2.688-4.028-4.028zm-.894-17.4-2.685-2.685 4.028-4.028 2.685 2.681zM42.1 44.174l2.686 2.685-4.028 4.028-2.685-2.687 4.027-4.026zm8.076 6h7.595v3.8h-7.594zM46.59 28.552a10.443 10.443 0 1 1 14.769 14.769c-.3.3-.58.539-.848.768l-.259.222c-.087.075-.2.161-.318.255-.075.057-.18.139-.263.21v1.6h-3.8v-1.9a3.78 3.78 0 0 1 1.748-2.927c.052-.04.1-.075.139-.108l.288-.247c.231-.2.431-.368.626-.563a6.646 6.646 0 1 0-9.4 0c.195.195.395.365.627.562l.288.248c.038.032.086.068.138.108a3.781 3.781 0 0 1 1.748 2.928v1.9h-3.8v-1.6q-.129-.109-.263-.21-.163-.123-.318-.255l-.258-.222a13.627 13.627 0 0 1-.849-.768 10.456 10.456 0 0 1 .005-14.77z" transform="translate(-16 -16)" style="fill:#007bc0"/>
</svg>
