<svg xmlns="http://www.w3.org/2000/svg" width="81.469" height="81.464" viewBox="0 0 81.469 81.464">
    <path d="M68.946 44.512h-4.073v-4.073h4.073zM60.8 97.464h4.073v-4.073H60.8zM64.873 16H60.8v4.073h4.073zm4.073 32.586h-4.073v4.073h4.073zm-34.622 0H38.4v-4.074h-4.076zm-2.763 38.271c-1.054-.931-1.633-2.624-1.633-4.766V69.805h-7.994a1.824 1.824 0 0 1-1.64-.956 1.731 1.731 0 0 1 .057-1.8l9.589-15.136-.012-.614c0-.112-.2-11.252 2.418-17.056 1.426-3.166 5.489-12.172 22.8-13.887l2.8-4.288c-15.01.666-24.616 6.081-29.311 16.5-2.637 5.855-2.791 15.613-2.783 18.19l-8.943 14.114a5.766 5.766 0 0 0-.184 5.942 5.938 5.938 0 0 0 5.209 3.065h3.92v8.213c0 3.374 1.041 6.078 3.009 7.818a8.73 8.73 0 0 0 7.07 1.889l10.611-2.049v7.714h4.073V84.812l-15.249 2.952a4.717 4.717 0 0 1-3.807-.906zM38.4 36.366h-4.076v4.073H38.4zm45.2 34.026c-5.8 5.722-5.8 13.22-5.8 16.823v10.249h4.073V87.215c0-3.284 0-9.4 4.588-13.923a45.176 45.176 0 0 0 7.647-9.021l-4-1.332a44.689 44.689 0 0 1-6.508 7.453zm9.783-21.807h4.073v-4.073h-4.07zm0-12.22v4.073h4.073v-4.072zM60.8 48.586h-4.073v4.073H60.8zm16.293 12.22H73.02v36.658h-4.074V60.805h-4.073v30.549H60.8V60.805h-4.073v10.183l-4.073 3.055v7.128H48.58v-9.165l4.073-3.055v-8.146H48.58v-4.073h-6.11v-4.073h6.11v-4.073h-8.146v-4.074h8.146v-4.073h-8.146v-4.073h8.146v-4.073h4.073V28.22h4.073v4.073H60.8V22.11h4.073v10.183h4.073V22.11h2.032l12.22-.027.009 4.073-10.188.022v6.114h4.073v4.073h14.257v4.073H77.093v4.073h14.256v4.073H77.093v4.073h10.183v4.073H77.093zm-4.073-24.44H52.654v20.366H73.02zM60.8 40.439h-4.073v4.073H60.8z" transform="translate(-15.99 -16)" style="fill:#007bc0"/>
</svg>
