<svg xmlns="http://www.w3.org/2000/svg" width="72.785" height="58.228" viewBox="0 0 72.785 58.228">
    <path d="M16 32v58.228h72.785V32zm69.146 3.639v10.918H19.639V35.639zm-65.507 50.95V50.2h65.507v36.389zm61.868-43.671h-3.64v-3.639h3.639zm-7.279 0h-3.639v-3.639h3.639zM40.267 62.934h3.5l-3.126 10.328h-3.5l-1.422-5.51-1.442 5.51h-3.549l-2.961-10.328h3.811l1.3 5.826 1.56-5.826H37.4l1.362 5.826zm16.628 0h3.5L57.27 73.262h-3.5l-1.422-5.51-1.442 5.51h-3.549l-2.963-10.328h3.811l1.3 5.826 1.56-5.826h2.962l1.362 5.826 1.5-5.826zm16.628 0h3.5L73.9 73.262h-3.5l-1.422-5.51-1.442 5.51h-3.551l-2.962-10.328h3.811l1.3 5.826 1.56-5.826h2.966l1.362 5.826 1.5-5.826z" transform="translate(-16 -32)" style="fill:#007bc0"/>
</svg>
