<svg xmlns="http://www.w3.org/2000/svg" width="1516" height="208" viewBox="0 0 1516 208">
    <defs>
        <clipPath id="2gunilsboa">
            <path data-name="Rectangle 2642" transform="translate(199 1188)" style="fill:#fff" d="M0 0h1516v208H0z"/>
        </clipPath>
    </defs>
    <g data-name="Mask Group 136" transform="translate(-199 -1188)" style="clip-path:url(#2gunilsboa)">
        <g data-name="Group 21046" style="opacity:.41">
            <path data-name="Path 20965" d="M10.28 202.779c-1.906-7.724 11.239-19.984 18.4-24.468a102.809 102.809 0 0 1 15.37-7.409 280.729 280.729 0 0 1 32.55-10.886 469.391 469.391 0 0 1 59.99-12.088c45.853-6.436 92.637-7.53 139.217-6.238 93.575 2.593 185.93 14.526 278.946 21.384 91.952 6.785 183.657 7.185 274.268-7.246 87.081-13.867 174.589-34.772 254.97-62.587 42.93-14.857 81.969-34.7 124.737-49.578 24.535-8.534 55.582-17.3 83.34-13.526 13.939 1.891 27.277 6.918 40.831 9.891.451.1.643-.4.192-.5-27.343-6-46.346-12.9-75.505-8.9-41.186 5.635-76.257 23.563-111.718 38.46-92.469 38.847-196.5 65.392-300.462 83.493-107.49 18.713-215.035 16.52-324.083 7.315-102.632-8.667-205.961-22.2-309.705-18.765-48.709 1.615-98.621 7.112-143.74 20.858-22.418 6.828-63.695 19.113-58.3 40.941.084.327.788.19.7-.142z" transform="translate(267.863 1158.527)" style="fill:#26b0ff"/>
            <path data-name="Path 20966" d="M10.568 211.078c-3.145-13.884 18.942-25.765 32.99-31.89 7.83-3.42 16.176-6.35 24.535-9.038 22.382-7.19 46.141-12.135 70.111-15.71 46.55-6.944 94.3-8.383 141.707-7.112 96.179 2.585 189.857 19.273 285.182 27.152 89.36 7.379 182.809 8.827 268.729-12.48 20.115-4.988 40.134-10.14 60.538-14.5 21.185-4.532 43.946-6.319 64.7-11.575 38.131-9.654 76.329-24.614 113.287-36.646 43.592-14.19 83.37-31.808 125.1-48.4 25.455-10.119 55.131-20.212 84.892-20.432 17.457-.125 34.421 5.854 50.886 9.632.451.1.643-.4.2-.5-31.889-7.31-52.54-12.2-85.956-5.139-42.154 8.913-77.519 28.767-115.723 43.538-45.179 17.472-93.395 29.81-139.59 45.636-45.877 15.719-95.434 22.133-143.583 34.126-211.1 52.576-419.017-18.614-633.03-10.765-47.176 1.727-95.2 7.246-139.121 20.074-23.952 7-71.9 20.569-66.557 44.172.072.332.776.194.7-.138z" transform="translate(269.655 1162.519)" style="fill:#26b0ff"/>
            <path data-name="Path 20967" d="M10.857 219.239c-2.8-13.625 18.1-25.429 31.847-31.761 7.565-3.481 15.623-6.5 23.717-9.292 23.14-7.961 47.909-13.492 72.931-17.472 45.865-7.293 93.227-9.223 140.1-8.064 98.681 2.434 193.1 24.477 290.612 33.131 83.166 7.388 174.565 10.2 252.752-14.332 23.4-7.345 46.6-14.913 71.121-20.2 23.08-4.971 48.829-3.937 71.109-9.9 12.556-3.36 22.027-10.558 33.308-15.473 18.335-7.991 39.039-13.591 58.613-19.785 48.186-15.249 92.643-32.6 138.159-51.4 25.587-10.567 53.43-20.513 83.172-22.745 19.478-1.465 36.934 3.649 55.27 8.043.445.108.637-.4.192-.5-33.79-8.094-54.909-10.963-89.624-2.175-41.668 10.545-76.546 30.568-115.7 44.719-44.337 16.025-95.193 26.419-136.578 46.231-11.889 5.691-18.63 9.847-33.447 12.592-11.57 2.145-22.376 3-33.994 4.489-24.114 3.1-47.56 8.921-70.159 15.594-23.621 6.974-46.31 15.616-71 20.6-29.7 5.992-61.325 7.25-92.036 7.939-56.653 1.271-113.372-2.287-169.141-9.4-102.435-13.066-201.581-32.14-306.628-27.378-47.981 2.175-96.714 8.366-140.943 22.267-23.645 7.435-69.095 21.3-64.356 44.413.066.332.77.19.7-.138z" transform="translate(271.447 1166.647)" style="fill:#26b0ff"/>
            <path data-name="Path 20968" d="M11.17 227.687c-2.526-13.793 17.355-25.342 31.059-31.873a265.2 265.2 0 0 1 28.438-11.446c24.15-8.232 49.611-14.086 75.7-18.217 48.541-7.685 99.156-9.779 148.725-7.444 96.985 4.566 188.48 31.21 284.7 39.45a974.944 974.944 0 0 0 144.4 1.779c40.422-2.563 72.4-12.587 107.905-26 22.833-8.624 46.508-16.111 71.584-20.686 20.813-3.8 43.459-1.292 63.592-5.527 10.4-2.184 16.807-6.931 24.709-11.864 18.076-11.286 37.5-18.687 59.269-25.79 48.944-15.969 95.626-31.515 141.791-51.327 23.663-10.153 49.19-20.221 76.419-24.356 23.122-3.515 42.8.327 64.453 5.734.445.112.637-.4.2-.5-35.4-8.835-57.308-9.425-93.172.853-42.431 12.161-78.223 33.247-119.662 46.868-39.55 13-88.716 22.6-122.452 42.974-11.191 6.755-17.433 12.63-32.106 15.913-12.622 2.822-24.842 1.891-37.812 2.977-24.114 2.016-47.735 7.737-69.9 14.676-18.515 5.794-35.588 13.453-53.718 19.768-29.863 10.4-59.587 14.788-92.631 16.391a994.089 994.089 0 0 1-169.76-6.251c-101.45-12.539-197.082-38.399-301.476-36.228-53.544 1.116-108.3 7.009-157.889 22.056-25.208 7.646-77.64 23.275-73.094 48.07.06.327.788.332.728 0z" transform="translate(273.227 1170.558)" style="fill:#26b0ff"/>
            <path data-name="Path 20969" d="M11.474 236.357c-2.381-14.771 19.454-26.678 33.645-33.536 7.6-3.679 15.545-6.966 23.687-9.99 23.236-8.624 48.1-14.806 73.454-19.32a657.571 657.571 0 0 1 157.571-8.654c95.415 6.5 183.621 36.741 278.621 45.223 48.763 4.355 100.112 5.7 148.953 1.1 42.112-3.959 72.733-18.989 108.711-33.756a328.576 328.576 0 0 1 66.647-19.768c22.388-4.01 44.289-.383 66.022-3.214 11.78-1.534 19.3-6.242 27.127-12.523 16.05-12.88 32.635-21.358 54.458-28.965 47.939-16.718 95.289-29.736 140.751-49.892 45.354-20.109 90.328-36.215 143.139-22.521.439.112.631-.392.192-.5-34.607-8.977-57.609-7.922-92.012 2.632-46.713 14.323-86.408 37.18-133.481 51.3-37.169 11.148-81.548 21-108.759 43.228-22.268 18.183-44.927 14.44-74.4 16.809-18.978 1.525-37.584 5.587-55.234 10.7-53.622 15.529-93.13 42.483-153.127 46.7-58.078 4.084-118.134 1.749-175.431-5.876-101.844-13.552-195.365-44.93-300.991-42.16-51.343 1.348-103.492 7.551-151.076 21.819-26.531 7.952-83.407 25.062-79.2 51.172.054.332.788.336.734 0z" transform="translate(275.004 1174.174)" style="fill:#26b0ff"/>
            <path data-name="Path 20970" d="M11.7 244.954c-.758-8.374 14.041-22.435 21.937-27.841 5.093-3.494 11.865-6.4 17.74-9.2a283.193 283.193 0 0 1 27.764-11.325c23.386-8.223 48.294-14.211 73.623-18.519 53.309-9.064 110.545-11.907 164.781-5.553 90.785 10.64 173.073 42.414 265.037 50.09 44.734 3.739 92.18 5.031 136.878.422 43.2-4.454 73.551-21.1 109.2-37.658a299.027 299.027 0 0 1 68.932-22.6c13.446-2.61 27.391-4.489 41.367-4.359 11.5.108 23.525 3.179 35.022 1.947a46.377 46.377 0 0 0 24.228-9.71c14.276-10.627 21.679-20.311 40.26-28.625 45.726-20.462 97.989-30.141 143.253-51.176 46.285-21.509 96.684-45.042 152.8-29.956.445.116.631-.388.2-.5-35.209-9.464-61.771-5.51-95.4 5.9-21.618 7.332-41.691 16.6-61.758 25.868-27.271 12.6-56.526 20.35-86.293 29.327-33.363 10.063-65.727 21.694-86.774 42.621-20.043 19.928-55.023 11.954-83.821 14.689a272.565 272.565 0 0 0-59.341 12.949c-47.993 15.831-83.238 43.728-137.323 50.293-58.258 7.078-123.228 3.6-180.9-4.273C445.8 204.483 357.473 168.22 256.4 168.724c-54.332.271-110 6.815-160.313 21.8-29.057 8.654-87.61 26.82-85.12 54.433.03.336.764.336.734 0z" transform="translate(276.858 1177.867)" style="fill:#26b0ff"/>
            <path data-name="Path 20971" d="M12.021 253.766c-.577-8.323 13.344-22.082 21.059-27.647 4.889-3.528 11.377-6.526 17.036-9.408A277.037 277.037 0 0 1 76.852 205c24.048-9.167 49.966-15.8 76.347-20.557 54.085-9.766 112.343-12.988 167.24-4.855 89.45 13.242 168.07 47.708 259.9 55.359 45.275 3.774 95.271 5.846 140.156-.987 45.041-6.849 74.657-28.311 112.025-45.778a268.888 268.888 0 0 1 69.293-21.814c13.452-2.227 27.463-3.774 41.318-3.218 11.786.474 24.252 4.286 36.2 3.33 28.865-2.309 35.985-27.712 56.286-38.813 45.083-24.645 101.718-31.951 148.7-54.213 44.283-20.979 96.071-47.161 150.583-32 .439.121.625-.383.193-.5-36.117-10.046-65.264-3.115-98.579 9.219-19.544 7.237-37.873 15.943-56.232 24.58-26.958 12.686-56.147 19.566-85.7 28.267-21.33 6.281-40.549 14.664-59.329 24.205-15.142 7.689-16.17 12.548-26.231 23.486-18.431 20.044-60 10.119-88.686 12.669a259.6 259.6 0 0 0-59.521 12.859c-48.348 16.283-82.661 47.346-136.085 56.47-56.094 9.585-122.747 5.553-178.846-1.977-99.306-13.337-186.706-56.535-290.011-56.186-52.275.177-105.753 7.039-154.077 21.465-30.266 9.033-92.5 28.965-90.5 57.758.024.336.758.336.734 0z" transform="translate(278.618 1181.345)" style="fill:#26b0ff"/>
            <path data-name="Path 20972" d="M12.347 262.641c-.686-14.216 18.876-27.147 33.242-35.173a272.583 272.583 0 0 1 28.979-14c23.17-9.576 48.342-16.649 74.062-21.819 53.225-10.7 111.321-14.814 165.641-6.065 48.45 7.81 92.541 24.123 137.919 37.96A595.638 595.638 0 0 0 578 247.478c44.578 3.631 94.459 5.863 138.358-2.18 40.6-7.435 68.2-26.678 100.467-44.46a269.744 269.744 0 0 1 70.64-27.143c30.849-7.052 55.871-4.191 86.762-1.6 38.558 3.235 38.877-22.629 59.725-38.429 39.773-30.141 102.728-33.428 149.4-55.8 43.417-20.811 97.454-51.409 151.912-35.776.439.125.626-.379.2-.5-35.209-10.106-65.589-1.34-97.322 10.989-21.57 8.383-41.385 18.614-61.951 28.138-27.511 12.747-59.076 17.257-88.458 26.949-17.253 5.686-32.809 13.337-47.645 21.771-5.364 3.046-10.518 5.768-14.294 9.671-7.132 7.366-8 19.35-18.822 25.041-14.781 7.78-42.4 4.652-59.684 3.377a171.531 171.531 0 0 0-27.391.383c-22.226 1.934-43.838 7.267-63.851 14.362-47.458 16.813-80.027 49.048-131.376 60.812-55.143 12.635-125.092 7.672-181.1.194-99.823-13.332-184.264-62.712-288.279-62.928-51.68-.108-105.025 7.513-152.369 22.362-30.879 9.688-92.7 30.787-91.308 59.938.018.336.746.34.734 0z" transform="translate(280.372 1184.756)" style="fill:#26b0ff"/>
            <path data-name="Path 20973" d="M12.674 271.584c-1-38.64 96.023-65.185 136.066-73.671 55.787-11.825 115.831-15.646 172.171-3.761 50.615 10.675 94.766 31.128 142.952 45.834 38.282 11.687 79.2 18.136 120.57 20.824 44.031 2.865 93.335 4.726 135.664-6.173 43.724-11.256 71.139-37.12 108.254-55.656a262.678 262.678 0 0 1 67.949-22.654c31.33-5.932 53.388-1.814 84 1.852 27.9 3.339 38.306-11.928 48.048-27.682 26.567-42.961 97.815-42.595 147.065-64.767 45.474-20.466 102.7-59.972 160.24-42.953.433.129.62-.379.192-.5-37.578-11.114-72.179 2.43-104.465 16.283-22.063 9.468-42.185 21.444-64.7 30.3-26.67 10.475-57.68 13.266-84.48 23.527-15.587 5.971-39.406 16.572-49.25 27.259-17.662 19.191-9.074 43.655-60.471 36.607-41.457-5.682-75.727-3.709-114.689 9.8-48.595 16.861-80.219 50.81-130.035 65.723-54.428 16.292-124.473 11.971-181.39 4.928-100.891-12.487-182.524-67.804-286.388-70.374a475.81 475.81 0 0 0-156.187 23.02c-31.673 10.4-92.613 32.778-91.843 62.234.006.336.74.336.728 0z" transform="translate(282.12 1188.103)" style="fill:#26b0ff"/>
            <path data-name="Path 20974" d="M13.014 280.555c-.144-39.037 93.954-67.128 135.718-76.424C204.079 191.811 263.1 188 318.7 201.366c51.048 12.264 93.8 35.733 142.6 51.284 37.993 12.109 79.065 18.39 120.383 20.888 45.221 2.731 95.139 4.023 137.648-9.2 44.488-13.832 72.18-43.142 111.526-62.268a254.558 254.558 0 0 1 69.425-21.922c31.883-5.182 54.145-.237 84.766 4.075 28.366 3.989 41.613-11.937 49.28-29.064 20.265-45.292 91.128-44.331 140.005-64.827 45.925-19.256 103.377-64.577 161.605-46.86.427.129.8-.319.367-.452-33.832-10.3-65.8 2.025-94.9 14.427-20.53 8.749-39.328 19.2-59.239 28.595-27.151 12.82-58.733 15.211-87.67 24.83-18.107 6.018-38.023 15.809-50.315 27.272-11.834 11.045-10.079 30.262-26.309 39.054-9.712 5.26-34.313 5.557-45.251 3.778-5.412-.879-10.469-2.455-15.96-3.218a158.293 158.293 0 0 0-25.617-1.279c-21.1.53-41.992 4.51-61.433 10.227-51.511 15.155-81.344 46.631-126.553 67.894-54.326 25.549-128.6 22.62-190.32 16.025-54.277-5.8-101.14-20.936-148.388-40.329-41.866-17.184-85.776-33.708-134.545-37.327-55.48-4.114-115.362 5.811-165.322 22.973-32.376 11.123-92.319 34.626-92.2 64.612 0 .336.734.336.728 0z" transform="translate(283.861 1191.422)" style="fill:#26b0ff"/>
            <path data-name="Path 20975" d="M13.36 289.565c.421-21.935 35.239-40.7 57.886-52.175 23.483-11.894 49.99-20.789 77.279-27.152 57.471-13.4 117.022-16.193 173.626.383 47.392 13.875 86.323 38.068 132.32 53.7 38.985 13.246 81.717 19.7 124.563 22.03 43.682 2.378 90.418 3.071 131.214-9.981 47.133-15.077 74.8-47.109 116.21-67.834a264.032 264.032 0 0 1 69.01-22.939c33.339-6.233 57.873-2.567 89.751 3.89 28.774 5.828 44.584-6.255 53.255-24.886 9.08-19.523 17.643-32.859 43.1-44.9 26.868-12.7 59.124-13.643 87.55-23.447 48.835-16.839 106.811-70.9 167.21-52.02.427.134.8-.319.367-.452-36.087-11.282-72.528 6.225-101.868 19.889-22.3 10.39-42.8 23.723-66.8 31.994-26.676 9.193-57.35 10.5-82.805 21.793-14.252 6.324-32.767 16.68-40.531 27.5-2.327 3.239-2.869 8.982-4.137 12.471a87.4 87.4 0 0 1-3.824 9.4c-6.777 13.513-11.546 16.658-32.268 19.523-21.558 2.981-28.233-1.34-47.855-3.924a170.253 170.253 0 0 0-30.2-1.124c-21.222 1-42.088 5.329-61.536 11.338-52.6 16.249-81.987 49.548-127.684 72.254-51.547 25.618-117.972 24.688-177.9 19.574-59.511-5.089-109.567-20.79-159.593-43.77-40.206-18.463-82.4-36.762-130.636-41.436-54.861-5.316-115.182 5.561-164.137 23.167-33.164 11.928-91.717 36.784-92.295 67.132-.006.34.722.34.728 0z" transform="translate(285.596 1194.698)" style="fill:#26b0ff"/>
            <path data-name="Path 20976" d="M13.706 298.6c1.672-39.377 86.353-70.044 129.957-81.205 60.64-15.521 123.059-17.692 181.7 2.912 44.884 15.771 80.989 41.583 125.922 57.194 37.476 13.022 78.836 19.178 120.167 21.444 44.963 2.464 92.306 2.714 133.673-11.808 42.034-14.754 67.994-42.673 102.728-64.026 42.8-26.316 108.7-46.248 164.895-32.627 30.849 7.478 54.374 11.571 68.86-13.979 4.125-7.263 4.955-14.922 7.968-22.353 4.636-11.441 15.929-21.035 28.57-28.707 27.951-16.96 62.768-15.65 94.129-26.493 47-16.253 106.059-72.654 164.456-53.929.421.138.794-.314.367-.452-36.658-11.756-75.908 9.5-104.472 23.654-22.726 11.255-44.198 26.152-70.426 33.075-26 6.862-54.055 7.987-77.315 19.691-11.534 5.807-28.81 16.856-34.355 26.708-13.157 23.387-4.119 58.844-65.192 45.9-44.656-9.468-81.6-9.175-125.2 5.036-47.987 15.637-76.407 43.926-114.821 68.278-53.039 33.626-121.454 35.866-188.847 30.529-59.028-4.674-109.836-19.574-157.991-44.124C357.237 232.293 314.6 210.4 263.12 205.2c-54.374-5.492-114.316 6.587-161.888 25.157-32.972 12.865-86.979 38.151-88.254 68.243-.018.336.716.336.728 0z" transform="translate(287.33 1197.954)" style="fill:#26b0ff"/>
            <path data-name="Path 20977" d="M14.053 307.653c4.666-42.625 89.426-74.821 138.285-86.556 63.719-15.3 124.064-13.186 181.745 12.393 39.124 17.352 70.881 42.216 112.4 56.94 38.682 13.717 81.717 19.67 124.536 21.54 45.7 1.99 91.825.853 132.627-15.581 43.429-17.489 69.4-49.091 107.491-71.181 50.555-29.323 115.6-42.681 177.216-25.579 26.892 7.465 47.085 4.084 58.764-16.016 10.86-18.7 7.511-35.983 28.678-51.831 28.317-21.207 65.192-18.545 99.541-30.09 45.348-15.241 105.308-74.421 161.78-55.863.427.138.794-.31.367-.452-37.181-12.217-79.258 13-106.962 27.509-24.535 12.85-45.257 26.8-75.108 33.109-23.1 4.876-47.031 6.108-66.924 16.8-13.115 7.052-27.512 18.364-32.5 29.607-2.953 6.643-2.676 14.285-5.19 21.108-1.84 4.993-3.855 9.981-7.318 14.569-11.245 14.875-39.34 15.271-58.589 9.848-40.495-11.407-81.308-8.133-121.081 4.054-53.508 16.4-83.533 47.6-124.917 75.019-50.074 33.17-112.283 37.788-177.674 33.945-60.736-3.571-114.839-16.99-163.139-43.749-39.334-21.8-77.67-45.576-127.317-54.11-53.58-9.206-113.859 2.611-161.563 20.574-36.983 13.923-92.3 41.251-95.879 73.99-.042.336.692.332.728 0z" transform="translate(289.063 1201.189)" style="fill:#26b0ff"/>
            <path data-name="Path 20978" d="M14.4 316.72c5.653-43.685 86.455-77.126 137.323-89.842 65.318-16.326 126.661-11.605 182.911 17.645 38.083 19.8 68.4 45.929 111.508 60.636 41.192 14.048 87.177 19.066 132.428 20 45.089.93 88.644-3.028 126.806-21.517 44.313-21.461 70.694-56.668 114.232-78.9 48.847-24.938 112.007-37.986 168.978-20.686 27.692 8.4 50.91 9.089 63.183-13.552 8.292-15.3 5.815-32.76 17.234-47.286 23.17-29.482 66.5-26.949 104.634-37.512 22.328-6.182 40.32-19.445 59.094-29.667 26.237-14.285 69.648-41.208 104.778-29.4.421.142.794-.31.367-.452-37.542-12.622-82.318 16.606-109.2 31.434-24.03 13.251-44.427 26.618-75.1 31.58-25.046 4.058-49.3 6.522-68.932 19.406-40.6 26.648-13.909 98.975-99.408 73.749-39.6-11.687-81.765-7.659-120.648 3.92-50.838 15.137-82.541 42.677-118.964 70.94-48.763 37.839-106.781 49.612-177.258 47.131-63.809-2.244-123.42-14.22-173.145-43.749-37.332-22.172-70.706-46.993-117.7-58.736-55.185-13.793-118.928-1.512-168.569 17.95-37.921 14.866-90.978 43.538-95.3 76.9-.042.332.692.332.734 0z" transform="translate(290.793 1204.412)" style="fill:#26b0ff"/>
            <path data-name="Path 20979" d="M14.751 325.749c6.687-44.671 83.509-79.642 136.337-93.189 69.065-17.718 131.665-8.68 186.64 25.579 35.455 22.1 64.1 47.721 107.911 61.855 42.371 13.669 89.967 17.864 136.042 17.993 45.474.125 88.464-7.263 124.809-27.673 44.349-24.9 71.29-61.971 119.2-84.247a284.2 284.2 0 0 1 76.767-23.167c37.933-5.725 63.869.19 98.56 9.835 28.8 8 49.485 1.374 58.824-19.919 7.186-16.387 4.3-34.445 16.3-49.754 24.042-30.675 67.705-23.757 105.506-35.957 18.75-6.048 34.186-17.666 50.068-26.755 24.8-14.2 71.332-44.9 106.192-32.92.421.146.794-.306.367-.452-34.223-11.764-75.746 15.37-100.166 29.073-24.2 13.582-45.455 29.4-76.226 34.8-26.628 4.674-52.5 5.273-73.232 19.669-35.437 24.619-11.708 99.759-87.051 81.485-20.9-5.075-37.74-11.764-60.622-12.243-24.836-.521-49.653 3.507-72.673 10-52.389 14.78-86.239 41.733-122.29 71.556C698.4 320.7 644.263 338.72 571.127 337.346c-65.06-1.223-129.163-11.739-179.189-43.008-37.819-23.641-68.614-51.4-116.583-65.168-54.6-15.667-117.467-3.369-166.741 16.688-38.943 15.848-89.492 45.783-94.6 79.891-.048.336.68.332.734 0z" transform="translate(292.527 1207.669)" style="fill:#26b0ff"/>
            <path data-name="Path 20980" d="M15.1 334.858c7.775-45.688 80.075-82.252 135.213-96.683 73.43-19.221 136.024-4.592 189.31 34.539 32.316 23.731 59.233 47.751 102.842 61.067 44.018 13.444 94.73 17.377 142.224 16.921 42.852-.409 82.637-10.451 115.813-29.991 45.973-27.078 73.418-66.434 124.292-89.933a286.956 286.956 0 0 1 77.3-23.094c39.015-5.828 67.808-.194 103.347 11.041 30.59 9.667 52.064 1 61.283-21.164 6.555-15.762 3.68-32.984 12.177-48.273 18.732-33.73 62.011-28.229 101.1-38.236 19.706-5.049 34.613-16.507 50.351-25.967 23.976-14.414 73.082-49.039 107.948-36.8.421.146.794-.3.373-.452-35.618-12.505-81.128 20.35-105.584 34.923-24.89 14.823-44.782 27.7-78.031 31.748-25.226 3.067-48.522 5.764-65.655 20.625a47.6 47.6 0 0 0-16.1 27.246c-1.966 9.244-2.243 18.609-4.877 27.807a66.1 66.1 0 0 1-3.331 9.6c-7.2 15.62-26.351 23.227-50.1 21.19-13.2-1.129-27.355-10.166-40.976-13.018a178.041 178.041 0 0 0-33.219-3.564c-26.411-.478-52.888 4.157-77.183 11.3-50.609 14.9-84.465 41.092-118.754 70.66-45.408 39.166-96.5 64.668-170.085 63.772-62.943-.762-131.033-8.043-180.795-38-41.6-25.05-69.78-58.68-120.828-75.433-53.814-17.657-116.252-5.449-165.111 15.172-40.014 16.886-87.742 48.117-93.684 83-.054.332.674.332.734 0z" transform="translate(294.261 1210.85)" style="fill:#26b0ff"/>
            <path data-name="Path 20981" d="M15.416 344c7.842-40.984 63.093-76.536 112.223-93.637C162.024 238.391 204 229.758 242.087 236.9c34.343 6.44 63.189 23.051 86.576 41.6 31.949 25.342 57.332 52.089 101.88 66.787 43.513 14.353 94.141 18.545 141.623 18.166 45.516-.362 87.562-11.213 122.241-32.463 46.484-28.487 73.959-69.26 125.886-93.844 53.814-25.476 120.726-37.021 180.47-16.038 28.378 9.968 55.33 13.307 69.516-11.226 8.124-14.052 7.637-29.7 9.838-44.538 2.333-15.736 11.883-30.727 31.426-39.364 17.662-7.8 37.53-6.78 56.983-9.684 24.95-3.718 38.943-12.772 57.573-24.524 22.948-14.483 77.279-55.294 112.578-42.651.421.151.788-.3.367-.452-36.393-13.04-86.389 25.7-110.461 40.829-8.93 5.613-17.469 11.734-27.2 16.641-16.856 8.495-33.681 9.318-53.183 11.5-21.9 2.451-40.844 6.4-54.681 19.561-32.322 30.744 3.2 116.184-92.391 83.454-43.983-15.06-88.47-14.009-133.884-1.443-53.622 14.836-89.817 41.876-125.164 73.365-43.646 38.882-92.3 68.6-165.238 70.333-61.746 1.465-131.761-5.85-181.8-33.652-44.788-24.882-69.774-63.5-120.828-83.506C181.706 209.495 29.03 269 14.712 343.866c-.06.327.643.47.7.138z" transform="translate(296.005 1214.063)" style="fill:#26b0ff"/>
            <path data-name="Path 20982" d="M15.763 353.067c9.219-43.392 62.029-80.525 115.194-98.652 35.028-11.945 75.9-18.8 113.666-9.589 33.585 8.193 60.092 27.057 81.548 46.545 27.975 25.416 51.643 51.038 93.413 65.766 43.748 15.426 96.45 19.975 144.726 19.027 46.316-.909 89.246-12.889 123.931-34.957 44.752-28.474 71.6-68.571 120.528-94.154 51.686-27.027 127.8-45.2 188.624-23.283 29.875 10.765 61.632 21.16 78.818-6.97 8.485-13.893 8.437-29.685 9.772-44.512 1.209-13.449 3.981-26.686 17.084-37.206 18.642-14.969 43.808-13.255 68.644-16.344 23.417-2.912 36.634-11.084 53.55-22.206 22.677-14.913 78.451-59.511 113.8-46.6.421.155.788-.3.373-.452-35.377-12.919-86.467 28.186-108.843 42.828-9.952 6.513-20.223 14.784-31.925 19.747-17.758 7.53-37.855 6.014-57.194 8.538-20.807 2.714-37.62 9.636-47.717 23.331-8.8 11.924-7.974 24.761-9.141 37.818-.908 10.11-2.159 20.638-6.723 30.3-2.4 5.083-6.849 12.277-12.737 16.232-22.635 15.193-44.265 4.006-63.682-3.446-43.507-16.692-94.543-12.6-138.977.276-55.619 16.12-92.024 45.037-128.267 78.151-43.032 39.317-92.325 69.867-165.376 72.25-60.952 1.986-130.57-5.126-179.863-32.769-44.067-24.718-65.5-64.237-112.86-86.827C180.1 210.1 31.35 276.265 15.059 352.925c-.072.332.631.474.7.142z" transform="translate(297.739 1217.29)" style="fill:#26b0ff"/>
            <path data-name="Path 20983" d="M16.11 362.15c10.457-44.658 58.09-83.092 113.913-102.313 39.6-13.634 83.587-19.307 123.961-3.761 30.488 11.743 52.209 30.891 71.326 51.008 26.465 27.85 51.565 52.542 96 66.451 44.908 14.056 99.968 18.157 148.37 14.461 45.4-3.468 86.167-18.084 118.651-40.88 45.768-32.114 74.056-74.4 129-100.073 54.38-25.411 127.912-39.627 187.969-16.076 30.825 12.088 61.909 18.454 78.1-9.529 8.431-14.582 8.19-31.046 8.894-46.528.668-14.793 2.015-31.916 20.085-42.031 18.75-10.494 40.615-9.339 62.618-11.678 25.185-2.675 38.679-12.385 56.31-24.438 20.939-14.315 75.1-58.292 108.158-45.994.415.155.788-.3.367-.452-34.932-13-87.82 31.567-109.042 46.076-9.1 6.216-18.2 13.849-29.021 18.467-17.565 7.491-37.807 5.29-56.972 7.659-21.065 2.6-37.193 9.283-46.514 23.538-8 12.234-6.3 25.062-7 38.132-.541 10.067-1.467 20.389-5.334 30.133-2.688 6.78-6.669 15.969-14.913 20.44l-36.231 6.061a128.082 128.082 0 0 1-25.551-8.8c-45.287-17.7-94.351-16.5-142.128-3.618-51.6 13.91-89.691 38.537-123.276 69.281-45.456 41.613-88.1 80.572-165.646 88.882-61.764 6.612-137.149-.056-189-26.549-47.771-24.412-66.256-67.287-111.886-93.353-98.831-56.457-243.587 17.093-261.9 95.348-.078.327.625.47.7.138z" transform="translate(299.473 1220.493)" style="fill:#26b0ff"/>
            <path data-name="Path 20984" d="M16.456 371.209c12.923-50.482 62.654-93.6 130-111.592 82.961-22.168 136.944 16.744 176.987 63.883 23.8 28.013 49.563 50.974 92.866 63.961 46.46 13.94 104.207 17.86 153.722 12.131s91.308-24.838 124-51.667c42.4-34.8 72.781-75.032 129.71-99.444 57.549-24.675 128.64-35.2 189.2-10.343 34.938 14.345 67.008 14.164 79.829-16.632 6.488-15.594 5.737-32.08 5.677-48.148-.054-13.8 2.76-28.659 17.619-38.727 19.1-12.945 44.013-8.861 67.038-11.476 23.909-2.718 36.622-13.9 52.973-25.506 20.4-14.465 72.4-57.952 103.774-46.071.415.159.787-.293.373-.452-33.693-12.755-87.688 34.057-107.382 48.092-8.551 6.1-17.511 13.936-27.981 18.42-17.637 7.556-37.62 4.67-56.743 6.776-21.192 2.335-36.983 9.184-45.348 23.8-7.884 13.763-4.318 28.823-5.027 43.28-.487 9.951-1.624 20.3-5.677 29.874-2.5 5.91-5.641 11.7-11.377 16.4-21.228 17.4-46.009 8.568-67.381-.078-46.442-18.786-97.31-17.83-146.722-4.618-52.185 13.957-91.537 38.83-125.248 70.027-42.365 39.213-80.346 79.094-150.908 92.871-62.594 12.217-145.357 6.216-200.657-18.92-52.852-24.024-68.144-69.256-112.1-99.082-100.4-68.127-241.554 13.582-261.916 93.108-.084.328.619.47.7.138z" transform="translate(301.207 1223.724)" style="fill:#26b0ff"/>
            <path data-name="Path 20985" d="M16.8 380.29c12.652-46.179 47.26-86.375 106.823-108.482 44.512-16.516 91.567-18.8 132.3 4.476 28.895 16.516 45.173 38.933 62.7 61.614 22.877 29.602 50.857 52.326 96.006 64.512 49.828 13.449 111.718 16.7 163.338 7.142 50.862-9.417 90.057-33.234 121.724-62.432 47.554-43.844 87.327-86.7 162.459-107.707 31.914-8.926 66.755-13.612 100.888-10.011a172.611 172.611 0 0 1 50.369 12.824c11.227 4.79 22.286 10.675 35.449 12.445 40.212 5.406 52.828-25.881 55.534-48.329 2.676-22.159-9.64-52.434 15.37-69.941 26.2-18.342 67.693-3.2 95.867-19.454 16.844-9.714 30.7-22.943 46.268-33.7 15.454-10.675 53.032-40.588 78.349-30.839.415.159.782-.293.367-.452-27.506-10.593-67.94 22.93-84.213 34.41-14.414 10.171-27.439 22.814-43.772 31.382-26.279 13.789-61.259 1.615-87.424 14.689-18.076 9.038-21.967 25.162-21.745 39.847.313 20.4 3.271 40.9-7.649 60.412-21.667 38.692-65.841 12.432-100.689 2.193-26.081-7.668-55.005-8.736-82.655-5.8-57.765 6.126-111.688 28.513-150.643 59.3-51.848 40.98-84.8 93.594-160.764 115.228-62.137 17.7-147.2 14.013-206.574-8.176-58.913-22.017-72.924-65.741-111.572-100.625-44.728-40.377-106.655-45.6-167.92-20.208-55.156 22.862-86.846 61.567-98.891 105.54-.09.332.613.47.7.142z" transform="translate(302.94 1226.933)" style="fill:#26b0ff"/>
        </g>
    </g>
</svg>
