<svg xmlns="http://www.w3.org/2000/svg" width="417.319" height="395.157" viewBox="0 0 417.319 395.157">
    <g data-name="Progress overview-bro">
        <path data-name="Path 20986" d="M355.354 45.413s-47.068-34.772-107.231-15.62S163.489 100.7 129.4 137.084c-17.859 19.091-44.551 27.005-65.881 42.018-68.216 48.005-56.362 148.389-2.6 183.968 46.564 30.83 104.132 31.647 178.57 3.93s127.753-44.751 173.034-116.455.841-157.665-57.169-205.132z" transform="translate(-13.82 -24.036)" style="fill:#007bc0"/>
        <path data-name="Path 20987" d="M355.354 45.413s-47.068-34.772-107.231-15.62S163.489 100.7 129.4 137.084c-17.859 19.091-44.551 27.005-65.881 42.018-68.216 48.005-56.362 148.389-2.6 183.968 46.564 30.83 104.132 31.647 178.57 3.93s127.753-44.751 173.034-116.455.841-157.665-57.169-205.132z" transform="translate(-13.82 -24.036)" style="opacity:.8;fill:#fff"/>
        <path data-name="Line 23777" transform="translate(342.489 278.941)" style="stroke-miterlimit:10;stroke:#263238;fill:none" d="m0 0 8.791 84.191"/>
        <path data-name="Line 23778" transform="translate(345.873 342.809)" style="stroke-miterlimit:10;stroke:#263238;fill:none" d="M3.983 4.209 0 0"/>
        <path data-name="Path 20988" d="M412.1 419.717a4.521 4.521 0 0 0-1.588-3.384c-1.024-.911-6.4-3.176-6.942-1.276-.499 2.057 4.976 6.11 8.53 4.66z" transform="translate(-65.007 -75.642)" style="stroke-miterlimit:10;stroke:#263238;fill:#007bc0"/>
        <path data-name="Line 23779" transform="translate(341.968 340.882)" style="stroke-width:.5px;stroke-miterlimit:10;stroke:#263238;fill:none" d="M5.12 3.193 0 0"/>
        <path data-name="Line 23780" transform="translate(346.88 352.389)" style="stroke-miterlimit:10;stroke:#263238;fill:none" d="M3.983 4.209 0 0"/>
        <path data-name="Path 20989" d="M413.245 430.748a4.512 4.512 0 0 0-1.588-3.376c-1.024-.92-6.4-3.176-6.942-1.284-.521 2.065 4.985 6.112 8.53 4.66z" transform="translate(-65.159 -77.101)" style="stroke-miterlimit:10;stroke:#263238;fill:#007bc0"/>
        <path data-name="Line 23781" transform="translate(342.966 350.454)" style="stroke-width:.5px;stroke-miterlimit:10;stroke:#263238;fill:none" d="M5.12 3.193 0 0"/>
        <path data-name="Line 23782" transform="translate(343.435 319.448)" style="stroke-miterlimit:10;stroke:#263238;fill:none" d="M3.983 4.209 0 0"/>
        <path data-name="Path 20990" d="M409.285 392.788a4.512 4.512 0 0 0-1.588-3.376c-1.024-.911-6.4-3.176-6.942-1.284-.53 2.066 4.981 6.11 8.53 4.66z" transform="translate(-64.635 -72.082)" style="stroke-miterlimit:10;stroke:#263238;fill:#007bc0"/>
        <path data-name="Line 23783" transform="translate(339.53 317.513)" style="stroke-width:.5px;stroke-miterlimit:10;stroke:#263238;fill:none" d="M5.12 3.193 0 0"/>
        <path data-name="Line 23784" transform="translate(344.442 329.02)" style="stroke-miterlimit:10;stroke:#263238;fill:none" d="M3.983 4.209 0 0"/>
        <path data-name="Path 20991" d="M410.435 403.827a4.521 4.521 0 0 0-1.588-3.384c-1.024-.911-6.4-3.176-6.942-1.276-.521 2.057 4.981 6.11 8.53 4.66z" transform="translate(-64.787 -73.541)" style="stroke-miterlimit:10;stroke:#263238;fill:#007bc0"/>
        <path data-name="Line 23785" transform="translate(340.528 327.093)" style="stroke-width:.5px;stroke-miterlimit:10;stroke:#263238;fill:none" d="M5.12 3.193 0 0"/>
        <path data-name="Line 23786" transform="translate(341.812 303.898)" style="stroke-miterlimit:10;stroke:#263238;fill:none" d="M3.983 4.2 0 0"/>
        <path data-name="Path 20992" d="M407.415 374.867a4.521 4.521 0 0 0-1.588-3.384c-1.024-.911-6.4-3.176-6.942-1.276-.53 2.057 4.981 6.11 8.53 4.66z" transform="translate(-64.388 -69.712)" style="stroke-miterlimit:10;stroke:#263238;fill:#007bc0"/>
        <path data-name="Line 23787" transform="translate(337.899 301.963)" style="stroke-width:.5px;stroke-miterlimit:10;stroke:#263238;fill:none" d="M5.129 3.193 0 0"/>
        <path data-name="Line 23788" transform="translate(340.181 288.269)" style="stroke-miterlimit:10;stroke:#263238;fill:none" d="M3.983 4.209 0 0"/>
        <path data-name="Path 20993" d="M405.535 356.868a4.521 4.521 0 0 0-1.588-3.384c-1.024-.911-6.4-3.176-6.942-1.276-.53 2.056 4.981 6.109 8.53 4.66z" transform="translate(-64.139 -67.331)" style="stroke-miterlimit:10;stroke:#263238;fill:#007bc0"/>
        <path data-name="Line 23789" transform="translate(336.276 286.343)" style="stroke-width:.5px;stroke-miterlimit:10;stroke:#263238;fill:none" d="M5.12 3.193 0 0"/>
        <path data-name="Line 23790" transform="translate(349.188 336.413)" style="stroke-miterlimit:10;stroke:#263238;fill:none" d="M0 4.938 3.029 0"/>
        <path data-name="Path 20994" d="M418.237 412.382a4.53 4.53 0 0 1 .868-3.636c.816-1.1 5.615-4.426 6.5-2.681.954 1.908-3.605 7.002-7.368 6.317z" transform="translate(-66.94 -74.485)" style="stroke-miterlimit:10;stroke:#263238;fill:#007bc0"/>
        <path data-name="Line 23791" transform="translate(351.297 333.489)" style="stroke-width:.5px;stroke-miterlimit:10;stroke:#263238;fill:none" d="M0 4.408 4.608 0"/>
        <path data-name="Line 23792" transform="translate(346.559 311.222)" style="stroke-miterlimit:10;stroke:#263238;fill:none" d="M0 4.938 3.029 0"/>
        <path data-name="Path 20995" d="M415.207 383.351a4.521 4.521 0 0 1 .868-3.636c.816-1.1 5.614-4.434 6.5-2.681.954 1.9-3.602 6.994-7.368 6.317z" transform="translate(-66.54 -70.646)" style="stroke-miterlimit:10;stroke:#263238;fill:#007bc0"/>
        <path data-name="Line 23793" transform="translate(348.668 308.289)" style="stroke-width:.5px;stroke-miterlimit:10;stroke:#263238;fill:none" d="M0 4.417 4.608 0"/>
        <path data-name="Line 23794" transform="translate(345.405 300.149)" style="stroke-miterlimit:10;stroke:#263238;fill:none" d="M0 4.938 3.029 0"/>
        <path data-name="Path 20996" d="M413.877 370.582a4.469 4.469 0 0 1 .868-3.627c.816-1.1 5.606-4.434 6.5-2.681.955 1.9-3.602 6.994-7.368 6.308z" transform="translate(-66.364 -68.958)" style="stroke-miterlimit:10;stroke:#263238;fill:#007bc0"/>
        <path data-name="Line 23795" transform="translate(347.514 297.216)" style="stroke-width:.5px;stroke-miterlimit:10;stroke:#263238;fill:none" d="M0 4.417 4.608 0"/>
        <path data-name="Line 23796" transform="translate(343.713 283.913)" style="stroke-miterlimit:10;stroke:#263238;fill:none" d="M0 4.938 3.029 0"/>
        <path data-name="Path 20997" d="M411.917 351.882a4.513 4.513 0 0 1 .868-3.636c.807-1.1 5.606-4.426 6.5-2.681.954 1.9-3.593 7.002-7.368 6.317z" transform="translate(-66.105 -66.485)" style="stroke-miterlimit:10;stroke:#263238;fill:#007bc0"/>
        <path data-name="Line 23797" transform="translate(345.813 280.989)" style="stroke-width:.5px;stroke-miterlimit:10;stroke:#263238;fill:none" d="M0 4.408 4.617 0"/>
        <path data-name="Path 20998" d="M407.987 343.9a4.486 4.486 0 0 1 .868-3.636c.807-1.1 5.606-4.426 6.5-2.681.971 1.91-3.585 7.004-7.368 6.317z" transform="translate(-65.585 -65.43)" style="stroke-miterlimit:10;stroke:#263238;fill:#007bc0"/>
        <path data-name="Line 23798" transform="translate(342.42 274.064)" style="stroke-width:.5px;stroke-miterlimit:10;stroke:#263238;fill:none" d="M0 4.408 4.608 0"/>
        <path data-name="Path 20999" d="M407.389 343.933a4.512 4.512 0 0 1-3.523-1.232c-1.007-.92-3.818-6.074-1.979-6.743 1.987-.763 6.578 4.296 5.502 7.975z" transform="translate(-64.709 -65.27)" style="stroke-miterlimit:10;stroke:#263238;fill:#007bc0"/>
        <path data-name="Line 23799" transform="translate(338.784 273.612)" style="stroke-width:.5px;stroke-miterlimit:10;stroke:#263238;fill:none" d="M3.896 5.05 0 0"/>
        <path data-name="Line 23800" transform="translate(356.929 290.534)" style="stroke-miterlimit:10;stroke:#263238;fill:none" d="M8.738 0 0 84.2"/>
        <path data-name="Line 23801" transform="translate(355.827 353.734)" style="stroke-miterlimit:10;stroke:#263238;fill:none" d="M3.029 4.938 0 0"/>
        <path data-name="Path 21000" d="M423.4 432.342a4.513 4.513 0 0 0-.868-3.636c-.816-1.1-5.615-4.426-6.5-2.673-.965 1.901 3.591 6.995 7.368 6.309z" transform="translate(-66.642 -77.125)" style="stroke-miterlimit:10;stroke:#263238;fill:#007bc0"/>
        <path data-name="Line 23802" transform="translate(352.399 351.044)" style="stroke-width:.5px;stroke-miterlimit:10;stroke:#263238;fill:none" d="M4.356 4.174 0 0"/>
        <path data-name="Line 23803" transform="translate(358.248 330.373)" style="stroke-miterlimit:10;stroke:#263238;fill:none" d="M3.037 4.929 0 0"/>
        <path data-name="Path 21001" d="M426.188 405.413a4.5 4.5 0 0 0-.868-3.627c-.807-1.1-5.606-4.426-6.5-2.681-.954 1.895 3.61 7.002 7.368 6.308z" transform="translate(-67.011 -73.564)" style="stroke-miterlimit:10;stroke:#263238;fill:#007bc0"/>
        <path data-name="Line 23804" transform="translate(354.82 327.675)" style="stroke-width:.5px;stroke-miterlimit:10;stroke:#263238;fill:none" d="M4.356 4.174 0 0"/>
        <path data-name="Line 23805" transform="translate(357.259 339.945)" style="stroke-miterlimit:10;stroke:#263238;fill:none" d="M3.029 4.938 0 0"/>
        <path data-name="Path 21002" d="M425.047 416.452a4.512 4.512 0 0 0-.868-3.636c-.816-1.1-5.615-4.426-6.5-2.673-.962 1.901 3.594 6.995 7.368 6.309z" transform="translate(-66.86 -75.023)" style="stroke-miterlimit:10;stroke:#263238;fill:#007bc0"/>
        <path data-name="Line 23806" transform="translate(353.831 337.246)" style="stroke-width:.5px;stroke-miterlimit:10;stroke:#263238;fill:none" d="M4.356 4.183 0 0"/>
        <path data-name="Line 23807" transform="translate(359.862 314.814)" style="stroke-miterlimit:10;stroke:#263238;fill:none" d="M3.037 4.938 0 0"/>
        <path data-name="Path 21003" d="M428.048 387.492a4.513 4.513 0 0 0-.868-3.636c-.807-1.1-5.606-4.426-6.5-2.673-.954 1.901 3.602 6.995 7.368 6.309z" transform="translate(-67.257 -71.194)" style="stroke-miterlimit:10;stroke:#263238;fill:#007bc0"/>
        <path data-name="Line 23808" transform="translate(356.434 312.116)" style="stroke-width:.5px;stroke-miterlimit:10;stroke:#263238;fill:none" d="M4.356 4.183 0 0"/>
        <path data-name="Line 23809" transform="translate(361.485 299.194)" style="stroke-miterlimit:10;stroke:#263238;fill:none" d="M3.037 4.938 0 0"/>
        <path data-name="Path 21004" d="M429.917 369.492a4.513 4.513 0 0 0-.868-3.636c-.807-1.1-5.606-4.426-6.5-2.681-.962 1.908 3.594 7.002 7.368 6.317z" transform="translate(-67.504 -68.813)" style="stroke-miterlimit:10;stroke:#263238;fill:#007bc0"/>
        <path data-name="Line 23810" transform="translate(358.057 296.496)" style="stroke-width:.5px;stroke-miterlimit:10;stroke:#263238;fill:none" d="M4.356 4.183 0 0"/>
        <path data-name="Line 23811" transform="translate(359.367 348.779)" style="stroke-miterlimit:10;stroke:#263238;fill:none" d="M0 4.209 3.983 0"/>
        <path data-name="Path 21005" d="M430.75 426.6a4.5 4.5 0 0 1 1.579-3.384c1.024-.868 6.4-3.176 6.942-1.284.529 2.054-4.971 6.107-8.521 4.668z" transform="translate(-68.606 -76.552)" style="stroke-miterlimit:10;stroke:#263238;fill:#007bc0"/>
        <path data-name="Line 23812" transform="translate(362.144 346.679)" style="stroke-width:.5px;stroke-miterlimit:10;stroke:#263238;fill:none" d="M0 3.367 5.415 0"/>
        <path data-name="Line 23813" transform="translate(361.988 323.579)" style="stroke-miterlimit:10;stroke:#263238;fill:none" d="M0 4.217 3.974 0"/>
        <path data-name="Path 21006" d="M433.76 397.557a4.53 4.53 0 0 1 1.579-3.384c1.024-.911 6.4-3.176 6.942-1.284.53 2.065-4.972 6.117-8.521 4.668z" transform="translate(-69.004 -72.711)" style="stroke-miterlimit:10;stroke:#263238;fill:#007bc0"/>
        <path data-name="Line 23814" transform="translate(364.756 321.479)" style="stroke-width:.5px;stroke-miterlimit:10;stroke:#263238;fill:none" d="M0 3.367 5.424 0"/>
        <path data-name="Line 23815" transform="translate(363.133 312.506)" style="stroke-miterlimit:10;stroke:#263238;fill:none" d="M0 4.209 3.983 0"/>
        <path data-name="Path 21007" d="M435.08 384.8a4.521 4.521 0 0 1 1.588-3.384c1.024-.911 6.4-3.176 6.942-1.284.53 2.062-4.981 6.106-8.53 4.668z" transform="translate(-69.178 -71.024)" style="stroke-miterlimit:10;stroke:#263238;fill:#007bc0"/>
        <path data-name="Line 23816" transform="translate(365.902 310.406)" style="stroke-width:.5px;stroke-miterlimit:10;stroke:#263238;fill:none" d="M0 3.367 5.424 0"/>
        <path data-name="Line 23817" transform="translate(364.817 296.279)" style="stroke-miterlimit:10;stroke:#263238;fill:none" d="M0 4.209 3.983 0"/>
        <path data-name="Path 21008" d="M437 366.087a4.5 4.5 0 0 1 1.579-3.384c1.024-.911 6.4-3.176 6.942-1.284.556 2.065-4.954 6.117-8.521 4.668z" transform="translate(-69.432 -68.55)" style="stroke-miterlimit:10;stroke:#263238;fill:#007bc0"/>
        <path data-name="Line 23818" transform="translate(367.594 294.17)" style="stroke-width:.5px;stroke-miterlimit:10;stroke:#263238;fill:none" d="M0 3.367 5.415 0"/>
        <path data-name="Path 21009" d="M434.83 357.478a4.521 4.521 0 0 1 1.588-3.384c1.024-.868 6.4-3.176 6.942-1.284.53 2.056-4.981 6.143-8.53 4.668z" transform="translate(-69.145 -67.413)" style="stroke-miterlimit:10;stroke:#263238;fill:#007bc0"/>
        <path data-name="Line 23819" transform="translate(365.685 286.698)" style="stroke-width:.5px;stroke-miterlimit:10;stroke:#263238;fill:none" d="M0 3.367 5.424 0"/>
        <path data-name="Path 21010" d="M434.382 357.206a4.5 4.5 0 0 1-3.193-1.926c-.807-1.111-2.49-6.7-.555-7.012 2.108-.339 5.566 5.562 3.748 8.938z" transform="translate(-68.472 -66.906)" style="stroke-miterlimit:10;stroke:#263238;fill:#007bc0"/>
        <path data-name="Line 23820" transform="translate(363.133 284.555)" style="stroke-width:.5px;stroke-miterlimit:10;stroke:#263238;fill:none" d="M2.777 5.745 0 0"/>
        <path data-name="Line 23821" transform="translate(355.653 256.248)" style="stroke-miterlimit:10;stroke:#263238;fill:none" d="M0 0v106.476"/>
        <path data-name="Line 23822" transform="translate(352.208 342.114)" style="stroke-miterlimit:10;stroke:#263238;fill:none" d="M3.532 4.599 0 0"/>
        <path data-name="Path 21011" d="M419.314 418.937a4.521 4.521 0 0 0-1.224-3.523c-.929-1.015-6.074-3.827-6.743-2-.771 2 4.288 6.599 7.967 5.523z" transform="translate(-66.03 -75.443)" style="stroke-miterlimit:10;stroke:#263238;fill:#007bc0"/>
        <path data-name="Line 23823" transform="translate(348.52 339.789)" style="stroke-width:.5px;stroke-miterlimit:10;stroke:#263238;fill:none" d="M4.764 3.705 0 0"/>
        <path data-name="Line 23824" transform="translate(352.208 322.104)" style="stroke-miterlimit:10;stroke:#263238;fill:none" d="M3.532 4.599 0 0"/>
        <path data-name="Path 21012" d="M419.314 395.877a4.521 4.521 0 0 0-1.224-3.523c-.929-1.015-6.074-3.827-6.743-2-.771 2 4.288 6.599 7.967 5.523z" transform="translate(-66.03 -72.393)" style="stroke-miterlimit:10;stroke:#263238;fill:#007bc0"/>
        <path data-name="Line 23825" transform="translate(348.52 319.778)" style="stroke-width:.5px;stroke-miterlimit:10;stroke:#263238;fill:none" d="M4.764 3.705 0 0"/>
        <path data-name="Line 23826" transform="translate(352.208 298.613)" style="stroke-miterlimit:10;stroke:#263238;fill:none" d="M3.532 4.599 0 0"/>
        <path data-name="Path 21013" d="M419.314 368.807a4.521 4.521 0 0 0-1.224-3.523c-.929-1.015-6.074-3.827-6.743-2-.771 2 4.288 6.616 7.967 5.523z" transform="translate(-66.03 -68.814)" style="stroke-miterlimit:10;stroke:#263238;fill:#007bc0"/>
        <path data-name="Line 23827" transform="translate(348.52 296.287)" style="stroke-width:.5px;stroke-miterlimit:10;stroke:#263238;fill:none" d="M4.764 3.705 0 0"/>
        <path data-name="Line 23828" transform="translate(352.208 282.976)" style="stroke-miterlimit:10;stroke:#263238;fill:none" d="M3.532 4.599 0 0"/>
        <path data-name="Path 21014" d="M419.314 350.787a4.521 4.521 0 0 0-1.224-3.523c-.929-1.015-6.074-3.827-6.743-2-.771 2 4.288 6.636 7.967 5.523z" transform="translate(-66.03 -66.431)" style="stroke-miterlimit:10;stroke:#263238;fill:#007bc0"/>
        <path data-name="Line 23829" transform="translate(348.52 280.65)" style="stroke-width:.5px;stroke-miterlimit:10;stroke:#263238;fill:none" d="M4.764 3.705 0 0"/>
        <path data-name="Line 23830" transform="translate(352.208 267.269)" style="stroke-miterlimit:10;stroke:#263238;fill:none" d="M3.532 4.599 0 0"/>
        <path data-name="Path 21015" d="M419.314 332.687a4.521 4.521 0 0 0-1.224-3.523c-.929-1.015-6.074-3.827-6.743-2-.771 2 4.288 6.599 7.967 5.523z" transform="translate(-66.03 -64.038)" style="stroke-miterlimit:10;stroke:#263238;fill:#007bc0"/>
        <path data-name="Line 23831" transform="translate(348.52 264.943)" style="stroke-width:.5px;stroke-miterlimit:10;stroke:#263238;fill:none" d="M4.764 3.705 0 0"/>
        <path data-name="Line 23832" transform="translate(355.662 348.224)" style="stroke-miterlimit:10;stroke:#263238;fill:none" d="M0 4.599 3.523 0"/>
        <path data-name="Path 21016" d="M426.1 425.977a4.513 4.513 0 0 1 1.232-3.523c.92-1.015 6.074-3.827 6.742-2 .762 2-4.297 6.599-7.974 5.523z" transform="translate(-67.988 -76.374)" style="stroke-miterlimit:10;stroke:#263238;fill:#007bc0"/>
        <path data-name="Line 23833" transform="translate(358.109 345.698)" style="stroke-width:.5px;stroke-miterlimit:10;stroke:#263238;fill:none" d="M0 3.905 5.05 0"/>
        <path data-name="Line 23834" transform="translate(355.662 316.402)" style="stroke-miterlimit:10;stroke:#263238;fill:none" d="M0 4.599 3.523 0"/>
        <path data-name="Path 21017" d="M426.1 389.307a4.513 4.513 0 0 1 1.232-3.523c.92-1.015 6.074-3.827 6.742-2 .762 2-4.297 6.59-7.974 5.523z" transform="translate(-67.988 -71.525)" style="stroke-miterlimit:10;stroke:#263238;fill:#007bc0"/>
        <path data-name="Line 23835" transform="translate(358.109 313.877)" style="stroke-width:.5px;stroke-miterlimit:10;stroke:#263238;fill:none" d="M0 3.905 5.05 0"/>
        <path data-name="Line 23836" transform="translate(355.662 300.696)" style="stroke-miterlimit:10;stroke:#263238;fill:none" d="M0 4.599 3.523 0"/>
        <path data-name="Path 21018" d="M426.1 371.207a4.513 4.513 0 0 1 1.232-3.523c.92-1.015 6.074-3.827 6.742-2 .762 2-4.297 6.59-7.974 5.523z" transform="translate(-67.988 -69.131)" style="stroke-miterlimit:10;stroke:#263238;fill:#007bc0"/>
        <path data-name="Line 23837" transform="translate(358.109 298.17)" style="stroke-width:.5px;stroke-miterlimit:10;stroke:#263238;fill:none" d="M0 3.905 5.05 0"/>
        <path data-name="Line 23838" transform="translate(355.662 279.939)" style="stroke-miterlimit:10;stroke:#263238;fill:none" d="M0 4.591 3.523 0"/>
        <path data-name="Path 21019" d="M426.1 347.287a4.529 4.529 0 0 1 1.232-3.532c.92-1.015 6.074-3.818 6.743-1.987.761 1.987-4.298 6.586-7.975 5.519z" transform="translate(-67.988 -65.968)" style="stroke-miterlimit:10;stroke:#263238;fill:#007bc0"/>
        <path data-name="Line 23839" transform="translate(358.109 277.405)" style="stroke-width:.5px;stroke-miterlimit:10;stroke:#263238;fill:none" d="M0 3.914 5.05 0"/>
        <path data-name="Line 23840" transform="translate(355.662 263.616)" style="stroke-miterlimit:10;stroke:#263238;fill:none" d="M0 4.599 3.523 0"/>
        <path data-name="Path 21020" d="M426.1 328.477a4.529 4.529 0 0 1 1.232-3.532c.92-1.007 6.074-3.818 6.743-1.987.761 1.987-4.298 6.586-7.975 5.519z" transform="translate(-67.988 -63.481)" style="stroke-miterlimit:10;stroke:#263238;fill:#007bc0"/>
        <path data-name="Line 23841" transform="translate(358.109 261.091)" style="stroke-width:.5px;stroke-miterlimit:10;stroke:#263238;fill:none" d="M0 3.905 5.05 0"/>
        <path data-name="Path 21021" d="M423 320.137a4.53 4.53 0 0 1 1.232-3.532c.92-1.015 6.074-3.818 6.743-1.987.787 1.982-4.275 6.582-7.975 5.519z" transform="translate(-67.578 -62.378)" style="stroke-miterlimit:10;stroke:#263238;fill:#007bc0"/>
        <path data-name="Line 23842" transform="translate(355.445 253.845)" style="stroke-width:.5px;stroke-miterlimit:10;stroke:#263238;fill:none" d="M0 3.914 5.05 0"/>
        <path data-name="Path 21022" d="M422.5 320.014a4.529 4.529 0 0 1-3.376-1.6c-.92-1.024-3.176-6.4-1.276-6.942 2.052-.518 6.108 4.992 4.652 8.542z" transform="translate(-66.802 -62.038)" style="stroke-miterlimit:10;stroke:#263238;fill:#007bc0"/>
        <path data-name="Line 23843" transform="translate(352.338 252.543)" style="stroke-width:.5px;stroke-miterlimit:10;stroke:#263238;fill:none" d="M3.358 5.432 0 0"/>
        <path data-name="Path 21023" d="M426.387 469.51h-11.281l-1.406-28.48h14.093z" transform="translate(-66.351 -79.174)" style="fill:#263238;stroke-miterlimit:10;stroke:#263238"/>
        <g>
            <path data-name="Line 23844" transform="translate(325.914 391.334)" style="stroke-linejoin:round;stroke-linecap:round;stroke:#263238;fill:#fff" d="M0 0h89.381"/>
            <path data-name="Line 23845" transform="translate(76.864 391.334)" style="stroke-linejoin:round;stroke-linecap:round;stroke:#263238;fill:#fff" d="M0 0h242.108"/>
            <path data-name="Line 23846" style="stroke-linejoin:round;stroke-linecap:round;stroke:#263238;fill:#fff" d="M0 0h66.818" transform="translate(.5 391.334)"/>
        </g>
        <g>
            <path data-name="Path 21024" d="m161.817 465.541-6.092-62.211-4.755 1.041 8.6 61.169z" transform="translate(-31.611 -74.19)" style="stroke:gray;fill:gray;stroke-linejoin:round;stroke-linecap:round"/>
            <path data-name="Path 21025" d="m82.069 465.541 8.6-61.169-4.747-1.041-6.092 62.21z" transform="translate(-22.204 -74.19)" style="stroke:gray;fill:gray;stroke-linejoin:round;stroke-linecap:round"/>
            <path data-name="Path 21026" d="m87.993 399.7-3.055-72.754a7.619 7.619 0 0 1 7.62-7.946h50.973a7.628 7.628 0 0 1 7.6 8.218l-5.648 72.482z" transform="translate(-22.879 -63.039)" style="stroke:gray;fill:gray;stroke-linejoin:round;stroke-linecap:round"/>
            <path data-name="Rectangle 5432" transform="translate(59.795 320.705)" style="stroke:gray;fill:gray;stroke-linejoin:round;stroke-linecap:round" d="M0 0h67.643v15.941H0z"/>
            <path data-name="Path 21027" d="M87.134 406.774h-5.12l-3.584-29.955a4.339 4.339 0 0 1 4.339-4.339h0a4.339 4.339 0 0 1 4.339 4.339z" transform="translate(-22.019 -70.111)" style="stroke:gray;fill:gray;stroke-linejoin:round;stroke-linecap:round"/>
            <path data-name="Path 21028" d="M154.71 406.774h5.12l3.593-29.956a4.339 4.339 0 0 0-4.339-4.339h0a4.339 4.339 0 0 0-4.339 4.339z" transform="translate(-32.106 -70.111)" style="stroke:gray;fill:gray;stroke-linejoin:round;stroke-linecap:round"/>
            <path data-name="Path 21029" d="M47.249 320.42h43.033a2.169 2.169 0 0 1 2.169 2.169v25.964H45.08v-25.964a2.169 2.169 0 0 1 2.169-2.169z" transform="translate(-17.609 -63.227)" style="stroke:gray;stroke-linejoin:round;stroke-linecap:round;fill:#fff"/>
            <path data-name="Path 21030" d="m218.411 460.068-5.623-98.128h-4.808l8.244 98.128z" transform="translate(-39.149 -68.717)" style="stroke:gray;fill:gray;stroke-linejoin:round;stroke-linecap:round"/>
            <path data-name="Path 21031" d="m238.789 460.068-5.623-98.128h-4.816l8.244 98.128z" transform="translate(-41.843 -68.717)" style="stroke:gray;fill:gray;stroke-linejoin:round;stroke-linecap:round"/>
            <path data-name="Path 21032" d="m60.289 460.068 7.02-98.128h-4.8l-4.389 98.128z" transform="translate(-19.334 -68.717)" style="stroke:gray;fill:gray;stroke-linejoin:round;stroke-linecap:round"/>
            <path data-name="Path 21033" d="m37.5 460.068 7.012-98.128h-4.79l-4.392 98.128z" transform="translate(-16.32 -68.717)" style="stroke:gray;fill:gray;stroke-linejoin:round;stroke-linecap:round"/>
            <path data-name="Rectangle 5433" transform="translate(20.268 287.687)" style="stroke:gray;stroke-linejoin:round;stroke-linecap:round;fill:#fff" d="M0 0h177.216v8.582H0z"/>
            <path data-name="Rectangle 5434" transform="translate(20.268 287.687)" style="stroke:gray;fill:gray;stroke-linejoin:round;stroke-linecap:round" d="M0 0h177.216v2.942H0z"/>
            <path data-name="Rectangle 5435" transform="translate(17.604 284.823)" style="stroke:gray;stroke-linejoin:round;stroke-linecap:round;fill:#fff" d="M0 0h182.544v3.271H0z"/>
        </g>
        <g>
            <path data-name="Rectangle 5436" transform="translate(46.492 12.985)" style="opacity:.15" d="M0 0h301.985v236.034H0z"/>
            <path data-name="Rectangle 5437" transform="translate(56.28 3.752)" style="fill:#007bc0" d="M0 0h302.896v236.589H0z"/>
            <path data-name="Rectangle 5438" transform="translate(56.28 3.752)" style="stroke-linejoin:round;stroke-linecap:round;stroke:#263238;fill:#fff" d="M0 0h302.896v236.589H0z"/>
            <path data-name="Rectangle 5439" transform="translate(63.57 49.379)" style="fill:#fff" d="M0 0h282.33v128.508H0z"/>
            <path data-name="Line 23847" transform="translate(72.516 159.404)" style="stroke:#8c8c8c;stroke-width:.5px;stroke-miterlimit:10;fill:none" d="M0 0h263.004"/>
            <path data-name="Line 23848" transform="translate(72.516 156.827)" style="stroke:#8c8c8c;stroke-width:.5px;stroke-miterlimit:10;fill:none" d="M0 2.577V0"/>
            <path data-name="Line 23849" transform="translate(86.357 156.827)" style="stroke:#8c8c8c;stroke-width:.5px;stroke-miterlimit:10;fill:none" d="M0 2.577V0"/>
            <path data-name="Line 23850" transform="translate(100.198 156.827)" style="stroke:#8c8c8c;stroke-width:.5px;stroke-miterlimit:10;fill:none" d="M0 2.577V0"/>
            <path data-name="Line 23851" transform="translate(114.039 156.827)" style="stroke:#8c8c8c;stroke-width:.5px;stroke-miterlimit:10;fill:none" d="M0 2.577V0"/>
            <path data-name="Line 23852" transform="translate(127.88 156.827)" style="stroke:#8c8c8c;stroke-width:.5px;stroke-miterlimit:10;fill:none" d="M0 2.577V0"/>
            <path data-name="Line 23853" transform="translate(141.721 156.827)" style="stroke:#8c8c8c;stroke-width:.5px;stroke-miterlimit:10;fill:none" d="M0 2.577V0"/>
            <path data-name="Line 23854" transform="translate(155.571 156.827)" style="stroke:#8c8c8c;stroke-width:.5px;stroke-miterlimit:10;fill:none" d="M0 2.577V0"/>
            <path data-name="Line 23855" transform="translate(169.412 156.827)" style="stroke:#8c8c8c;stroke-width:.5px;stroke-miterlimit:10;fill:none" d="M0 2.577V0"/>
            <path data-name="Line 23856" transform="translate(183.253 156.827)" style="stroke:#8c8c8c;stroke-width:.5px;stroke-miterlimit:10;fill:none" d="M0 2.577V0"/>
            <path data-name="Line 23857" transform="translate(197.094 156.827)" style="stroke:#8c8c8c;stroke-width:.5px;stroke-miterlimit:10;fill:none" d="M0 2.577V0"/>
            <path data-name="Line 23858" transform="translate(210.935 156.827)" style="stroke:#8c8c8c;stroke-width:.5px;stroke-miterlimit:10;fill:none" d="M0 2.577V0"/>
            <path data-name="Line 23859" transform="translate(224.776 156.827)" style="stroke:#8c8c8c;stroke-width:.5px;stroke-miterlimit:10;fill:none" d="M0 2.577V0"/>
            <path data-name="Line 23860" transform="translate(238.625 156.827)" style="stroke:#8c8c8c;stroke-width:.5px;stroke-miterlimit:10;fill:none" d="M0 2.577V0"/>
            <path data-name="Line 23861" transform="translate(252.466 156.827)" style="stroke:#8c8c8c;stroke-width:.5px;stroke-miterlimit:10;fill:none" d="M0 2.577V0"/>
            <path data-name="Line 23862" transform="translate(266.307 156.827)" style="stroke:#8c8c8c;stroke-width:.5px;stroke-miterlimit:10;fill:none" d="M0 2.577V0"/>
            <path data-name="Line 23863" transform="translate(280.148 156.827)" style="stroke:#8c8c8c;stroke-width:.5px;stroke-miterlimit:10;fill:none" d="M0 2.577V0"/>
            <path data-name="Line 23864" transform="translate(293.989 156.827)" style="stroke:#8c8c8c;stroke-width:.5px;stroke-miterlimit:10;fill:none" d="M0 2.577V0"/>
            <path data-name="Line 23865" transform="translate(307.83 156.827)" style="stroke:#8c8c8c;stroke-width:.5px;stroke-miterlimit:10;fill:none" d="M0 2.577V0"/>
            <path data-name="Line 23866" transform="translate(321.671 156.827)" style="stroke:#8c8c8c;stroke-width:.5px;stroke-miterlimit:10;fill:none" d="M0 2.577V0"/>
            <path data-name="Line 23867" transform="translate(335.521 156.827)" style="stroke:#8c8c8c;stroke-width:.5px;stroke-miterlimit:10;fill:none" d="M0 2.577V0"/>
            <path data-name="Line 23868" transform="translate(72.516 56.244)" style="stroke:#8c8c8c;stroke-width:.5px;stroke-miterlimit:10;fill:none" d="M0 103.161V0"/>
            <path data-name="Line 23869" transform="translate(72.516 159.404)" style="stroke:#8c8c8c;stroke-width:.5px;stroke-miterlimit:10;fill:none" d="M0 0h6.569"/>
            <path data-name="Line 23870" transform="translate(65.253 138.777)" style="stroke:#8c8c8c;stroke-width:.5px;stroke-miterlimit:10;fill:none" d="M7.263 0H0"/>
            <path data-name="Line 23871" transform="translate(65.253 118.142)" style="stroke:#8c8c8c;stroke-width:.5px;stroke-miterlimit:10;fill:none" d="M7.263 0H0"/>
            <path data-name="Line 23872" transform="translate(65.253 97.506)" style="stroke:#8c8c8c;stroke-width:.5px;stroke-miterlimit:10;fill:none" d="M7.263 0H0"/>
            <path data-name="Line 23873" transform="translate(65.253 76.879)" style="stroke:#8c8c8c;stroke-width:.5px;stroke-miterlimit:10;fill:none" d="M7.263 0H0"/>
            <path data-name="Line 23874" transform="translate(65.253 56.244)" style="stroke:#8c8c8c;stroke-width:.5px;stroke-miterlimit:10;fill:none" d="M7.263 0H0"/>
            <path data-name="Line 23875" transform="translate(314.755 61.251)" style="stroke-width:2px;stroke:#007bc0;stroke-linecap:round;stroke-miterlimit:10;fill:none" d="M0 15.629 13.841 0"/>
            <path data-name="Line 23876" transform="translate(300.914 76.879)" style="stroke-width:2px;stroke:#007bc0;stroke-linecap:round;stroke-miterlimit:10;fill:none" d="M0 35.075 13.841 0"/>
            <path data-name="Line 23877" transform="translate(287.073 97.506)" style="stroke-width:2px;stroke:#007bc0;stroke-linecap:round;stroke-miterlimit:10;fill:none" d="m0 0 13.841 14.448"/>
            <path data-name="Line 23878" transform="translate(273.223 97.506)" style="stroke-width:2px;stroke:#007bc0;stroke-linecap:round;stroke-miterlimit:10;fill:none" d="M0 37.141 13.85 0"/>
            <path data-name="Line 23879" transform="translate(259.382 76.879)" style="stroke-width:2px;stroke:#007bc0;stroke-linecap:round;stroke-miterlimit:10;fill:none" d="m0 0 13.841 57.768"/>
            <path data-name="Line 23880" transform="translate(245.541 56.244)" style="stroke-width:2px;stroke:#007bc0;stroke-linecap:round;stroke-miterlimit:10;fill:none" d="m0 0 13.841 20.636"/>
            <path data-name="Line 23881" transform="translate(231.701 56.244)" style="stroke-width:2px;stroke:#007bc0;stroke-linecap:round;stroke-miterlimit:10;fill:none" d="M0 92.852 13.841 0"/>
            <path data-name="Line 23882" transform="translate(217.86 142.899)" style="stroke-width:2px;stroke:#007bc0;stroke-linecap:round;stroke-miterlimit:10;fill:none" d="m0 0 13.841 6.196"/>
            <path data-name="Line 23883" transform="translate(204.019 140.834)" style="stroke-width:2px;stroke:#007bc0;stroke-linecap:round;stroke-miterlimit:10;fill:none" d="m0 0 13.841 2.065"/>
            <path data-name="Line 23884" transform="translate(190.169 99.936)" style="stroke-width:2px;stroke:#007bc0;stroke-linecap:round;stroke-miterlimit:10;fill:none" d="m0 0 13.85 40.898"/>
            <path data-name="Line 23885" transform="translate(176.328 91.683)" style="stroke-width:2px;stroke:#007bc0;stroke-linecap:round;stroke-miterlimit:10;fill:none" d="m0 0 13.841 8.253"/>
            <path data-name="Line 23886" transform="translate(162.487 91.683)" style="stroke-width:2px;stroke:#007bc0;stroke-linecap:round;stroke-miterlimit:10;fill:none" d="M0 38.841 13.841 0"/>
            <path data-name="Line 23887" transform="translate(148.646 130.525)" style="stroke-width:2px;stroke:#007bc0;stroke-linecap:round;stroke-miterlimit:10;fill:none" d="M0 8.253 13.841 0"/>
            <path data-name="Line 23888" transform="translate(134.805 95.449)" style="stroke-width:2px;stroke:#007bc0;stroke-linecap:round;stroke-miterlimit:10;fill:none" d="m0 0 13.841 43.328"/>
            <path data-name="Line 23889" transform="translate(120.964 89.254)" style="stroke-width:2px;stroke:#007bc0;stroke-linecap:round;stroke-miterlimit:10;fill:none" d="m0 0 13.841 6.196"/>
            <path data-name="Line 23890" transform="translate(107.123 81.001)" style="stroke-width:2px;stroke:#007bc0;stroke-linecap:round;stroke-miterlimit:10;fill:none" d="m0 0 13.841 8.253"/>
            <path data-name="Line 23891" transform="translate(93.274 81.001)" style="stroke-width:2px;stroke:#007bc0;stroke-linecap:round;stroke-miterlimit:10;fill:none" d="M0 8.253 13.85 0"/>
            <path data-name="Line 23892" transform="translate(79.433 89.254)" style="stroke-width:2px;stroke:#007bc0;stroke-linecap:round;stroke-miterlimit:10;fill:none" d="M0 8.253 13.841 0"/>
            <path data-name="Path 21034" d="M391.717 91.8h0a2.447 2.447 0 0 0-2.447 2.447h0a2.447 2.447 0 0 0 2.447 2.447h0a2.447 2.447 0 0 0 2.447-2.447h0a2.447 2.447 0 0 0-2.447-2.447z" transform="translate(-63.121 -32.997)" style="stroke:#007bc0;stroke-linejoin:round;stroke-linecap:round;fill:#fff"/>
            <path data-name="Path 21035" d="M375.767 109.81h0a2.447 2.447 0 0 0-2.447 2.447h0a2.447 2.447 0 0 0 2.447 2.447h0a2.447 2.447 0 0 0 2.447-2.447h0a2.447 2.447 0 0 0-2.447-2.447z" transform="translate(-61.012 -35.378)" style="stroke:#007bc0;stroke-linejoin:round;stroke-linecap:round;fill:#fff"/>
            <path data-name="Path 21036" d="M359.817 150.23h0a2.447 2.447 0 0 0-2.447 2.447h0a2.447 2.447 0 0 0 2.447 2.447h0a2.456 2.456 0 0 0 2.447-2.447h0a2.447 2.447 0 0 0-2.447-2.447z" transform="translate(-58.903 -40.723)" style="stroke:#007bc0;stroke-linejoin:round;stroke-linecap:round;fill:#fff"/>
            <path data-name="Path 21037" d="M343.867 133.58h0a2.447 2.447 0 0 0-2.447 2.447h0a2.447 2.447 0 0 0 2.447 2.447h0a2.438 2.438 0 0 0 2.438-2.447h0a2.447 2.447 0 0 0-2.438-2.447z" transform="translate(-56.794 -38.521)" style="stroke:#007bc0;stroke-linejoin:round;stroke-linecap:round;fill:#fff"/>
            <path data-name="Path 21038" d="M327.907 176.38h0a2.447 2.447 0 0 0-2.447 2.447h0a2.447 2.447 0 0 0 2.447 2.447h0a2.447 2.447 0 0 0 2.447-2.447h0a2.447 2.447 0 0 0-2.447-2.447z" transform="translate(-54.684 -44.18)" style="stroke:#007bc0;stroke-linejoin:round;stroke-linecap:round;fill:#fff"/>
            <path data-name="Path 21039" d="M311.957 109.81h0a2.447 2.447 0 0 0-2.447 2.447h0a2.456 2.456 0 0 0 2.447 2.447h0a2.447 2.447 0 0 0 2.447-2.447h0a2.447 2.447 0 0 0-2.447-2.447z" transform="translate(-52.575 -35.378)" style="stroke:#007bc0;stroke-linejoin:round;stroke-linecap:round;fill:#fff"/>
            <path data-name="Path 21040" d="M296.007 86h0a2.447 2.447 0 0 0-2.447 2.447h0a2.447 2.447 0 0 0 2.447 2.447h0a2.447 2.447 0 0 0 2.447-2.447h0A2.447 2.447 0 0 0 296.007 86z" transform="translate(-50.466 -32.23)" style="stroke:#007bc0;stroke-linejoin:round;stroke-linecap:round;fill:#263238"/>
            <path data-name="Path 21041" d="M280.057 193h0a2.447 2.447 0 0 0-2.447 2.447h0a2.438 2.438 0 0 0 2.447 2.438h0a2.438 2.438 0 0 0 2.447-2.438h0a2.447 2.447 0 0 0-2.447-2.447z" transform="translate(-48.357 -46.378)" style="stroke:#007bc0;stroke-linejoin:round;stroke-linecap:round;fill:#fff"/>
            <path data-name="Path 21042" d="M264.107 185.89h0a2.447 2.447 0 0 0-2.447 2.447h0a2.447 2.447 0 0 0 2.447 2.447h0a2.447 2.447 0 0 0 2.447-2.447h0a2.456 2.456 0 0 0-2.447-2.447z" transform="translate(-46.248 -45.438)" style="stroke:#007bc0;stroke-linejoin:round;stroke-linecap:round;fill:#fff"/>
            <path data-name="Path 21043" d="M248.157 183.52h0a2.438 2.438 0 0 0-2.447 2.438h0a2.447 2.447 0 0 0 2.447 2.447h0a2.447 2.447 0 0 0 2.447-2.447h0a2.447 2.447 0 0 0-2.447-2.438z" transform="translate(-44.138 -45.125)" style="stroke:#007bc0;stroke-linejoin:round;stroke-linecap:round;fill:#fff"/>
            <path data-name="Path 21044" d="M232.2 136.38h0a2.438 2.438 0 0 0-2.438 2.447h0a2.438 2.438 0 0 0 2.438 2.447h0a2.447 2.447 0 0 0 2.447-2.447h0a2.447 2.447 0 0 0-2.447-2.447z" transform="translate(-42.029 -38.891)" style="stroke:#007bc0;stroke-linejoin:round;stroke-linecap:round;fill:#fff"/>
            <path data-name="Path 21045" d="M216.247 126.87h0a2.447 2.447 0 0 0-2.447 2.447h0a2.447 2.447 0 0 0 2.447 2.447h0a2.447 2.447 0 0 0 2.447-2.447h0a2.447 2.447 0 0 0-2.447-2.447z" transform="translate(-39.919 -37.634)" style="stroke:#007bc0;stroke-linejoin:round;stroke-linecap:round;fill:#fff"/>
            <path data-name="Path 21046" d="M200.3 171.63h0a2.447 2.447 0 0 0-2.447 2.447h0a2.447 2.447 0 0 0 2.447 2.447h0a2.447 2.447 0 0 0 2.447-2.447h0a2.447 2.447 0 0 0-2.447-2.447z" transform="translate(-37.81 -43.552)" style="stroke:#007bc0;stroke-linejoin:round;stroke-linecap:round;fill:#fff"/>
            <path data-name="Path 21047" d="M184.347 181.14h0a2.447 2.447 0 0 0-2.447 2.482h0a2.447 2.447 0 0 0 2.447 2.447h0a2.447 2.447 0 0 0 2.447-2.447h0a2.447 2.447 0 0 0-2.447-2.482z" transform="translate(-35.701 -44.81)" style="stroke:#007bc0;stroke-linejoin:round;stroke-linecap:round;fill:#fff"/>
            <path data-name="Path 21048" d="M168.4 131.21h0a2.447 2.447 0 0 0-2.4 2.421h0a2.447 2.447 0 0 0 2.447 2.447h0a2.447 2.447 0 0 0 2.447-2.447h0a2.447 2.447 0 0 0-2.491-2.421z" transform="translate(-33.599 -38.208)" style="stroke:#007bc0;stroke-linejoin:round;stroke-linecap:round;fill:#fff"/>
            <path data-name="Path 21049" d="M152.447 124.07h0a2.447 2.447 0 0 0-2.447 2.447h0a2.447 2.447 0 0 0 2.447 2.447h0a2.447 2.447 0 0 0 2.447-2.447h0a2.456 2.456 0 0 0-2.447-2.447z" transform="translate(-31.483 -37.264)" style="stroke:#007bc0;stroke-linejoin:round;stroke-linecap:round;fill:#fff"/>
            <path data-name="Path 21050" d="M136.5 114.56h0a2.447 2.447 0 0 0-2.447 2.447h0a2.447 2.447 0 0 0 2.447 2.447h0a2.438 2.438 0 0 0 2.438-2.447h0a2.447 2.447 0 0 0-2.438-2.447z" transform="translate(-29.374 -36.006)" style="stroke:#007bc0;stroke-linejoin:round;stroke-linecap:round;fill:#fff"/>
            <path data-name="Path 21051" d="M120.537 124.07h0a2.456 2.456 0 0 0-2.447 2.447h0a2.447 2.447 0 0 0 2.447 2.447h0a2.447 2.447 0 0 0 2.447-2.447h0a2.447 2.447 0 0 0-2.447-2.447z" transform="translate(-27.264 -37.264)" style="stroke:#007bc0;stroke-linejoin:round;stroke-linecap:round;fill:#fff"/>
            <path data-name="Path 21052" d="M104.627 133.58h0a2.456 2.456 0 0 0-2.447 2.447h0a2.447 2.447 0 0 0 2.447 2.447h0a2.447 2.447 0 0 0 2.447-2.447h0a2.447 2.447 0 0 0-2.447-2.447z" transform="translate(-25.16 -38.521)" style="stroke:#007bc0;stroke-linejoin:round;stroke-linecap:round;fill:#fff"/>
            <path data-name="Rectangle 5440" transform="translate(351.349 3.752)" style="fill:#dbdbdb;stroke-miterlimit:10;stroke:#263238" d="M0 0h7.827v236.589H0z"/>
            <path data-name="Rectangle 5441" transform="translate(351.349 77.053)" style="fill:#878787" d="M0 0h7.827v63.929H0z"/>
            <path data-name="Rectangle 5442" transform="translate(56.28 3.752)" style="stroke-linejoin:round;stroke-linecap:round;stroke:#263238;fill:#007bc0" d="M0 0h302.896v15.368H0z"/>
            <path data-name="Path 21053" d="M78.28 51.45h76.043a1.736 1.736 0 0 1 1.736 1.736v8.834a1.736 1.736 0 0 1-1.736 1.736H78.28z" transform="translate(-22 -27.661)" style="fill:#263238"/>
            <path data-name="Path 21054" d="m91.938 58.818.807-5.328h1.631V61h-1.11v-5.38L92.45 61h-1.111l-.868-5.3V61H89.43v-7.51h1.64z" transform="translate(-23.474 -27.931)" style="fill:#007bc0"/>
            <path data-name="Path 21055" d="M99.892 61H98.7l-.2-1.362h-1.446L96.837 61H95.77l1.2-7.506h1.73zM97.2 58.619h1.137l-.562-3.819z" transform="translate(-24.312 -27.931)" style="fill:#007bc0"/>
            <path data-name="Path 21056" d="M103.624 61a2.4 2.4 0 0 1-.1-.92V58.9c0-.694-.234-.955-.772-.955h-.408V61h-1.18v-7.51h1.736c1.224 0 1.736.573 1.736 1.736v.59a1.519 1.519 0 0 1-.772 1.527c.59.243.781.807.781 1.6v1.154a2.152 2.152 0 0 0 .13.868zm-1.284-6.43v2.3h.417c.443 0 .712-.191.712-.79v-.738c0-.538-.182-.772-.6-.772z" transform="translate(-25.025 -27.931)" style="fill:#007bc0"/>
            <path data-name="Path 21057" d="M109.531 58.189v.989c0 1.206-.6 1.892-1.736 1.892s-1.736-.686-1.736-1.892v-3.9c0-1.2.6-1.883 1.736-1.883a1.64 1.64 0 0 1 1.736 1.883v.729h-1.111V55.2c0-.529-.243-.738-.616-.738s-.607.208-.607.738v4.052c0 .538.234.729.607.729s.616-.191.616-.729v-1.063z" transform="translate(-25.673 -27.918)" style="fill:#007bc0"/>
            <path data-name="Path 21058" d="M112.07 61h-1.18v-7.51h1.18v3.219h1.336V53.49h1.2V61h-1.2v-3.223h-1.336z" transform="translate(-26.311 -27.931)" style="fill:#007bc0"/>
            <path data-name="Rectangle 5443" transform="translate(76.205 6.373)" style="fill:#fff" d="M0 0h194.737v8.669H0z"/>
            <path data-name="Rectangle 5444" transform="translate(72.664 162.242)" style="fill:#a1a1a1" d="M0 0h13.173v6.057H0z"/>
            <path data-name="Rectangle 5445" transform="translate(86.522 162.242)" style="fill:#595959" d="M0 0h13.173v6.057H0z"/>
            <path data-name="Rectangle 5446" transform="translate(100.381 162.242)" style="fill:#a1a1a1" d="M0 0h13.173v6.057H0z"/>
            <path data-name="Rectangle 5447" transform="translate(114.239 162.242)" style="fill:#595959" d="M0 0h13.173v6.057H0z"/>
            <path data-name="Rectangle 5448" transform="translate(128.106 162.242)" style="fill:#a1a1a1" d="M0 0h13.173v6.057H0z"/>
            <path data-name="Rectangle 5449" transform="translate(141.964 162.242)" style="fill:#595959" d="M0 0h13.173v6.057H0z"/>
            <path data-name="Rectangle 5450" transform="translate(155.823 162.242)" style="fill:#a1a1a1" d="M0 0h13.173v6.057H0z"/>
            <path data-name="Rectangle 5451" transform="translate(169.681 162.242)" style="fill:#595959" d="M0 0h13.173v6.057H0z"/>
            <path data-name="Rectangle 5452" transform="translate(183.539 162.242)" style="fill:#a1a1a1" d="M0 0h13.173v6.057H0z"/>
            <path data-name="Rectangle 5453" transform="translate(197.398 162.242)" style="fill:#595959" d="M0 0h13.173v6.057H0z"/>
            <path data-name="Rectangle 5454" transform="translate(211.256 162.242)" style="fill:#a1a1a1" d="M0 0h13.173v6.057H0z"/>
            <path data-name="Rectangle 5455" transform="translate(225.114 162.242)" style="fill:#595959" d="M0 0h13.173v6.057H0z"/>
            <path data-name="Rectangle 5456" transform="translate(238.972 162.242)" style="fill:#a1a1a1" d="M0 0h13.173v6.057H0z"/>
            <path data-name="Rectangle 5457" transform="translate(252.839 162.242)" style="fill:#595959" d="M0 0h13.173v6.057H0z"/>
            <path data-name="Rectangle 5458" transform="translate(266.698 162.242)" style="fill:#a1a1a1" d="M0 0h13.173v6.057H0z"/>
            <path data-name="Rectangle 5459" transform="translate(280.556 162.242)" style="fill:#595959" d="M0 0h13.173v6.057H0z"/>
            <path data-name="Rectangle 5460" transform="translate(294.414 162.242)" style="fill:#a1a1a1" d="M0 0h13.173v6.057H0z"/>
            <path data-name="Rectangle 5461" transform="translate(308.273 162.242)" style="fill:#595959" d="M0 0h13.173v6.057H0z"/>
            <path data-name="Rectangle 5462" transform="translate(322.131 162.242)" style="fill:#a1a1a1" d="M0 0h13.173v6.057H0z"/>
            <path data-name="Rectangle 5463" transform="translate(64.099 41.023)" style="fill:#a1a1a1" d="M0 0h22.441v6.057H0z"/>
            <path data-name="Rectangle 5464" transform="translate(87.702 41.023)" style="fill:#595959" d="M0 0h22.441v6.057H0z"/>
            <path data-name="Rectangle 5465" transform="translate(111.306 41.023)" style="fill:#a1a1a1" d="M0 0h22.441v6.057H0z"/>
            <path data-name="Rectangle 5466" transform="translate(134.918 41.023)" style="fill:#595959" d="M0 0h22.441v6.057H0z"/>
            <path data-name="Rectangle 5467" transform="translate(158.521 41.023)" style="fill:#a1a1a1" d="M0 0h22.441v6.057H0z"/>
            <path data-name="Rectangle 5468" transform="translate(182.133 41.023)" style="fill:#595959" d="M0 0h22.441v6.057H0z"/>
            <path data-name="Rectangle 5469" transform="translate(205.737 41.023)" style="fill:#a1a1a1" d="M0 0h22.441v6.057H0z"/>
            <path data-name="Rectangle 5470" transform="translate(229.34 41.023)" style="fill:#595959" d="M0 0h22.441v6.057H0z"/>
            <path data-name="Rectangle 5471" transform="translate(252.952 41.023)" style="fill:#a1a1a1" d="M0 0h22.441v6.057H0z"/>
            <path data-name="Rectangle 5472" transform="translate(276.556 41.023)" style="fill:#595959" d="M0 0h22.441v6.057H0z"/>
            <path data-name="Rectangle 5473" transform="translate(300.159 41.023)" style="fill:#a1a1a1" d="M0 0h22.441v6.057H0z"/>
            <path data-name="Rectangle 5474" transform="translate(323.771 41.023)" style="fill:#595959" d="M0 0h22.441v6.057H0z"/>
            <path data-name="Path 21059" d="M236.832 88.88h46.226l-10.613 5.311v10.83a2.881 2.881 0 0 1-2.872 2.881h-32.741a2.881 2.881 0 0 1-2.872-2.881V91.752a2.872 2.872 0 0 1 2.872-2.872z" transform="translate(-42.585 -32.61)" style="fill:#263238"/>
            <path data-name="Path 21060" d="M248.148 95.6c0-1.1-.382-1.4-1-1.4s-1 .33-1 1.206v.79h-1.818v-.668c0-1.961.981-3.081 2.872-3.081s2.916 1.119 2.916 3.081v.321a2.378 2.378 0 0 1-1.345 2.517 2.526 2.526 0 0 1 1.345 2.6v.963c0 1.961-.981 3.089-2.872 3.089s-2.872-1.128-2.872-3.089v-1.015h1.826v1.137c0 .868.382 1.215 1 1.215s1-.3 1-1.388v-.963c0-1.137-.382-1.562-1.258-1.562h-.651v-1.731h.755c.72 0 1.154-.312 1.154-1.293z" transform="translate(-43.956 -33.083)" style="fill:#007bc0"/>
            <path data-name="Path 21061" d="M252.259 95.531c0-1.961 1.041-3.081 2.933-3.081s2.916 1.119 2.916 3.081v6.378c0 1.961-1.033 3.089-2.924 3.089s-2.933-1.128-2.933-3.089zm1.935 6.5c0 .868.382 1.215 1 1.215s1-.338 1-1.215v-6.622c0-.868-.39-1.206-1-1.206s-1 .33-1 1.206z" transform="translate(-45.003 -33.083)" style="fill:#007bc0"/>
            <path data-name="Path 21062" d="m262.965 99.986-.6 1.119v3.775h-1.925V92.61h1.926v5.345l2.525-5.345h1.926l-2.681 5.467 2.681 6.8h-1.977z" transform="translate(-46.086 -33.104)" style="fill:#007bc0"/>
            <path data-name="Path 21063" d="M124.742 259.215v1.024c0 .781.338 1.067.868 1.067s.868-.286.868-1.067v-2.421c0-.79-.347-1.085-.868-1.085s-.868.3-.868 1.085v.33H123.1l.321-6.378h4.556v1.571h-3l-.139 2.6a1.649 1.649 0 0 1 1.5-.8c1.276 0 1.918.868 1.918 2.517v2.447c0 1.736-.868 2.768-2.6 2.768s-2.6-1.007-2.6-2.768v-.868z" transform="translate(-27.919 -54.149)" style="fill:#263238"/>
            <path data-name="Path 21064" d="M130.16 254.39a2.608 2.608 0 1 1 5.207 0v5.719a2.608 2.608 0 1 1-5.207 0zm1.736 5.831c0 .781.347 1.085.868 1.085s.868-.3.868-1.085v-5.936c0-.79-.347-1.085-.868-1.085s-.868.3-.868 1.085z" transform="translate(-28.86 -54.131)" style="fill:#263238"/>
            <path data-name="Path 21065" d="M137.33 254.39a2.608 2.608 0 1 1 5.207 0v5.719a2.608 2.608 0 1 1-5.207 0zm1.736 5.831c0 .781.347 1.085.868 1.085s.868-.3.868-1.085v-5.936c0-.79-.347-1.085-.868-1.085s-.868.3-.868 1.085z" transform="translate(-29.808 -54.131)" style="fill:#263238"/>
            <path data-name="Path 21066" d="m146.925 258.382-.529 1.007v3.376h-1.736V251.77h1.74v4.79l2.265-4.79h1.735l-2.4 4.9 2.4 6.074h-1.74z" transform="translate(-30.777 -54.149)" style="fill:#263238"/>
            <path data-name="Line 23893" transform="translate(94.584 216.304)" style="stroke-miterlimit:10;stroke:#263238;fill:none" d="M0 0h25.191"/>
            <path data-name="Path 21067" d="M233.743 259.215v1.024c0 .781.347 1.067.868 1.067s.868-.286.868-1.067v-2.421c0-.79-.347-1.085-.868-1.085s-.868.3-.868 1.085v.33h-1.631l.312-6.378h4.556v1.571h-3l-.139 2.6a1.657 1.657 0 0 1 1.51-.8c1.267 0 1.918.868 1.918 2.517v2.447c0 1.736-.868 2.768-2.6 2.768s-2.6-1.007-2.6-2.768v-.868z" transform="translate(-42.334 -54.149)" style="fill:#263238"/>
            <path data-name="Path 21068" d="M239.17 254.39a2.608 2.608 0 1 1 5.207 0v5.719a2.445 2.445 0 0 1-2.6 2.768c-1.683 0-2.6-1.007-2.6-2.768zm1.736 5.831c0 .781.347 1.085.868 1.085s.868-.3.868-1.085v-5.936c0-.79-.347-1.085-.868-1.085s-.868.3-.868 1.085z" transform="translate(-43.274 -54.131)" style="fill:#263238"/>
            <path data-name="Path 21069" d="M246.34 254.39a2.608 2.608 0 1 1 5.207 0v5.719a2.445 2.445 0 0 1-2.6 2.768c-1.683 0-2.6-1.007-2.6-2.768zm1.736 5.831c0 .781.347 1.085.868 1.085s.868-.3.868-1.085v-5.936c0-.79-.347-1.085-.868-1.085s-.868.3-.868 1.085z" transform="translate(-44.222 -54.131)" style="fill:#263238"/>
            <path data-name="Path 21070" d="m255.934 258.382-.538 1.007v3.376h-1.736V251.77h1.74v4.79l2.265-4.79h1.735l-2.4 4.9 2.4 6.074h-1.74z" transform="translate(-45.19 -54.149)" style="fill:#263238"/>
            <path data-name="Line 23894" transform="translate(189.171 216.304)" style="stroke-miterlimit:10;stroke:#263238;fill:none" d="M0 0h25.2"/>
            <path data-name="Path 21071" d="M352.047 259.215v1.024c0 .781.347 1.067.868 1.067s.868-.286.868-1.067v-2.421c0-.79-.347-1.085-.868-1.085s-.868.3-.868 1.085v.33h-1.64l.321-6.378h4.521v1.571h-3l-.139 2.6a1.649 1.649 0 0 1 1.5-.8c1.276 0 1.918.868 1.918 2.517v2.447c0 1.736-.868 2.768-2.6 2.768s-2.6-1.007-2.6-2.768v-.868z" transform="translate(-57.971 -54.149)" style="fill:#263238"/>
            <path data-name="Path 21072" d="M357.52 254.39a2.608 2.608 0 1 1 5.207 0v5.719a2.608 2.608 0 1 1-5.207 0zm1.736 5.831c0 .781.347 1.085.868 1.085s.868-.3.868-1.085v-5.936c0-.79-.347-1.085-.868-1.085s-.868.3-.868 1.085z" transform="translate(-58.923 -54.131)" style="fill:#263238"/>
            <path data-name="Path 21073" d="M364.7 254.39a2.438 2.438 0 0 1 2.6-2.76c1.683 0 2.6 1 2.6 2.76v5.719a2.608 2.608 0 1 1-5.207 0zm1.736 5.831c0 .781.338 1.085.868 1.085s.868-.3.868-1.085v-5.936c0-.79-.347-1.085-.868-1.085s-.868.3-.868 1.085z" transform="translate(-59.872 -54.131)" style="fill:#263238"/>
            <path data-name="Path 21074" d="m374.285 258.382-.529 1.007v3.376h-1.736V251.77h1.736v4.79l2.265-4.79h1.736l-2.4 4.9 2.4 6.074h-1.779z" transform="translate(-60.84 -54.149)" style="fill:#263238"/>
            <path data-name="Line 23895" transform="translate(291.881 216.304)" style="stroke-miterlimit:10;stroke:#263238;fill:none" d="M0 0h25.2"/>
            <path data-name="Line 23896" transform="translate(155.883 188.266)" style="stroke-miterlimit:10;stroke:#263238;fill:none" d="M0 0v30.667"/>
            <path data-name="Line 23897" transform="translate(258.766 188.266)" style="stroke-miterlimit:10;stroke:#263238;fill:none" d="M0 0v30.667"/>
            <path data-name="Path 21075" d="M126.819 235.3h3.063v.868h-1.041v5.4h-1v-5.4h-1.031z" transform="translate(-28.417 -51.971)" style="fill:#263238"/>
            <path data-name="Path 21076" d="M130.749 236.752a1.51 1.51 0 1 1 3.011 0v3.28a1.51 1.51 0 1 1-3.011 0zm.989 3.341c0 .451.2.625.512.625s.521-.174.521-.625v-3.341c0-.451-.2-.625-.521-.625s-.512.174-.512.625z" transform="translate(-28.937 -51.949)" style="fill:#263238"/>
            <path data-name="Path 21077" d="M135 235.3h1.571c.989 0 1.475.547 1.475 1.553v3.193c0 1.007-.486 1.553-1.475 1.553H135zm1 .868v4.5h.555c.312 0 .5-.165.5-.616v-3.28c0-.451-.191-.607-.5-.607z" transform="translate(-29.499 -51.971)" style="fill:#263238"/>
            <path data-name="Path 21078" d="M142.348 241.6h-1l-.174-1.137h-1.215l-.174 1.137h-.868l.937-6.3h1.449zm-2.256-2h.955l-.477-3.185z" transform="translate(-30.018 -51.971)" style="fill:#263238"/>
            <path data-name="Path 21079" d="M144.276 239.517 143 235.3h1.041l.755 2.872.755-2.872h.946l-1.25 4.217v2.083h-.989z" transform="translate(-30.557 -51.971)" style="fill:#263238"/>
            <path data-name="Path 21080" d="m239.628 238.242-.356 3.358h-1.38l-.7-6.3h.963l.538 4.972.477-4.972h.955l.495 5.007.512-5.007H242l-.7 6.3h-1.31z" transform="translate(-43.012 -51.971)" style="fill:#263238"/>
            <path data-name="Path 21081" d="M244.283 237.955h1.362v.868h-1.354v1.848h1.736v.868h-2.707V235.3h2.707v.868h-1.736z" transform="translate(-43.822 -51.971)" style="fill:#263238"/>
            <path data-name="Path 21082" d="M248.089 237.955h1.362v.868h-1.362v1.848h1.736v.868H247.1V235.3h2.707v.868h-1.736z" transform="translate(-44.322 -51.971)" style="fill:#263238"/>
            <path data-name="Path 21083" d="m252.213 239.092-.3.573v1.935h-.989v-6.3h.989v2.742l1.3-2.742h.989l-1.38 2.812 1.38 3.471h-1.024z" transform="translate(-44.827 -51.971)" style="fill:#263238"/>
            <path data-name="Path 21084" d="m355.677 239.778.668-4.478h1.38v6.3h-.937v-4.521l-.688 4.521h-.929l-.746-4.452v4.452h-.868v-6.3h1.38z" transform="translate(-58.399 -51.971)" style="fill:#263238"/>
            <path data-name="Path 21085" d="M359.1 236.771a1.5 1.5 0 0 1 3 0v3.28a1.5 1.5 0 0 1-3 0zm.989 3.341c0 .451.2.625.512.625s.512-.174.512-.625v-3.341c0-.451-.2-.625-.512-.625s-.512.174-.512.625z" transform="translate(-59.132 -51.967)" style="fill:#263238"/>
            <path data-name="Path 21086" d="M364.188 237.036v4.564h-.868v-6.3h1.241l1.015 3.775V235.3h.868v6.3h-1.015z" transform="translate(-59.69 -51.971)" style="fill:#263238"/>
            <path data-name="Path 21087" d="M367.4 235.3h3.063v.868h-1.041v5.4h-.989v-5.4H367.4z" transform="translate(-60.229 -51.971)" style="fill:#263238"/>
            <path data-name="Path 21088" d="M372.409 241.6h-.989v-6.3h.989v2.7h1.128v-2.7h.989v6.3h-1.006v-2.7h-1.128z" transform="translate(-60.761 -51.971)" style="fill:#263238"/>
            <path data-name="Line 23898" transform="translate(329.386 24.552)" style="stroke-miterlimit:10;stroke:#263238;fill:none" d="M15.038 0H0"/>
            <path data-name="Line 23899" transform="translate(329.386 29.186)" style="stroke-miterlimit:10;stroke:#263238;fill:none" d="M15.038 0H0"/>
            <path data-name="Line 23900" transform="translate(329.386 33.812)" style="stroke-miterlimit:10;stroke:#263238;fill:none" d="M15.038 0H0"/>
        </g>
        <g>
            <path data-name="Rectangle 5475" transform="rotate(5.3 -2196.865 2141.67)" style="stroke-linejoin:round;stroke-linecap:round;stroke:#263238;fill:#fff" d="M0 0h44.56v29.313H0z"/>
            <path data-name="Path 21089" d="m234.08 289.27 5.285-7.48 4.842 1.319 4.408 7.923 7.923-7.48 4.851 10.569h3.081l7.489-12.331" transform="translate(-42.601 -58.118)" style="stroke-width:2px;stroke:#007bc0;stroke-linecap:round;stroke-miterlimit:10;fill:none"/>
            <path data-name="Path 21090" d="M278.889 283.144a30.043 30.043 0 0 0-4.92-3.931c-3.471-2.386-5.476-2.812-6.074-2.525s-5.207 4.634-5.337 6.179-.868 2.95-.868 3.514.981.139 1.961-.564 1.736-3.089 2.109-3.514 2.95-.564 3.376-.564.981 2.4.981 2.4.278 3.931 1.545 4.5 5.9.417 5.9.417z" transform="translate(-46.252 -57.433)" style="stroke-linejoin:round;stroke-linecap:round;stroke:#263238;fill:#fff"/>
            <path data-name="Line 23901" transform="translate(211.984 219.81)" style="stroke-width:2px;stroke-linejoin:round;stroke-linecap:round;stroke:#263238;fill:none" d="M19.247 0 0 12.643"/>
            <path data-name="Path 21091" d="m271.543 283.82-2.812 2.247c-.7.564-5.337 1.406-5.9 1.683s-2.109.7-1.119 1.267a13.673 13.673 0 0 0 4.773.868c1.119 0 4.339 1.128 5.762.425l2.525-1.267" transform="translate(-46.212 -58.387)" style="stroke-linejoin:round;stroke-linecap:round;stroke:#263238;fill:#fff"/>
            <path data-name="Path 21092" d="m285.493 283.414-5.614-.564-1.128 8 6.743 1.831z" transform="translate(-48.508 -58.258)" style="stroke-linejoin:round;stroke-linecap:round;stroke:#263238;fill:#007bc0"/>
            <path data-name="Path 21093" d="M293.078 217.784s-.59 4.339.59 6.074a11.879 11.879 0 0 1 1.571 3.341s-2.161 6.881-1.38 7.237a12.686 12.686 0 0 0 2.95.59s2.942 6.482 3.922 7.072a7.18 7.18 0 0 0 1.735.781l1.736 1.38 15.316-7.072-2.551-7.263a20.558 20.558 0 0 1 0-7.662c.781-4.339-5.5-9.624-9.624-10.8s-10.995.59-10.995.59z" transform="translate(-50.383 -48.765)" style="stroke-linejoin:round;stroke-linecap:round;stroke:#263238;fill:#fff"/>
            <path data-name="Path 21094" d="M297.982 207.472s-8.244 4.721-8.053 7.272a7.576 7.576 0 0 0 1.961 4.339l4.174-2.013s-1.736 3.141-.79 3.541a1.735 1.735 0 0 0 1.736-.4l1.18 3.731 2.551-2.161s4.339 9.823 7.263 10.214 7.463-.2 9.034-1.18 3.731-10.2 4.512-13.745-3.332-10.2-9.033-12.149-13.746 2.161-13.746 2.161z" transform="translate(-49.986 -47.885)" style="stroke-linejoin:round;stroke-linecap:round;fill:#263238;stroke:#263238"/>
            <path data-name="Path 21095" d="M300.79 224.507a15.619 15.619 0 0 1 1.571 3.931c.989 3.141 1.97 7.654 2.56 2.551s-2.951-10.013-4.131-6.482z" transform="translate(-51.422 -50.385)" style="stroke-linejoin:round;stroke-linecap:round;stroke:#263238;fill:#fff"/>
            <path data-name="Path 21096" d="M284.812 465.759s-3.141 4.122-3.731 4.339-6.283 1.961-6.482 3.141a3.757 3.757 0 0 0 .59 2.36 47.952 47.952 0 0 0 9.624 1.172 75.493 75.493 0 0 0 9.815-.781 35.956 35.956 0 0 0 6.682 0c2.161-.391 2.352-1.736 2.352-1.736l-1.18-10.995-12.956.391z" transform="translate(-47.957 -82.114)" style="stroke-linejoin:round;stroke-linecap:round;stroke:#263238;fill:#fff"/>
            <path data-name="Path 21097" d="m318.611 466.19-4.712 5.493s-2.161.59-1.961 2.56 2.352 2.161 4.339 2.161 14.526.391 16.488-.59-1.736-10.8-1.736-10.8z" transform="translate(-52.895 -82.345)" style="stroke-linejoin:round;stroke-linecap:round;stroke:#263238;fill:#fff"/>
            <path data-name="Path 21098" d="M284.012 340.816s-.391 32.012-.2 39.05 2.551 48.508 2.751 52.066.391 8.678.391 8.678-1.371 2.161-1.371 3.141v3.341s6.482 6.474 9.815 6.474 9.034-1.961 9.034-1.961S306 441.591 306.4 439.82s-1.605-30.277-1.605-30.858-.981-12.374-.981-13.164 4.912 26.12 5.111 29.851 2.551 16.488 2.551 16.488a3.1 3.1 0 0 0-1.18 2.751c.2 1.736.39 5.493.39 5.493a11.541 11.541 0 0 0 6.074 2.751 59.5 59.5 0 0 0 8.444.59c.781 0 2.551.2 3.141-1.18s.2-11.784.2-13.745-.79-7.263-.79-8.634-3.532-37.115-3.341-45.367.2-27.882.989-29.652 3.532-12.765 3.532-14.752-9.823 4.521-22 3.141a219.354 219.354 0 0 1-22.97-3.922z" transform="translate(-49.17 -65.764)" style="stroke-linejoin:round;stroke-linecap:round;fill:#263238;stroke:#263238"/>
            <path data-name="Path 21099" d="m317.934 353.45-6.291 4.712s-2.152 26.51-3.141 31.24-1.371 6.074-1.371 6.074" transform="translate(-52.261 -67.594)" style="stroke:#757575;stroke-linejoin:round;stroke-linecap:round;fill:none"/>
            <path data-name="Path 21100" d="M263.88 303.705s-7.072-3.731-8.678-3.922a43.772 43.772 0 0 0-6.673.59s-3.541-1.571-4.912-.4-.59 1.38.39 1.736 5.892 1.38 5.892 1.38-1.18 3.723-.59 4.339 4.122.79 4.122.79a12.963 12.963 0 0 1 2.161 1.18c1.18.781 4.339.59 4.912.191a18.8 18.8 0 0 1 1.736-.981z" transform="translate(-43.765 -60.465)" style="stroke-linejoin:round;stroke-linecap:round;stroke:#263238;fill:#fff"/>
            <path data-name="Path 21101" d="m302.38 249.962 3.141-4.521s8.634-5.493 12.149-6.283 9.033 4.521 9.033 4.521-3.141.59-10.413 2.751-13.91 3.532-13.91 3.532z" transform="translate(-51.632 -52.47)" style="stroke-linejoin:round;stroke-linecap:round;stroke:#263238;fill:#007bc0"/>
            <path data-name="Path 21102" d="M302.59 248.7s-16.3 6.074-16.488 9.424-2.751 44.768-2.751 44.768l-3.141 27.491s10.6 5.3 21.009 5.693 15.715.2 19.447-1.172 11.776-7.853 11.776-7.853-4.339-24.35-4.339-27.3 6.673-24.35 8.044-30.632a97.623 97.623 0 0 0 2.022-17.086c0-2.942-15.906-7.654-15.906-7.654a70.772 70.772 0 0 0-19.673 4.321z" transform="translate(-48.701 -53.172)" style="stroke-linejoin:round;stroke-linecap:round;stroke:#263238;fill:#007bc0"/>
            <path data-name="Path 21103" d="M330.924 277.61c-2.6 5.207-6.8 13.416-10.214 18.093" transform="translate(-54.056 -57.565)" style="stroke-linejoin:round;stroke-linecap:round;stroke:#263238;fill:#fff"/>
            <path data-name="Path 21104" d="M335.01 272s-.443.955-1.18 2.49" transform="translate(-55.791 -56.824)" style="stroke-linejoin:round;stroke-linecap:round;stroke:#263238;fill:#fff"/>
            <path data-name="Path 21105" d="M322.341 299.21c-1.683 2.326-3.384 4.669-3.671 5.042" transform="translate(-53.786 -60.422)" style="stroke-linejoin:round;stroke-linecap:round;stroke:#263238;fill:none"/>
            <path data-name="Path 21106" d="M326.594 293.48s-1.215 1.692-2.664 3.679" transform="translate(-54.482 -59.664)" style="stroke-linejoin:round;stroke-linecap:round;stroke:#263238;fill:none"/>
            <path data-name="Line 23902" transform="translate(250.158 218.109)" style="stroke-linejoin:round;stroke-linecap:round;stroke:#263238;fill:none" d="M0 13.546 6.083 0"/>
            <path data-name="Line 23903" transform="translate(248.587 226.752)" style="stroke-linejoin:round;stroke-linecap:round;stroke:#263238;fill:none" d="M0 7.853 7.064 0"/>
            <path data-name="Path 21107" d="M294.422 252.52s-10.413 3.541-10.6 4.712-3.141 41.046-3.141 41.046l-14.926-1.736a8.73 8.73 0 0 0-1.371 4.521v4.712s1.961.191 8.678 2.751 14.526 4.122 16.3 3.922 5.5-5.892 5.5-9.034 5.1-32 5.1-32" transform="translate(-46.608 -54.248)" style="stroke-linejoin:round;stroke-linecap:round;stroke:#263238;fill:#007bc0"/>
            <path data-name="Path 21108" d="m283.692 311.619-.72-6.369s-1.5 4.59-1.276 6.812" transform="translate(-48.894 -61.22)" style="stroke-linejoin:round;stroke-linecap:round;stroke:#263238;fill:none"/>
        </g>
        <g>
            <path data-name="Path 21109" d="m175.806 233.408-1.076 7.029 18.024 6.413v-6.265l-5.042-23.664-11.758 7.636z" transform="translate(-34.753 -49.54)" style="stroke-linejoin:round;stroke-linecap:round;stroke:#263238;fill:#fff"/>
            <path data-name="Path 21110" d="M201.446 212.057s.148 6.56.148 7.94a13.389 13.389 0 0 1-1.067 3.818s1.527 3.358 1.831 4.269-1.831 2.447-1.831 2.447-.3 2.751-.46 3.2a3.6 3.6 0 0 1-4.269 1.527c-2.291-.868-4.582-9.311-4.894-12.062s-.148-8.678 2.907-10.839 7.635-.3 7.635-.3z" transform="translate(-36.877 -48.799)" style="stroke-linejoin:round;stroke-linecap:round;stroke:#263238;fill:#fff"/>
            <path data-name="Path 21111" d="M189.236 222.078s3.974-2.282 4.426-3.2-.148-3.211-.451-5.207 4.122-2.291 5.345-1.683 3.055 1.683 3.055-2.291-3.983-9.45-12.834-9.146-17.408 2.751-19.386 12.218 3.046 17.407 3.662 18.779 4.122 3.671 8.678.616 3.471-7.029 3.471-7.029 0-2.6.764-2.6.911.764.911 6.569-.147 10.691 3.358 11.915 7.176-.616 7.489-4.131-.312-6.257-1.84-6.257-2.438 2.291-3.966-1.371-2.682-7.182-2.682-7.182z" transform="translate(-33.987 -47.374)" style="stroke-linejoin:round;stroke-linecap:round;fill:#263238;stroke:#263238"/>
            <path data-name="Path 21112" d="M189.327 227.026s.3-7.81-2.447-4.426.46 8.391.46 8.391l.92-1.527" transform="translate(-36.213 -50.179)" style="stroke-linejoin:round;stroke-linecap:round;stroke:#263238;fill:#fff"/>
            <path data-name="Path 21113" d="M172.009 240 168 247.376s8.131-.989 14.24 1 11.611 4.122 11.611 4.122l-2.143-7.289a56.316 56.316 0 0 0-12.21-4.122c-5.498-.922-7.489-1.087-7.489-1.087z" transform="translate(-33.863 -52.592)" style="stroke-linejoin:round;stroke-linecap:round;stroke:#263238;fill:#007bc0"/>
            <path data-name="Path 21114" d="M202.208 465.551s3.141 4.122 3.731 4.339 6.283 1.961 6.482 3.141a3.8 3.8 0 0 1-.59 2.352 47.628 47.628 0 0 1-9.624 1.18 74.624 74.624 0 0 1-9.814-.79 35.153 35.153 0 0 1-6.682 0c-2.161-.39-2.352-1.736-2.352-1.736L184.532 463l12.964.391z" transform="translate(-35.894 -82.079)" style="stroke-linejoin:round;stroke-linecap:round;stroke:#263238;fill:#fff"/>
            <path data-name="Path 21115" d="m169.576 465.982 4.712 5.5s2.161.59 1.961 2.551-2.36 2.161-4.339 2.161-14.527.391-16.488-.59 1.736-10.8 1.736-10.8z" transform="translate(-32.124 -82.318)" style="stroke-linejoin:round;stroke-linecap:round;stroke:#263238;fill:#fff"/>
            <path data-name="Path 21116" d="M157.29 340.915s1.059 12.383 1.571 13.745c.59 1.579 2.551 41.436.59 46.938s-3.532 16.3-2.751 20.618a97.092 97.092 0 0 1 1.18 11.975c0 1.18-2.36 8.27-2.36 11.212a23.431 23.431 0 0 0 .79 5.7s6.283.39 9.424-.59 5.1-1.38 5.1-1.38l1.38.981v-8.443c0-3.141 1.545-9.216 1.545-11.177s1.605-18.154 2.786-22.276 2.543-28.029 2.543-28.029.391 31.422 0 34.954-1.18 5.111 0 9.424.781 19.265.781 19.265a8.044 8.044 0 0 0 0 3.141c.39.981.981 3.54.981 3.54a28.491 28.491 0 0 0 4.521.391c3.922.2 10.214.39 10.8.2s2.751-.79 2.751-.79a25.164 25.164 0 0 0 0-4.339c-.191-2.551-1.736-8.07-1.961-14.353s4.512-44.378 5.693-54.782 5.5-19.837 4.712-26.71-4.122-12.956-4.339-14.336-1.571-2.161-1.571-2.751-44.569 1.571-44.569 1.571z" transform="translate(-32.213 -64.882)" style="stroke-linejoin:round;stroke-linecap:round;fill:#263238;stroke:#263238"/>
            <path data-name="Path 21117" d="m173.4 356.62 7.463 6.673.59 20.028" transform="translate(-34.577 -68.013)" style="stroke:#757575;stroke-linejoin:round;stroke-linecap:round;fill:none"/>
            <path data-name="Path 21118" d="M170.642 245.007s-16.956 10.413-16.956 12.522-1.215 23.517.616 31.153 5.207 16.948 5.207 16.948L153 332.591s4.235 3.037 16.305 6.074 22.562 2.551 23.907 2.239l-.3-6.578 4.886-14.509s6.257-9.467 6.717-12.522-.148-7.81-.46-10.413-2.438-12.826-3.2-15.42-1.224-21.226-3.055-23.36a44.853 44.853 0 0 0-7.333-6.074c-1.215-.764-11.758-8.4-20.306-7.333" transform="translate(-31.88 -53.2)" style="stroke-linejoin:round;stroke-linecap:round;stroke:#263238;fill:#007bc0"/>
            <path data-name="Path 21119" d="M178.22 303.36a30.05 30.05 0 0 0 1.788 1.657" transform="translate(-35.215 -60.97)" style="stroke-linejoin:round;stroke-linecap:round;stroke:#263238;fill:none"/>
            <path data-name="Path 21120" d="M164.24 285.49a127.873 127.873 0 0 0 10.917 14.249" transform="translate(-33.366 -58.607)" style="stroke-linejoin:round;stroke-linecap:round;stroke:#263238;fill:none"/>
            <path data-name="Path 21121" d="M180.56 310.83a11.776 11.776 0 0 0 3.94.746" transform="translate(-35.524 -61.958)" style="stroke-linejoin:round;stroke-linecap:round;stroke:#263238;fill:none"/>
            <path data-name="Path 21122" d="M169.59 303.67a32.837 32.837 0 0 0 5.883 4.486" transform="translate(-34.074 -61.011)" style="stroke-linejoin:round;stroke-linecap:round;stroke:#263238;fill:none"/>
            <path data-name="Path 21123" d="M202.05 330.6a37.617 37.617 0 0 1-8.391 10.413c-5.658 4.886-7.489 6.725-7.489 6.725s9.624.3 10.535 2.438l.92 2.135z" transform="translate(-36.266 -64.572)" style="stroke-linejoin:round;stroke-linecap:round;stroke:#263238;fill:#007bc0"/>
            <path data-name="Path 21124" d="m205.53 342.944 4.729 8.851s3.211-4.426 1.84-8.244-1.84-5.042-1.84-5.042z" transform="translate(-38.826 -65.618)" style="stroke-linejoin:round;stroke-linecap:round;stroke:#263238;fill:none"/>
            <path data-name="Path 21125" d="M187.76 274.832s2.9 35.579 5.649 42.148 9.467 16.644 9.467 16.644 3.818-1.067 5.033-2.6 1.527-4.886 1.527-4.886-.764-13.286-.764-16.193-2.742-19.091-2.742-21.226.46-23.977-.616-26.9S196 256.47 196 256.47" transform="translate(-36.476 -54.77)" style="stroke-linejoin:round;stroke-linecap:round;stroke:#263238;fill:#007bc0"/>
        </g>
    </g>
</svg>
