<svg xmlns="http://www.w3.org/2000/svg" width="412.937" height="442.987" viewBox="0 0 412.937 442.987">
    <defs>
        <clipPath id="16lgcrm3na">
            <path data-name="Path 21284" d="M201.37 359.4v3.11a1.54 1.54 0 0 1-1.54 1.54h-60.46a4.64 4.64 0 0 1-4.48-5.84L142 331.7l9.83-36.92h30.74l1.06 16.56 1.39 21.5 1.15 17.93a7.56 7.56 0 0 0 7.55 7.09h6.16a1.54 1.54 0 0 1 1.49 1.54z" style="stroke-linecap:round;stroke-linejoin:round;stroke:#263238;fill:#007bc0"/>
        </clipPath>
        <clipPath id="uhq7zk84cb">
            <path data-name="Path 21298" d="M192.8 374.65h112.22l-62.49-12.55H127.54l43.78 12.55h16.21" style="stroke-linecap:round;stroke-linejoin:round;stroke:#263238;fill:#007bc0"/>
        </clipPath>
        <clipPath id="p3gq3hq5cc">
            <path data-name="Path 21316" d="M404 387.86c-20.28 23.59-48.23 40.06-79 49.59a191.583 191.583 0 0 1-19.4 5q-2.64.55-5.3 1-5.49 1-11 1.76c-1.84-22.11-6.67-45-10.54-66.3-.81-4.49-1.58-8.92-2.28-13.25-.13-.86-.27-1.72-.4-2.57-1.25-8.16-2.19-16-2.58-23.32-1.1-21.33 2.53-38.61 17-48.29a43.581 43.581 0 0 1 11-5.19h0c.18-.16 1.65-1.36 4-3 6.27-4.22 18.93-11.26 31.56-9.54.57.08 1.14.17 1.71.29a26.23 26.23 0 0 1 6.8 2.37 77.38 77.38 0 0 1 19.4 6.23c6.78 3.26 13.78 8.07 18.22 15 6.99 10.87 15.45 57.21 20.81 90.22z" style="fill:#999;stroke-linecap:round;stroke-linejoin:round;stroke:#263238"/>
        </clipPath>
        <clipPath id="4fovpsptsd">
            <path data-name="Path 21320" d="M290.28 291.26c-24.22 5.75-31.52 35.47-43.21 44.35a75.529 75.529 0 0 0-18.09 20s-10.4 1.74-10.4 5.52-3.46 24.46 17.37 30.35 26.89-2.64 26.89-2.64 35.5-21.07 42-29.81a43.82 43.82 0 0 0 5.72-43.78" style="fill:#999;stroke-linecap:round;stroke-linejoin:round;stroke:#263238"/>
        </clipPath>
        <clipPath id="gimhjrdvse">
            <path data-name="Path 21337" d="M452.58 272c-.18 1.29-.36 2.57-.56 3.86C446.08 315 430.31 353.4 409.56 381q-2.67 3.56-5.57 6.91c-20.28 23.59-48.23 40.06-79 49.59a191.583 191.583 0 0 1-19.4 5q-2.64.55-5.3 1c1.05-5.18 2.26-11.22 3.6-17.87h0c1.73-8.62 3.66-18.25 5.67-28.29 8.82-44.11 19.16-96.22 20.77-106.09a43.281 43.281 0 0 1 1.67-7 22.39 22.39 0 0 1 4.43-7.86c.42-.46.86-.91 1.33-1.35s.73-.64 1.11-.95c7-5.58 19.4-8 41.86-7.67 38.72.61 60.63-6.93 71.59 5.24a3.921 3.921 0 0 1 .26.34z" style="stroke-linecap:round;stroke-linejoin:round;stroke:#263238;fill:#007bc0"/>
        </clipPath>
    </defs>
    <g data-name="3d modeling-bro">
        <path data-name="Path 21264" d="M67.93 167.09s-27.88 72 11.3 144.5 119.88 110.8 184.47 143.55 131.66 16.8 163.53-36.84-11.84-91.93-11.9-168.42 11.45-96.74-30-161.36-143.06-78.93-219.9-31-97.5 109.57-97.5 109.57z" style="opacity:.7;fill:#fff" transform="translate(-41.654 -29.116)"/>
        <path data-name="Path 21265" d="m95.86 87.74.56-.51C148 40.8 216.48 38.7 266.38 88.69c26 26.05 72.19 21.07 105.23 30.49 113.92 32.49 94.22 187.05 37.95 261.82-50.78 67.42-160.81 82.66-234.73 49.48-65-29.15-110.7-94.27-127-162.37q-2.45-10.24-4-20.67c-8.54-58.02 7.91-119.58 52.03-159.7z" style="fill:#007bc0" transform="translate(-41.654 -29.116)"/>
        <path data-name="Path 21266" d="m95.86 87.74.56-.51C148 40.8 216.48 38.7 266.38 88.69c26 26.05 72.19 21.07 105.23 30.49 113.92 32.49 94.22 187.05 37.95 261.82-50.78 67.42-160.81 82.66-234.73 49.48-65-29.15-110.7-94.27-127-162.37q-2.45-10.24-4-20.67c-8.54-58.02 7.91-119.58 52.03-159.7z" style="opacity:.7;fill:#fff" transform="translate(-41.654 -29.116)"/>
        <path data-name="Path 21267" d="M445.85 182.41H339.11v-12.12h91.74" style="fill:none;stroke-linecap:round;stroke-linejoin:round;stroke:#263238" transform="translate(-41.654 -29.116)"/>
        <path data-name="Line 23923" transform="translate(343.326 153.294)" style="fill:none;stroke-linecap:round;stroke-linejoin:round;stroke:#263238" d="M0 6.19V0"/>
        <path data-name="Path 21268" d="m376.39 183.04 3.44 22.75h5.15" style="fill:none;stroke-linecap:round;stroke-linejoin:round;stroke:#263238" transform="translate(-41.654 -29.116)"/>
        <path data-name="Path 21269" d="M361.64 125.28v45.01h-9.58v-58.35h9.58v2.53" style="fill:none;stroke-linecap:round;stroke-linejoin:round;stroke:#263238" transform="translate(-41.654 -29.116)"/>
        <path data-name="Line 23924" transform="translate(319.986 89.654)" style="fill:none;stroke-linecap:round;stroke-linejoin:round;stroke:#263238" d="M0 0v1.84"/>
        <path data-name="Path 21270" d="M384.98 127.48v-15.54h-23.34" style="fill:none;stroke-linecap:round;stroke-linejoin:round;stroke:#263238" transform="translate(-41.654 -29.116)"/>
        <path data-name="Path 21271" d="M380.56 170.29h-9.58v-42.81h9.58" style="fill:none;stroke-linecap:round;stroke-linejoin:round;stroke:#263238" transform="translate(-41.654 -29.116)"/>
        <path data-name="Path 21272" d="M403.9 159.29v-31.81h-23.34" style="fill:none;stroke-linecap:round;stroke-linejoin:round;stroke:#263238" transform="translate(-41.654 -29.116)"/>
        <path data-name="Line 23925" transform="translate(338.906 115.334)" style="fill:none;stroke-linecap:round;stroke-linejoin:round;stroke:#263238" d="M0 0v25.84"/>
        <path data-name="Line 23926" transform="translate(338.906 107.934)" style="fill:none;stroke-linecap:round;stroke-linejoin:round;stroke:#263238" d="M0 0v4.99"/>
        <path data-name="Line 23927" transform="translate(338.906 100.874)" style="fill:none;stroke-linecap:round;stroke-linejoin:round;stroke:#263238" d="M0 0v2.42"/>
        <path data-name="Line 23928" transform="translate(310.406 97.544)" style="fill:none;stroke-linecap:round;stroke-linejoin:round;stroke:#263238" d="M0 0h9.58"/>
        <path data-name="Line 23929" transform="translate(312.266 107.934)" style="fill:none;stroke-linecap:round;stroke-linejoin:round;stroke:#263238" d="M0 0h7.72"/>
        <path data-name="Line 23930" transform="translate(329.326 130.504)" style="fill:none;stroke-linecap:round;stroke-linejoin:round;stroke:#263238" d="M0 0h6.79"/>
        <path data-name="Line 23931" transform="translate(329.326 134.494)" style="fill:none;stroke-linecap:round;stroke-linejoin:round;stroke:#263238" d="M0 0h9.58"/>
        <path data-name="Path 21273" d="M384.98 138.92h15.52v6.24" style="fill:none;stroke-linecap:round;stroke-linejoin:round;stroke:#263238" transform="translate(-41.654 -29.116)"/>
        <path data-name="Path 21274" d="M397.39 145.16h-12.41v-2.43" style="fill:none;stroke-linecap:round;stroke-linejoin:round;stroke:#263238" transform="translate(-41.654 -29.116)"/>
        <path data-name="Path 21275" d="m383.93 198.11 1.05 7.68" style="fill:none;stroke-linecap:round;stroke-linejoin:round;stroke:#263238" transform="translate(-41.654 -29.116)"/>
        <path data-name="Path 21276" d="M383 191.07c.21 1.5.41 3 .61 4.48" style="fill:none;stroke-linecap:round;stroke-linejoin:round;stroke:#263238" transform="translate(-41.654 -29.116)"/>
        <path data-name="Path 21277" d="M381.79 182.41c.14 1 .29 2.08.43 3.12" style="fill:none;stroke-linecap:round;stroke-linejoin:round;stroke:#263238" transform="translate(-41.654 -29.116)"/>
        <path data-name="Path 21278" d="M431.49 170.29h-37.12A5.34 5.34 0 0 1 389 165h0a5.34 5.34 0 0 1 5.34-5.33h37.12" style="fill:none;stroke-linecap:round;stroke-linejoin:round;stroke:#263238" transform="translate(-41.654 -29.116)"/>
        <path data-name="Path 21279" d="M445.49 170.29h-27.12A5.34 5.34 0 0 1 413 165h0a5.34 5.34 0 0 1 5.34-5.33h19.12" style="fill:none;stroke-linecap:round;stroke-linejoin:round;stroke:#263238" transform="translate(-41.654 -29.116)"/>
        <path data-name="Line 23932" transform="translate(376.636 133.414)" style="fill:none;stroke-linecap:round;stroke-linejoin:round;stroke:#263238" d="M0 0h17.14"/>
        <path data-name="Line 23933" transform="translate(383.376 135.834)" style="fill:none;stroke-linecap:round;stroke-linejoin:round;stroke:#263238" d="M15.15 0H0"/>
        <path data-name="Line 23934" transform="translate(379.266 138.664)" style="fill:none;stroke-linecap:round;stroke-linejoin:round;stroke:#263238" d="M0 0h14.51"/>
        <g transform="translate(-41.654 -29.116)">
            <path data-name="Path 21280" d="M322 400.49 186.19 435q-5.81-2.12-11.36-4.61a199.531 199.531 0 0 1-47.14-29.92z" style="fill:rgba(0,0,0,.7);opacity:.3"/>
            <path data-name="Path 21281" d="M201.37 359.4v3.11a1.54 1.54 0 0 1-1.54 1.54h-60.46a4.64 4.64 0 0 1-4.48-5.84L142 331.7l9.83-36.92h30.74l1.06 16.56 1.39 21.5 1.15 17.93a7.56 7.56 0 0 0 7.55 7.09h6.16a1.54 1.54 0 0 1 1.49 1.54z" style="fill:#007bc0"/>
            <g data-name="Group 21135" style="clip-path:url(#16lgcrm3na)">
                <path data-name="Path 21282" d="M193.67 357.86h-53l6.19-25.56 4.88-20.16 31.8-.8 1.39 21.5 1.15 17.93a7.56 7.56 0 0 0 7.59 7.09z" style="fill:rgba(0,0,0,.7);opacity:.3"/>
                <path data-name="Path 21283" d="M185 332.84a188 188 0 0 1-38.07-.54c-1.75-.18-3.4-.39-5-.6l9.83-36.92h30.74l1.06 16.56z" style="fill:rgba(0,0,0,.7);opacity:.3"/>
            </g>
            <path data-name="Path 21285" d="M201.37 359.4v3.11a1.54 1.54 0 0 1-1.54 1.54h-60.46a4.64 4.64 0 0 1-4.48-5.84L142 331.7l9.83-36.92h30.74l1.06 16.56 1.39 21.5 1.15 17.93a7.56 7.56 0 0 0 7.55 7.09h6.16a1.54 1.54 0 0 1 1.49 1.54z" style="fill:none;stroke-linecap:round;stroke-linejoin:round;stroke:#263238"/>
            <path data-name="Path 21286" d="M305.25 307.67a7.07 7.07 0 0 1-6.671 7.06c-22.129 1.26-93.159 5.16-119.749 5.16S81.21 316 59.09 314.73a7.07 7.07 0 0 1-6.68-7.06V134.82a7.08 7.08 0 0 1 7.08-7.08h238.68a7.08 7.08 0 0 1 7.08 7.08z" style="stroke-linecap:round;stroke-linejoin:round;stroke:#263238;fill:#007bc0"/>
            <path data-name="Path 21287" d="M308.94 307.67a7.06 7.06 0 0 1-6.67 7.06c-22.13 1.26-93.16 5.16-119.75 5.16S84.9 316 62.78 314.73a7.07 7.07 0 0 1-6.68-7.06V134.82a7.08 7.08 0 0 1 7.08-7.08h238.68a7.08 7.08 0 0 1 7.08 7.08z" style="stroke-linecap:round;stroke-linejoin:round;stroke:#263238;fill:#007bc0"/>
            <path data-name="Rectangle 5538" transform="translate(62.78 134.06)" style="fill:#263238;stroke-linecap:round;stroke-linejoin:round;stroke:#263238" d="M0 0h239.5v171.43H0z"/>
            <path data-name="Rectangle 5539" transform="translate(62.78 134.06)" style="opacity:.2;fill:#fff" d="M0 0h239.5v171.43H0z"/>
            <path data-name="Rectangle 5540" transform="translate(62.78 134.06)" style="fill:#fff;stroke-linecap:round;stroke-linejoin:round;stroke:#263238" d="M0 0h239.5v18.89H0z"/>
            <path data-name="Rectangle 5541" transform="translate(62.78 152.95)" style="stroke-miterlimit:10;fill:#bfbfbf;stroke:#263238" d="M0 0h26.25v152.54H0z"/>
            <path data-name="Line 23935" transform="translate(186.57 152.95)" style="stroke:#fff;fill:none;stroke-linecap:round;stroke-linejoin:round" d="M0 0v152.54"/>
            <path data-name="Line 23936" transform="translate(89.02 219.84)" style="stroke:#fff;fill:none;stroke-linecap:round;stroke-linejoin:round" d="M0 0h213.25"/>
            <path data-name="Path 21288" d="M299.34 140a2.62 2.62 0 1 1-.771-1.856 2.63 2.63 0 0 1 .771 1.856z" style="stroke-miterlimit:10;fill:#bfbfbf;stroke:#263238"/>
            <path data-name="Path 21289" d="M289.23 140a2.62 2.62 0 1 1-2.62-2.62 2.62 2.62 0 0 1 2.62 2.62z" style="stroke-miterlimit:10;fill:#bfbfbf;stroke:#263238"/>
            <path data-name="Path 21290" d="M279.13 140a2.62 2.62 0 1 1-2.62-2.62 2.62 2.62 0 0 1 2.62 2.62z" style="stroke-miterlimit:10;fill:#bfbfbf;stroke:#263238"/>
            <path data-name="Rectangle 5542" transform="translate(67.06 159.57)" style="fill:#fff;stroke-linecap:round;stroke-linejoin:round;stroke:#263238" d="M0 0h17.67v7.13H0z"/>
            <path data-name="Rectangle 5543" transform="translate(67.06 168.84)" style="fill:#fff;stroke-linecap:round;stroke-linejoin:round;stroke:#263238" d="M0 0h17.67v7.13H0z"/>
            <path data-name="Rectangle 5544" transform="translate(67.06 178.1)" style="fill:#fff;stroke-linecap:round;stroke-linejoin:round;stroke:#263238" d="M0 0h17.67v7.13H0z"/>
            <path data-name="Rectangle 5545" transform="translate(67.06 187.37)" style="fill:#fff;stroke-linecap:round;stroke-linejoin:round;stroke:#263238" d="M0 0h17.67v7.13H0z"/>
            <path data-name="Rectangle 5546" transform="translate(67.06 204.66)" style="fill:#fff;stroke-linecap:round;stroke-linejoin:round;stroke:#263238" d="M0 0h17.67v7.13H0z"/>
            <path data-name="Rectangle 5547" transform="translate(67.06 213.63)" style="fill:#fff;stroke-linecap:round;stroke-linejoin:round;stroke:#263238" d="M0 0h17.67v7.13H0z"/>
            <path data-name="Rectangle 5548" transform="translate(67.06 222.6)" style="fill:#fff;stroke-linecap:round;stroke-linejoin:round;stroke:#263238" d="M0 0h17.67v7.13H0z"/>
            <path data-name="Rectangle 5549" transform="translate(67.06 231.56)" style="fill:#fff;stroke-linecap:round;stroke-linejoin:round;stroke:#263238" d="M0 0h17.67v7.13H0z"/>
            <path data-name="Rectangle 5550" transform="translate(67.06 240.53)" style="fill:#fff;stroke-linecap:round;stroke-linejoin:round;stroke:#263238" d="M0 0h17.67v7.13H0z"/>
            <path data-name="Rectangle 5551" transform="translate(67.06 257.86)" style="fill:#fff;stroke-linecap:round;stroke-linejoin:round;stroke:#263238" d="M0 0h7.13v7.13H0z"/>
            <path data-name="Rectangle 5552" transform="translate(77.61 257.86)" style="fill:#fff;stroke-linecap:round;stroke-linejoin:round;stroke:#263238" d="M0 0h7.13v7.13H0z"/>
            <path data-name="Rectangle 5553" transform="translate(67.06 268.49)" style="fill:#fff;stroke-linecap:round;stroke-linejoin:round;stroke:#263238" d="M0 0h7.13v7.13H0z"/>
            <path data-name="Rectangle 5554" transform="translate(77.61 268.49)" style="fill:#fff;stroke-linecap:round;stroke-linejoin:round;stroke:#263238" d="M0 0h7.13v7.13H0z"/>
            <path data-name="Line 23937" transform="translate(62.78 199.92)" style="fill:none;stroke-linecap:round;stroke-linejoin:round;stroke:#263238" d="M0 0h26.24"/>
            <path data-name="Line 23938" transform="translate(62.78 253.2)" style="fill:none;stroke-linecap:round;stroke-linejoin:round;stroke:#263238" d="M0 0h26.24"/>
            <path data-name="Rectangle 5555" transform="translate(235.4 138)" style="stroke-miterlimit:10;fill:#bfbfbf;stroke:#263238" d="M0 0h28.22v4.02H0z"/>
            <path data-name="Rectangle 5556" transform="translate(67.06 137.21)" style="stroke-miterlimit:10;fill:#bfbfbf;stroke:#263238" d="M0 0h5.61v5.61H0z"/>
            <circle data-name="Ellipse 517" cx="23.6" cy="23.6" r="23.6" transform="translate(112.91 162.24)" style="fill:#007bc0"/>
            <circle data-name="Ellipse 518" cx="13.89" cy="13.89" r="13.89" transform="translate(116.34 166.23)" style="opacity:.5;fill:#fff"/>
            <path data-name="Rectangle 5557" transform="translate(62.78 299.48)" style="fill:#fff;stroke-linecap:round;stroke-linejoin:round;stroke:#263238" d="M0 0h239.5v6.01H0z"/>
            <path data-name="Rectangle 5558" transform="translate(291.57 152.95)" style="stroke-miterlimit:10;fill:#bfbfbf;stroke:#263238" d="M0 0h10.7v146.53H0z"/>
            <path data-name="Line 23939" transform="translate(291.57 168.84)" style="fill:none;stroke-linecap:round;stroke-linejoin:round;stroke:#263238" d="M0 0h10.7"/>
            <path data-name="Line 23940" transform="translate(291.57 201.77)" style="fill:none;stroke-linecap:round;stroke-linejoin:round;stroke:#263238" d="M0 0h10.7"/>
            <path data-name="Line 23941" transform="translate(291.57 234.7)" style="fill:none;stroke-linecap:round;stroke-linejoin:round;stroke:#263238" d="M0 0h10.7"/>
            <circle data-name="Ellipse 519" cx="23.6" cy="23.6" r="23.6" transform="translate(214.29 162.24)" style="stroke:#fff;stroke-miterlimit:10;fill:none"/>
            <path data-name="Line 23942" transform="translate(214.28 185.84)" style="stroke:#fff;stroke-miterlimit:10;fill:none" d="M0 0h47.21"/>
            <path data-name="Line 23943" transform="translate(237.89 162.23)" style="stroke:#fff;stroke-miterlimit:10;fill:none" d="M0 0v47.21"/>
            <path data-name="Line 23944" transform="translate(221.19 169.15)" style="stroke:#fff;stroke-miterlimit:10;fill:none" d="m0 0 33.39 33.38"/>
            <path data-name="Line 23945" transform="translate(221.19 169.15)" style="stroke:#fff;stroke-miterlimit:10;fill:none" d="M33.39 0 0 33.38"/>
            <path data-name="Line 23946" transform="translate(216.09 176.78)" style="stroke:#fff;stroke-miterlimit:10;fill:none" d="m0 0 43.59 18.12"/>
            <path data-name="Line 23947" transform="translate(228.83 164.04)" style="stroke:#fff;stroke-miterlimit:10;fill:none" d="M18.11 0 0 43.59"/>
            <path data-name="Line 23948" transform="translate(228.88 164.02)" style="stroke:#fff;stroke-miterlimit:10;fill:none" d="m0 0 18.01 43.64"/>
            <path data-name="Line 23949" transform="translate(216.07 176.83)" style="stroke:#fff;stroke-miterlimit:10;fill:none" d="M43.63 0 0 18.01"/>
            <circle data-name="Ellipse 520" cx="15.85" cy="15.85" r="15.85" transform="rotate(-76.63 234.408 -39.66)" style="stroke:#fff;stroke-miterlimit:10;fill:none"/>
            <circle data-name="Ellipse 521" cx="7.24" cy="7.24" r="7.24" transform="rotate(-76.7 235.438 -49.206)" style="stroke:#fff;stroke-miterlimit:10;fill:none"/>
            <circle data-name="Ellipse 522" cx="23.6" cy="23.6" r="23.6" transform="translate(112.91 236.89)" style="stroke:#fff;fill:none;stroke-linecap:round;stroke-linejoin:round"/>
            <path data-name="Line 23950" transform="translate(112.91 260.49)" style="stroke:#fff;fill:none;stroke-linecap:round;stroke-linejoin:round" d="M0 0h47.21"/>
            <path data-name="Line 23951" transform="translate(136.51 236.88)" style="stroke:#fff;fill:none;stroke-linecap:round;stroke-linejoin:round" d="M0 0v47.21"/>
            <ellipse data-name="Ellipse 523" cx="8.01" cy="23.6" rx="8.01" ry="23.6" transform="translate(128.5 236.89)" style="stroke:#fff;fill:none;stroke-linecap:round;stroke-linejoin:round"/>
            <ellipse data-name="Ellipse 524" cx="15.27" cy="23.6" rx="15.27" ry="23.6" transform="translate(121.24 236.89)" style="stroke:#fff;fill:none;stroke-linecap:round;stroke-linejoin:round"/>
            <ellipse data-name="Ellipse 525" cx="21.26" cy="23.6" rx="21.26" ry="23.6" transform="translate(115.25 236.89)" style="stroke:#fff;fill:none;stroke-linecap:round;stroke-linejoin:round"/>
            <path data-name="Line 23952" transform="translate(115.53 249.66)" style="stroke:#fff;fill:none;stroke-linecap:round;stroke-linejoin:round" d="M0 0h41.96"/>
            <path data-name="Line 23953" transform="translate(123.91 240.53)" style="stroke:#fff;fill:none;stroke-linecap:round;stroke-linejoin:round" d="M0 0h25.21"/>
            <path data-name="Line 23954" transform="translate(115.53 271.31)" style="stroke:#fff;fill:none;stroke-linecap:round;stroke-linejoin:round" d="M0 0h41.96"/>
            <path data-name="Line 23955" transform="translate(123.91 280.44)" style="stroke:#fff;fill:none;stroke-linecap:round;stroke-linejoin:round" d="M0 0h25.21"/>
            <circle data-name="Ellipse 526" cx="23.6" cy="23.6" r="23.6" transform="translate(214.29 236.89)" style="stroke:#fff;stroke-miterlimit:10;fill:none"/>
            <ellipse data-name="Ellipse 527" cx="8.37" cy="23.6" rx="8.37" ry="23.6" transform="translate(229.52 236.89)" style="stroke:#fff;stroke-miterlimit:10;fill:none"/>
            <ellipse data-name="Ellipse 528" cx="23.6" cy="8.37" rx="23.6" ry="8.37" transform="translate(214.29 252.12)" style="stroke:#fff;stroke-miterlimit:10;fill:none"/>
            <path data-name="Line 23956" transform="translate(230.06 252.66)" style="stroke:#fff;stroke-miterlimit:10;fill:none" d="M0 16.19 16.19 0"/>
            <path data-name="Line 23957" transform="translate(214.28 260.49)" style="stroke:#fff;stroke-miterlimit:10;fill:none" d="M0 0h47.21"/>
            <path data-name="Line 23958" transform="translate(237.89 236.88)" style="stroke:#fff;stroke-miterlimit:10;fill:none" d="M0 0v47.21"/>
            <path data-name="Path 21291" d="M104.8 364.05h236.08Q222.8 364 104.8 364z" style="fill:#fff;stroke-linecap:round;stroke-linejoin:round;stroke:#263238"/>
            <path data-name="Path 21292" d="M101.64 364z" style="fill:#fff;stroke-linecap:round;stroke-linejoin:round;stroke:#263238"/>
            <path data-name="Path 21293" d="M60 364.05h7.2" style="fill:#fff;stroke-linecap:round;stroke-linejoin:round;stroke:#263238"/>
            <path data-name="Path 21294" d="M127.4 379.08h61.05V366.6l-60.91.8z" style="fill:#263238;stroke-linecap:round;stroke-linejoin:round;stroke:#263238"/>
            <path data-name="Path 21295" d="M305.02 379.08h-133.7l-40.5-9.84-3.28-7.14h114.99l62.49 12.55z" style="stroke-linecap:round;stroke-linejoin:round;stroke:#263238;fill:#007bc0"/>
            <path data-name="Path 21296" d="M192.8 374.65h112.22l-62.49-12.55H127.54l43.78 12.55h16.21" style="fill:#007bc0"/>
            <g data-name="Group 21136" style="clip-path:url(#uhq7zk84cb)">
                <path data-name="Path 21297" d="m127.54 362.1 43.78 12.55h133.7l-62.49-12.55z" style="fill:rgba(0,0,0,.7);opacity:.3"/>
            </g>
            <path data-name="Path 21299" d="M192.8 374.65h112.22l-62.49-12.55H127.54l43.78 12.55h16.21" style="fill:none;stroke-linecap:round;stroke-linejoin:round;stroke:#263238"/>
            <path data-name="Line 23959" transform="translate(171.32 377.42)" style="fill:none;stroke-linecap:round;stroke-linejoin:round;stroke:#263238" d="M0 0v1.66"/>
            <path data-name="Path 21300" d="M132.38 367.28a12.93 12.93 0 0 1 .42 3.31c0 4.69-2.42 8.49-5.4 8.49s-5.41-3.8-5.41-8.49 2.42-8.49 5.41-8.49c1.65 0 3.12 1.16 4.12 3" style="stroke-linecap:round;stroke-linejoin:round;stroke:#263238;fill:#007bc0"/>
            <path data-name="Path 21301" d="M104.44 388.53c76.56.47 154.56.47 232 0" style="fill:#fff;stroke-linecap:round;stroke-linejoin:round;stroke:#263238"/>
            <path data-name="Path 21302" d="M85.88 388.53a45.779 45.779 0 0 0 11.34 0" style="fill:#fff;stroke-linecap:round;stroke-linejoin:round;stroke:#263238"/>
            <path data-name="Path 21303" d="M197.19 400.49c45.81-.49 90.81-.49 136.58 0" style="fill:#fff;stroke-linecap:round;stroke-linejoin:round;stroke:#263238"/>
            <path data-name="Path 21304" d="M109.59 400.49c24.41-.49 48.41-.49 72.13 0" style="fill:#fff;stroke-linecap:round;stroke-linejoin:round;stroke:#263238"/>
        </g>
        <g>
            <path data-name="Path 21305" d="M306.11 270.05a36.73 36.73 0 0 1-12.36.8l-1.43-.19c-5.25-.79-5.38-6.29-9.29-27.36-1.12-6 2.91-13.85.58-22.88-.49-1.91 2.63-16.22 6.91-20.85 13.93-15.06 45.94-12.23 51.34 8 7.92 29.57-12.2 56.96-35.75 62.48z" style="fill:#fff;stroke-linecap:round;stroke-linejoin:round;stroke:#263238" transform="translate(-41.654 -29.116)"/>
            <path data-name="Path 21306" d="M298.37 259.26c-.31 3.21-8.6 9.27-6.05 11.4" style="fill:none;stroke-linecap:round;stroke-linejoin:round;stroke:#263238" transform="translate(-41.654 -29.116)"/>
            <path data-name="Path 21307" d="M306.11 270.05a36.73 36.73 0 0 1-12.36.8 24.17 24.17 0 0 0 8.73-6z" style="fill:#263238" transform="translate(-41.654 -29.116)"/>
            <path data-name="Path 21308" d="M153.77 359.75a11 11 0 0 0 0 4.3 1.36 1.36 0 0 0 2.64 0 22.621 22.621 0 0 1 2.11-4.3" style="fill:#fff;stroke-linecap:round;stroke-linejoin:round;stroke:#263238" transform="translate(-41.654 -29.116)"/>
            <path data-name="Path 21309" d="M237.89 363.46s-46.17-10.63-49.73-10.28-19.71-12.86-21.87-12.71-10.29 6.36-10.29 6.36L146.72 358l-2.6 6.51s1.33 3.33 5.34-1.4l6.57-3.39s11.62 10.68 23.43 8.9c0 0 49.36 28.34 58.7 27.36s40.91-32.87 40.91-32.87z" style="fill:#fff;stroke-linecap:round;stroke-linejoin:round;stroke:#263238" transform="translate(-41.654 -29.116)"/>
            <path data-name="Path 21310" d="M301.55 266.9c2.86 2 6.29 10.28 3.3 19.46l37.54-2.87s-9.65-15.39-11.95-29.24-19.63-3.69-19.63-3.69" style="fill:#fff;stroke-linecap:round;stroke-linejoin:round;stroke:#263238" transform="translate(-41.654 -29.116)"/>
            <path data-name="Path 21311" d="M350.43 215.1c-3.57-21.38-18-28.88-32.5-28.32l-5.68-.75c-22-2.91-32.61 6.49-34.37 15.36-1.28 6.4 1.48 15.3 14 19.48a11.5 11.5 0 0 1-2-8.8 29.619 29.619 0 0 0 2.4 5c4.19 7.08 4.93 10.53 5.38 13.11l1.13 1.11c.55-3 2-7 5.68-4.07 6.66 5.35 3.62 18.76.77 22.89 0 0 6.06 14.42 25.43 11.39-.01.03 23.33-25.02 19.76-46.4z" style="fill:#263238" transform="translate(-41.654 -29.116)"/>
            <path data-name="Path 21312" d="M300.88 233.09s-1.69-9.21 1.2-8.69 4.71 10.17 3.62 15.76-3.61 10.84-5.63 9 1-4.49 1-4.49" style="fill:#fff;stroke-linecap:round;stroke-linejoin:round;stroke:#263238" transform="translate(-41.654 -29.116)"/>
            <path data-name="Path 21313" d="M404 387.86c-20.28 23.59-48.23 40.06-79 49.59a191.583 191.583 0 0 1-19.4 5q-2.64.55-5.3 1-5.49 1-11 1.76c-1.84-22.11-6.67-45-10.54-66.3-.81-4.49-1.58-8.92-2.28-13.25-.13-.86-.27-1.72-.4-2.57-1.25-8.16-2.19-16-2.58-23.32-1.1-21.33 2.53-38.61 17-48.29a43.581 43.581 0 0 1 11-5.19c.18-.16 1.65-1.36 4-3 6.27-4.22 18.93-11.26 31.56-9.54.57.08 1.14.17 1.71.29a26.23 26.23 0 0 1 6.8 2.37 77.38 77.38 0 0 1 19.4 6.23c6.78 3.26 13.78 8.07 18.22 15 6.99 10.87 15.45 57.21 20.81 90.22z" style="fill:#999" transform="translate(-41.654 -29.116)"/>
            <g data-name="Group 21137" style="clip-path:url(#p3gq3hq5cc)" transform="translate(-41.654 -29.116)">
                <path data-name="Path 21314" d="M312.34 344.19s-5.87 31.86-17 41.49c0 0-4.55 10-12.92 13.14-1.24-6.71-2.51-13.35-3.69-19.84-.81-4.49-1.58-8.92-2.28-13.25-.13-.86-.27-1.72-.4-2.57s-.27-1.75-.39-2.62z" style="fill:rgba(0,0,0,.7);opacity:.3"/>
                <path data-name="Path 21315" d="M404 387.86c-20.28 23.59-48.23 40.06-79 49.59a191.583 191.583 0 0 1-19.4 5q-2.64.55-5.3 1c-1.59.3-3.18.57-4.78.83 1.62-18.25 4.84-44.86 10.08-48.31 0 0 4.1-29 8.44-43.73 8.55-29.06-4.33-57.55 21.22-69.66a81.239 81.239 0 0 1-22.76-.48c4.49-3.45 14.36-6.43 24.23-8.39l.43.05c.57.08 1.14.17 1.71.29a26.232 26.232 0 0 1 6.8 2.37 77.38 77.38 0 0 1 19.4 6.23c6.78 3.26 13.78 8.07 18.22 15 6.89 10.86 15.35 57.2 20.71 90.21z" style="fill:rgba(0,0,0,.7);opacity:.3"/>
            </g>
            <path data-name="Path 21317" d="M404 387.86c-20.28 23.59-48.23 40.06-79 49.59a191.583 191.583 0 0 1-19.4 5q-2.64.55-5.3 1-5.49 1-11 1.76c-1.84-22.11-6.67-45-10.54-66.3-.81-4.49-1.58-8.92-2.28-13.25-.13-.86-.27-1.72-.4-2.57-1.25-8.16-2.19-16-2.58-23.32-1.1-21.33 2.53-38.61 17-48.29a43.581 43.581 0 0 1 11-5.19h0c.18-.16 1.65-1.36 4-3 6.27-4.22 18.93-11.26 31.56-9.54.57.08 1.14.17 1.71.29a26.23 26.23 0 0 1 6.8 2.37 77.38 77.38 0 0 1 19.4 6.23c6.78 3.26 13.78 8.07 18.22 15 6.99 10.87 15.45 57.21 20.81 90.22z" style="fill:none;stroke-linecap:round;stroke-linejoin:round;stroke:#263238" transform="translate(-41.654 -29.116)"/>
            <path data-name="Path 21318" d="M290.28 291.26c-24.22 5.75-31.52 35.47-43.21 44.35a75.529 75.529 0 0 0-18.09 20s-10.4 1.74-10.4 5.52-3.46 24.46 17.37 30.35 26.89-2.64 26.89-2.64 35.5-21.07 42-29.81a43.82 43.82 0 0 0 5.72-43.78" style="fill:#999" transform="translate(-41.654 -29.116)"/>
            <g data-name="Group 21138" style="clip-path:url(#4fovpsptsd)" transform="translate(-41.654 -29.116)">
                <path data-name="Path 21319" d="M256.31 383.77c-32.33 4.93-34.15-16.06-33.13-26.57a34.757 34.757 0 0 1 5.8-1.56s.32-.56 1-1.52c-3.49 16.95 26.33 29.65 26.33 29.65z" style="fill:rgba(0,0,0,.7);opacity:.3"/>
            </g>
            <path data-name="Path 21321" d="M290.28 291.26c-24.22 5.75-31.52 35.47-43.21 44.35a75.529 75.529 0 0 0-18.09 20s-10.4 1.74-10.4 5.52-3.46 24.46 17.37 30.35 26.89-2.64 26.89-2.64 35.5-21.07 42-29.81a43.82 43.82 0 0 0 5.72-43.78" style="fill:none;stroke-linecap:round;stroke-linejoin:round;stroke:#263238" transform="translate(-41.654 -29.116)"/>
            <path data-name="Path 21322" d="M155.35 356.58s-.53-3.69 0-5.14 3-1.06 3.3-2.64 1.58-4.61 3.3-4.61 3.16-1.77 3.16-1.77" style="fill:none;stroke-linecap:round;stroke-linejoin:round;stroke:#263238" transform="translate(-41.654 -29.116)"/>
            <path data-name="Path 21323" d="M146.72 358s5.65-4 7.05-4.88" style="fill:none;stroke-linecap:round;stroke-linejoin:round;stroke:#263238" transform="translate(-41.654 -29.116)"/>
            <path data-name="Path 21324" d="M307 336.27s-43.35 10.39-56.48-4" style="fill:none;stroke-linecap:round;stroke-linejoin:round;stroke:#263238" transform="translate(-41.654 -29.116)"/>
            <path data-name="Path 21325" d="M229 355.64s-3.87 13 6 21 22.55 7.15 22.55 7.15" style="fill:none;stroke-linecap:round;stroke-linejoin:round;stroke:#263238" transform="translate(-41.654 -29.116)"/>
            <path data-name="Path 21326" d="M301.55 286.36s27.91-12.25 44.13-9.87" style="fill:none;stroke-linecap:round;stroke-linejoin:round;stroke:#263238" transform="translate(-41.654 -29.116)"/>
            <path data-name="Path 21327" d="M318.47 344.19s-7.72 19.29-24.23 24.18" style="fill:none;stroke-linecap:round;stroke-linejoin:round;stroke:#263238" transform="translate(-41.654 -29.116)"/>
            <path data-name="Path 21328" d="M286.76 373.66s11.93 25.12 39.43 29.47" style="fill:none;stroke-linecap:round;stroke-linejoin:round;stroke:#263238" transform="translate(-41.654 -29.116)"/>
            <path data-name="Path 21329" d="M305.6 442.47c-.43-4.93-1-11-1.7-16.82h0c-1.06-9-2.33-17.46-3.63-20.13-3.16-6.53-2.51-17.11-2.51-17.11-4.49-6-3.52-17.81-3.52-17.81" style="fill:none;stroke-linecap:round;stroke-linejoin:round;stroke:#263238" transform="translate(-41.654 -29.116)"/>
            <g data-name="Group 21139" style="opacity:.4">
                <path data-name="Path 21330" d="M321.09 221a31.071 31.071 0 0 0 6.23 1.49" style="stroke:#fff;fill:none;stroke-linecap:round;stroke-linejoin:round" transform="translate(-41.654 -29.116)"/>
                <path data-name="Path 21331" d="M299.63 188.41c-6.06 2.6-8.81 10.37-5.31 15.73 5.3 7.54 14 11.39 22.36 15.25" style="stroke:#fff;fill:none;stroke-linecap:round;stroke-linejoin:round" transform="translate(-41.654 -29.116)"/>
                <path data-name="Path 21332" d="M290.43 190.78c-8.84 4.17-11.53 12.69-4.86 20.35" style="stroke:#fff;fill:none;stroke-linecap:round;stroke-linejoin:round" transform="translate(-41.654 -29.116)"/>
                <path data-name="Path 21333" d="M341 220.82a18.361 18.361 0 0 1 2.43 4.06" style="stroke:#fff;fill:none;stroke-linecap:round;stroke-linejoin:round" transform="translate(-41.654 -29.116)"/>
                <path data-name="Path 21334" d="M319.62 192.19c-3.85 12.91 12.48 18.74 19.34 26.17" style="stroke:#fff;fill:none;stroke-linecap:round;stroke-linejoin:round" transform="translate(-41.654 -29.116)"/>
            </g>
            <path data-name="Path 21335" d="M452.58 272c-.18 1.29-.36 2.57-.56 3.86C446.08 315 430.31 353.4 409.56 381q-2.67 3.56-5.57 6.91c-20.28 23.59-48.23 40.06-79 49.59a191.583 191.583 0 0 1-19.4 5q-2.64.55-5.3 1c1.05-5.18 2.26-11.22 3.6-17.87 1.73-8.62 3.66-18.25 5.67-28.29 8.82-44.11 19.16-96.22 20.77-106.09a43.281 43.281 0 0 1 1.67-7 22.39 22.39 0 0 1 4.43-7.86c.42-.46.86-.91 1.33-1.35s.73-.64 1.11-.95c7-5.58 19.4-8 41.86-7.67 38.72.61 60.63-6.93 71.59 5.24a3.921 3.921 0 0 1 .26.34z" style="fill:#007bc0" transform="translate(-41.654 -29.116)"/>
            <g data-name="Group 21140" style="clip-path:url(#gimhjrdvse)" transform="translate(-41.654 -29.116)">
                <path data-name="Path 21336" d="M452 275.87C446.08 315 430.31 353.4 409.56 381q-2.67 3.56-5.57 6.91c-20.28 23.59-48.23 40.06-79 49.59 7.83-33.56 28.37-121.93 30.92-137.34 1.67-10 4.64-15 9.16-17.39 4.08-2.18 9.41-2.31 16.16-2.28 10.4-.01 46.63-5.67 70.77-4.62z" style="fill:rgba(0,0,0,.7);opacity:.3"/>
            </g>
            <path data-name="Path 21338" d="M452.58 272c-.18 1.29-.36 2.57-.56 3.86C446.08 315 430.31 353.4 409.56 381q-2.67 3.56-5.57 6.91c-20.28 23.59-48.23 40.06-79 49.59a191.583 191.583 0 0 1-19.4 5q-2.64.55-5.3 1c1.05-5.18 2.26-11.22 3.6-17.87h0c1.73-8.62 3.66-18.25 5.67-28.29 8.82-44.11 19.16-96.22 20.77-106.09a43.281 43.281 0 0 1 1.67-7 22.39 22.39 0 0 1 4.43-7.86c.42-.46.86-.91 1.33-1.35s.73-.64 1.11-.95c7-5.58 19.4-8 41.86-7.67 38.72.61 60.63-6.93 71.59 5.24a3.921 3.921 0 0 1 .26.34z" style="fill:none;stroke-linecap:round;stroke-linejoin:round;stroke:#263238" transform="translate(-41.654 -29.116)"/>
            <path data-name="Path 21339" d="M434.88 275.92c3.65-.15 7.31-.23 11-.2" style="fill:none;stroke-linecap:round;stroke-linejoin:round;stroke:#263238" transform="translate(-41.654 -29.116)"/>
            <path data-name="Path 21340" d="m428 276.3 3.42-.21" style="fill:none;stroke-linecap:round;stroke-linejoin:round;stroke:#263238" transform="translate(-41.654 -29.116)"/>
            <path data-name="Path 21341" d="M338.13 381c5.35-22.49 10.82-45 15-67.71 1.53-8.28 1.92-18.1 6.72-25.33 5.71-8.61 16-7.3 25-7.7 13-.58 26-2.64 39-3.66" style="fill:none;stroke-linecap:round;stroke-linejoin:round;stroke:#263238" transform="translate(-41.654 -29.116)"/>
            <path data-name="Path 21342" d="M336.09 389.67c.36-1.56.72-3.11 1.09-4.67" style="fill:none;stroke-linecap:round;stroke-linejoin:round;stroke:#263238" transform="translate(-41.654 -29.116)"/>
            <path data-name="Path 21343" d="M325 437.45q4.42-18.94 8.8-37.89" style="fill:none;stroke-linecap:round;stroke-linejoin:round;stroke:#263238" transform="translate(-41.654 -29.116)"/>
        </g>
    </g>
</svg>
