<svg xmlns="http://www.w3.org/2000/svg" width="425.39" height="383.862" viewBox="0 0 425.39 383.862">
    <defs>
        <clipPath id="lrmafsgo5a">
            <path data-name="Path 21801" d="M284.61 219s-1.65 5.91-1 8 3.17 4.54 2.66 7-3.27 5.42-3 7.36 3.52 2.88 3.52 2.88 4.63 8.92 6 12 2.35 2.2 5.41 2 10.37-4.34 14.73-7.76 1.09-17.24-4.76-27.26-17.4-12.22-20.38-10.28-3.18 6.06-3.18 6.06z" style="fill:none"/>
        </clipPath>
        <clipPath id="cj9gunzk4b">
            <path data-name="Path 21808" d="M306.17 256.36s4.4 1.35 3.73 5.08-1.36 7.11-1.36 7.11 24 .68 23.71-.68-7.11-24.38-7.11-24.38-12.87-.68-18.97 12.87z" style="stroke-linecap:round;stroke-linejoin:round;stroke:#263238;fill:#fff"/>
        </clipPath>
        <clipPath id="v5i95uk3qc">
            <path data-name="Path 21817" d="M283.82 272.61c-7 4.43-4.93 9.26-3.24 17.65 3.82 18.91 8.94 55.45 7 64.65-2.28 10.76-8.69 17.62-17.5 17.62-4.09 0-5.05 3.93-9.48 2-9.48-4.07-16.62-1.1-20 1.69-13.89 11.52 3.66 52.2 24 62 18.2 8.73 37.71 3 47.32-.89 3.44-1.4 7.09-.74 10.69.18 18.88 4.77 34.12-11.48 35.81-26 2.6-22.36-4.4-23.37-7.92-48.09a60.186 60.186 0 0 1-.33-8.13c-.11-17.1 6.78-33 5.07-58.93-.68-10.23-2.29-23.35-9.14-27.09-28.7-15.72-62.05 3.2-62.28 3.34z" style="fill:#007bc0;stroke-linecap:round;stroke-linejoin:round;stroke:#263238"/>
        </clipPath>
        <clipPath id="2v48n5w4yd">
            <path data-name="Path 21822" d="M248.33 352.65s-7.07-4.53-8.94-4.35-4.35 1.6-5 1.66-2.39-.24-3.5.57a12 12 0 0 0-2.13 2.36 28.931 28.931 0 0 0-3.35 2.21c-1.76 1.35-5.69 7.17-6.28 8.42s.18 1.87 1.28 1.06c.81-.61 4.19-3.78 5.91-5.4a2.2 2.2 0 0 1 2.32-.45c1.89.74 5.27 2.13 6.36 3.06a12.8 12.8 0 0 0 6.71 3.1 37.429 37.429 0 0 0 7.1 0s3.84-4.86 2.77-8.07a6.7 6.7 0 0 0-3.25-4.17z" style="stroke-linecap:round;stroke-linejoin:round;stroke:#263238;fill:#fff"/>
        </clipPath>
        <clipPath id="6sjx9kd4me">
            <path data-name="Path 21827" d="M299 292.71c-.45-6.81-6.75-20.07-13.48-21.2a31.594 31.594 0 0 0-4.41 2.94c-2.56 2.05-3.33 6.14-3.56 14.76s1.36 28.45.34 46.74c0 .34-25.51 14.11-29.93 16.25s-7.28 6.17-4.77 10.4c2.23 3.75 7 2.94 11.33 2.36 5.81-.77 33-6.45 37.94-11.51 9.78-10.16 6.54-60.74 6.54-60.74z" style="stroke-linecap:round;stroke-linejoin:round;stroke:#263238;fill:#fff"/>
        </clipPath>
        <clipPath id="uxdinhqu7f">
            <path data-name="Path 21833" d="M249.83 351.36s.1 1-4-1.7c-3.9-2.54-14.06 6.78-10.15 13.14l.33 1.09c.44 1.48 3.28.52 4.74 1a11.37 11.37 0 0 0 5.59.5c3.06-.32-5.4-5.39 3.49-14.03z" style="stroke-linecap:round;stroke-linejoin:round;stroke:#263238;fill:#fff"/>
        </clipPath>
    </defs>
    <g data-name="Group 21109">
        <path data-name="Path 21713" d="M450.92 247.75C407.08 149.38 256.31 66 165.42 78.8c-39.54 5.58-94.1 41.71-119.77 112.28-16.87 46.4-74.85 219.21 187.13 209.58s218.14-152.91 218.14-152.91z" style="fill:#007bc0" transform="translate(-28.287 -63.857)"/>
        <path data-name="Path 21714" d="M232.78 400.66c-262 9.63-204-163.18-187.13-209.58C71.32 120.5 125.88 84.38 165.42 78.8c32.37-4.57 72.33 3.07 112.36 19.24a379.789 379.789 0 0 1 41 19.56c57.35 31.63 109.28 78.86 132.14 130.15 0 0 43.84 143.25-218.14 152.91z" style="opacity:.7;fill:#fff" transform="translate(-28.287 -63.857)"/>
        <g transform="translate(67.013 340.163)">
            <ellipse data-name="Ellipse 531" cx="160.54" cy="21.85" rx="160.54" ry="21.85" style="fill:#007bc0"/>
            <ellipse data-name="Ellipse 532" cx="160.54" cy="21.85" rx="160.54" ry="21.85" style="opacity:.5;fill:#fff"/>
        </g>
        <path data-name="Path 21715" d="M98.92 360.05c-.09.15.69.88-1.87 1-6.32.28-17.49-.11-21.7-5.84-6-8.18 7.8-7.47 6.45-12s-16.18-.78-19.1-7.22 7.88-5.22 7.37-8.54-11.82 1-15.57-5.82 6.15-3.2 4.54-6-14.2-14.6-9.12-17.25 16.91 9.65 20.8 11 4.76-10.79 9.89-6.76 1.82 22.29 7.79 24.54c4.45 1.67 2-4.86 7.49-4.62 7.44.25 9.97 25.83 3.03 37.51z" style="fill:#007bc0" transform="translate(-28.287 -63.857)"/>
        <g data-name="Group 21171" style="opacity:.1">
            <path data-name="Path 21716" d="M70.633 296.193c-.09.15.69.88-1.87 1-6.32.28-17.49-.11-21.7-5.84-6-8.18 7.8-7.47 6.45-12s-16.18-.78-19.1-7.22 7.88-5.22 7.37-8.54-11.82 1-15.57-5.82 6.15-3.2 4.54-6-14.2-14.6-9.12-17.25 16.91 9.65 20.8 11 4.76-10.79 9.89-6.76 1.82 22.29 7.79 24.54c4.45 1.67 2-4.86 7.49-4.62 7.44.25 9.97 25.83 3.03 37.51z"/>
        </g>
        <path data-name="Path 21717" d="M117.53 361.08c5.09 1.05 14.69-2.08 19-6.06s-6-2.94-4.28-6.43 13.23 1.46 16.43-3.39-5.71-5.26-4.87-7.89 9.75-.41 13.68-5.47-4.57-3.39-2.9-5.48 13.42-10 9.64-12.82-15 5.64-18.31 6.19-2.75-6.6-7.43-4-4.37 17.85-9.51 18.9c-3.83.78-1.07-5.66-5.48-4.72-7.75 1.65-8.04 30.75-5.97 31.17z" style="fill:#007bc0" transform="translate(-28.287 -63.857)"/>
        <path data-name="Path 21718" d="M150.23 322.29s-30.11 20.25-38.5 57.31" style="stroke-linecap:round;stroke-linejoin:round;stroke:#263238;fill:none" transform="translate(-28.287 -63.857)"/>
        <path data-name="Path 21719" d="M148.7 334a27.13 27.13 0 0 0-11.07.15h0" style="stroke-linecap:round;stroke-linejoin:round;stroke:#263238;fill:none" transform="translate(-28.287 -63.857)"/>
        <path data-name="Path 21720" d="M141.6 319a35.81 35.81 0 0 0-8.43 19.24" style="stroke-linecap:round;stroke-linejoin:round;stroke:#263238;fill:none" transform="translate(-28.287 -63.857)"/>
        <path data-name="Path 21721" d="M128.34 343.82a11.49 11.49 0 0 1 11-.67" style="stroke-linecap:round;stroke-linejoin:round;stroke:#263238;fill:none" transform="translate(-28.287 -63.857)"/>
        <path data-name="Path 21722" d="M121.78 353.33a27.31 27.31 0 0 1 .22-13.93" style="stroke-linecap:round;stroke-linejoin:round;stroke:#263238;fill:none" transform="translate(-28.287 -63.857)"/>
        <path data-name="Path 21723" d="M109.23 358.29c6.09-1.68 14.78-10.36 17.23-17s-8.1.1-8.19-4.61 15.15-5.72 16-12.74-9.1-2.55-9.63-5.87 10.34-5.82 11.81-13.47-6.83-1.16-6.17-4.35 9-18.26 3.39-19.22-13.13 14.38-16.44 16.82-6.63-5.65-10.27-.24 5.11 21.78.12 25.75c-3.72 3-4.28-5.55-8.55-2.1-7.53 5.99 8.22 37.74 10.7 37.03z" style="fill:#007bc0" transform="translate(-28.287 -63.857)"/>
        <g data-name="Group 21172" style="opacity:.2">
            <path data-name="Path 21724" d="M109.23 358.29c6.09-1.68 14.78-10.36 17.23-17s-8.1.1-8.19-4.61 15.15-5.72 16-12.74-9.1-2.55-9.63-5.87 10.34-5.82 11.81-13.47-6.83-1.16-6.17-4.35 9-18.26 3.39-19.22-13.13 14.38-16.44 16.82-6.63-5.65-10.27-.24 5.11 21.78.12 25.75c-3.72 3-4.28-5.55-8.55-2.1-7.53 5.99 8.22 37.74 10.7 37.03z" style="fill:#fff" transform="translate(-28.287 -63.857)"/>
        </g>
        <path data-name="Path 21725" d="M113.82 430.93c-.34.08-11.86.08-12.19 0-8.46-1.85-38.47-11.71-11.42-43.65h34.63c27.04 31.92-2.57 41.8-11.02 43.65z" style="stroke-miterlimit:10;stroke:#263238;fill:#fff" transform="translate(-28.287 -63.857)"/>
        <path data-name="Path 21726" d="M73.83 322.52S98.35 339.26 103.7 382" style="stroke-linecap:round;stroke-linejoin:round;stroke:#263238;fill:none" transform="translate(-28.287 -63.857)"/>
        <path data-name="Path 21727" d="M70.09 327.75c5.92-1.27 9.54-.1 9.54-.1" style="stroke-linecap:round;stroke-linejoin:round;stroke:#263238;fill:none" transform="translate(-28.287 -63.857)"/>
        <path data-name="Path 21728" d="M76.8 310.11s7.44 9.84 7.36 22.68" style="stroke-linecap:round;stroke-linejoin:round;stroke:#263238;fill:none" transform="translate(-28.287 -63.857)"/>
        <path data-name="Path 21729" d="M91.46 343.62s-5.3-5-12.33-2.43" style="stroke-linecap:round;stroke-linejoin:round;stroke:#263238;fill:none" transform="translate(-28.287 -63.857)"/>
        <path data-name="Path 21730" d="M95.29 351.19a30.75 30.75 0 0 0 1.25-15.69" style="stroke-linecap:round;stroke-linejoin:round;stroke:#263238;fill:none" transform="translate(-28.287 -63.857)"/>
        <path data-name="Path 21731" d="M123.47 303.11s-20.47 28.66-13.72 80.82" style="stroke-linecap:round;stroke-linejoin:round;stroke:#263238;fill:none" transform="translate(-28.287 -63.857)"/>
        <path data-name="Path 21732" d="M135.45 307.2c-10.73 0-16.39 4.12-16.73 4.38h0" style="stroke-linecap:round;stroke-linejoin:round;stroke:#263238;fill:none" transform="translate(-28.287 -63.857)"/>
        <path data-name="Path 21733" d="M115.4 319.55a49.13 49.13 0 0 1-1.8-22.07" style="stroke-linecap:round;stroke-linejoin:round;stroke:#263238;fill:none" transform="translate(-28.287 -63.857)"/>
        <path data-name="Path 21734" d="M111.07 335.36s4.26-8.1 13.45-8.18" style="stroke-linecap:round;stroke-linejoin:round;stroke:#263238;fill:none" transform="translate(-28.287 -63.857)"/>
        <path data-name="Path 21735" d="M109.54 345.83s-5.74-6.4-7.53-17.75" style="stroke-linecap:round;stroke-linejoin:round;stroke:#263238;fill:none" transform="translate(-28.287 -63.857)"/>
        <path data-name="Path 21736" d="M89.47 387.29h36.39l2.21-10.31h-40.8z" style="stroke-miterlimit:10;stroke:#263238;fill:#fff" transform="translate(-28.287 -63.857)"/>
        <path data-name="Path 21737" d="M128.06 400.1a23 23 0 0 1 2.09 11.55c-.23 2.82-1.27 5.94-3.85 7.11" style="stroke-linecap:round;stroke-linejoin:round;stroke:#263238;fill:none" transform="translate(-28.287 -63.857)"/>
        <path data-name="Path 21738" d="M124 394a22.448 22.448 0 0 1 2.43 3.07" style="stroke-linecap:round;stroke-linejoin:round;stroke:#263238;fill:none" transform="translate(-28.287 -63.857)"/>
        <g>
            <path data-name="Path 21739" d="M247.52 315.58h-71.4l13.17 53.7h71.41z" style="fill:#263238;stroke-linecap:round;stroke-linejoin:round;stroke:#263238" transform="translate(-28.287 -63.857)"/>
            <path data-name="Path 21740" d="M244.14 318.69h-63.12l11.66 47.47h63.11z" style="stroke-linecap:round;stroke-linejoin:round;stroke:#263238;fill:#fff" transform="translate(-28.287 -63.857)"/>
            <path data-name="Path 21741" d="M244.14 318.69h-63.12l1.1 4.44h63.11z" style="fill:#007bc0;stroke-linecap:round;stroke-linejoin:round;stroke:#263238" transform="translate(-28.287 -63.857)"/>
            <path data-name="Rectangle 5571" transform="translate(159.873 300.623)" style="stroke-linecap:round;stroke-linejoin:round;stroke:#263238;fill:#fff" d="M0 0h104.53v4.8H0z"/>
            <path data-name="Rectangle 5572" transform="translate(207.193 300.623)" style="fill:#263238;stroke-linecap:round;stroke-linejoin:round;stroke:#263238" d="M0 0h57.23v4.8H0z"/>
            <path data-name="Path 21742" d="m236.91 340.71.72 3.01H190.4l-.72-3.01z" style="fill:#007bc0" transform="translate(-28.287 -63.857)"/>
            <path data-name="Path 21743" d="M247.77 345.2h-57.39l-1.42-6h57.39zm-56.83-.69h56l-1.1-4.65h-56z" style="fill:#263238" transform="translate(-28.287 -63.857)"/>
            <path data-name="Path 21744" d="M220.68 336.47h-6.98l-1.74-6.98h1.99l.15.59h-1.4l1.44 5.8h5.8l-1.45-5.8h-1.43l-.15-.59h2.03z" style="stroke:#007bc0;stroke-width:.2px;stroke-miterlimit:10;fill:#007bc0" transform="translate(-28.287 -63.857)"/>
            <path data-name="Path 21745" d="M216.62 332.98h-.59l-1.66-6.67h.59z" style="stroke:#007bc0;stroke-width:.2px;stroke-miterlimit:10;fill:#007bc0" transform="translate(-28.287 -63.857)"/>
            <path data-name="Path 21746" d="m216.42 333.32-2.5-1.15.14-.52 2.17.99 1.58-1.1.43.51z" style="stroke:#007bc0;stroke-width:.2px;stroke-miterlimit:10;fill:#007bc0" transform="translate(-28.287 -63.857)"/>
        </g>
        <g transform="translate(-28.287 -63.857)">
            <path data-name="Path 21747" d="m364.71 163.81-30.73 83.55h4.4l30.03-81.64z" style="stroke-linecap:round;stroke-linejoin:round;stroke:#263238;fill:none"/>
            <path data-name="Path 21748" d="m369.58 149.46-56-61.94a4.341 4.341 0 0 1-.06.62 4.85 4.85 0 0 1-1.38 2.53 23.15 23.15 0 0 1 6.13 7.88l46.08 51 .59-4.9z" style="stroke-linecap:round;stroke-linejoin:round;stroke:#263238;fill:none"/>
            <path data-name="Path 21749" d="m308.4 88.17.56.34 3.21 1.49-.29.53.22.17a4.85 4.85 0 0 0 1.38-2.53 4.35 4.35 0 0 0 .06-.62 4.85 4.85 0 0 0-9.6-1.31l.62.28a23.18 23.18 0 0 1 3.84 1.65z" style="stroke-miterlimit:10;fill:#007bc0;stroke:#263238"/>
            <path data-name="Path 21750" d="M327.92 247.36v23.83h14.09v-8.34h-11.03v-7.8h11.03v-7.69h-14.09z" style="stroke-linecap:round;stroke-linejoin:round;stroke:#263238;fill:none"/>
            <path data-name="Path 21751" d="m304.56 86.49-.62-.28-.05.06z" style="stroke-linecap:round;stroke-linejoin:round;stroke:#263238;fill:none"/>
            <path data-name="Path 21752" d="M309 88.52a24.43 24.43 0 0 1 2.88 2l.29-.53z" style="stroke-linecap:round;stroke-linejoin:round;stroke:#263238;fill:none"/>
            <path data-name="Path 21753" d="m368.76 165.9 5.65-11.45-4.83-4.99-4.68-4.84-.59 4.9-1.58 13.27 1.98 1.02 3.7 1.91z" style="stroke-linecap:round;stroke-linejoin:round;stroke:#263238;fill:none"/>
            <path data-name="Path 21754" d="M288.4 110.43a10.92 10.92 0 0 0 19.2 1.24q-9.74-5-19.58-9.31a10.93 10.93 0 0 0 .38 8.07z" style="stroke-miterlimit:10;stroke:#263238;fill:#fff"/>
            <path data-name="Path 21755" d="m312.1 90.67-.22-.17a24.43 24.43 0 0 0-2.88-2l-.56-.34a23.18 23.18 0 0 0-3.84-1.68l-.67-.22a23.37 23.37 0 0 0-27.26 11.14l1.12.62q5.13 2.07 10.24 4.32 9.83 4.33 19.58 9.31 5.61 2.86 11.18 5.93a23.47 23.47 0 0 0-6.68-26.93z" style="stroke-miterlimit:10;fill:#007bc0;stroke:#263238"/>
            <path data-name="Rectangle 5573" transform="translate(328.66 256.02)" style="fill:#bfbfbf;stroke-linecap:round;stroke-linejoin:round;stroke:#263238" d="M0 0h114.81v152.41H0z"/>
            <path data-name="Rectangle 5574" transform="translate(341.86 269.23)" style="fill:#757575;stroke-linecap:round;stroke-linejoin:round;stroke:#263238" d="M0 0h86.36v29.47H0z"/>
            <path data-name="Rectangle 5575" transform="translate(341.86 307.84)" style="fill:#757575;stroke-linecap:round;stroke-linejoin:round;stroke:#263238" d="M0 0h86.36v85.35H0z"/>
            <path data-name="Rectangle 5576" transform="translate(320.53 246.81)" style="fill:#757575;stroke-linecap:round;stroke-linejoin:round;stroke:#263238" d="M0 0h130.38v9.14H0z"/>
            <path data-name="Path 21756" d="M388.94 276.68a3.72 3.72 0 1 1-1.086-2.637 3.73 3.73 0 0 1 1.086 2.637z" style="fill:#bfbfbf;stroke-linecap:round;stroke-linejoin:round;stroke:#263238"/>
            <ellipse data-name="Ellipse 533" cx="5.76" cy="12.53" rx="5.76" ry="12.53" transform="translate(412.65 336.69)" style="fill:#bfbfbf;stroke-linecap:round;stroke-linejoin:round;stroke:#263238"/>
            <path data-name="Path 21757" d="M418.41 367.78h0a3 3 0 0 1-3.05-3v-29.85a3 3 0 0 1 3.05-3.05h0a3 3 0 0 1 3 3.05v29.81a3 3 0 0 1-3 3.04z" style="fill:#bfbfbf;stroke-linecap:round;stroke-linejoin:round;stroke:#263238"/>
            <path data-name="Path 21758" d="m430.11 235.99 8.56-22.27h-1.32l-9.16 22.27z" style="fill:#263238;stroke-miterlimit:10;stroke:#263238"/>
            <path data-name="Path 21759" d="m392.78 235.93-8.56-22.27h1.32l9.15 22.27z" style="fill:#263238;stroke-miterlimit:10;stroke:#263238"/>
            <path data-name="Path 21760" d="m393.13 235.93.43 1h1.28l-.41-1z" style="fill:#263238;stroke-miterlimit:10;stroke:#263238"/>
            <path data-name="Path 21761" d="m429.79 235.93-.44 1h-1.28l.41-1z" style="fill:#263238;stroke-miterlimit:10;stroke:#263238"/>
            <path data-name="Rectangle 5577" transform="translate(390.92 242.75)" style="stroke-miterlimit:10;stroke:#263238;fill:#fff" d="M0 0h5.3v3.3H0z"/>
            <path data-name="Rectangle 5578" transform="translate(426.84 242.75)" style="stroke-miterlimit:10;stroke:#263238;fill:#fff" d="M0 0h5.3v3.3H0z"/>
            <path data-name="Path 21762" d="m434 244.21-11.5 1.25a102 102 0 0 1-22 0l-11.5-1.25v-7.14l9.35-1.21a102.29 102.29 0 0 1 26.28 0l9.34 1.21z" style="fill:#263238;stroke-miterlimit:10;stroke:#263238"/>
            <path data-name="Path 21763" d="M395.7 240.85a2.14 2.14 0 1 1-2.13-2.13 2.14 2.14 0 0 1 2.13 2.13z" style="stroke-miterlimit:10;stroke:#263238;fill:#fff"/>
            <path data-name="Path 21764" d="M405.63 240.86a.68.68 0 1 1-.67-.67.67.67 0 0 1 .67.67z" style="fill:#fff"/>
            <path data-name="Path 21765" d="M410.43 240.86a.67.67 0 1 1-.67-.67.67.67 0 0 1 .67.67z" style="fill:#fff"/>
            <path data-name="Path 21766" d="M415.24 240.86a.68.68 0 1 1-.68-.67.67.67 0 0 1 .68.67z" style="fill:#fff"/>
            <path data-name="Path 21767" d="M420 240.86a.67.67 0 0 1-.67.68.68.68 0 1 1 0-1.35.67.67 0 0 1 .67.67z" style="fill:#fff"/>
            <path data-name="Path 21768" d="M365.91 246.36h3.86a1.11 1.11 0 0 1-.18-.38 33.733 33.733 0 0 1-3.68.38z" style="stroke-miterlimit:10;stroke:#263238;fill:none"/>
            <path data-name="Path 21769" d="M365.91 246.36h3.86a1.11 1.11 0 0 1-.18-.38 33.733 33.733 0 0 1-3.68.38z" style="opacity:.3;stroke-miterlimit:10;stroke:#263238;fill:none"/>
            <path data-name="Path 21770" d="M371.72 244.27c0 .13.24.14.33.26.37.45-.15 1.53-.3 1.83H377l-4-6.89c-.56 2-1.6 3.8-1.28 4.8z" style="stroke-miterlimit:10;stroke:#263238;fill:none"/>
            <path data-name="Path 21771" d="M371.72 244.27c0 .13.24.14.33.26.37.45-.15 1.53-.3 1.83H377l-4-6.89c-.56 2-1.6 3.8-1.28 4.8z" style="opacity:.3;stroke-miterlimit:10;stroke:#263238;fill:none"/>
            <path data-name="Path 21772" d="M372.05 244.53c-.09-.12-.29-.13-.33-.26-.32-1 .72-2.8 1.25-4.8q.11-.41.18-.81c.41-2.32-.2-4.47.56-5.6.3-.45.89-.68 1-1.21s-.42-.77-.56-1.22c-.35-1.13 1-3.28 1.43-5.6s-.19-4.48.56-5.61c.09-.13.29-.14.43-.25.62-.53.34-1.91.34-1.91s-1.29-.53-1.91 0c-.16.13-.21.36-.38.44-1.58.79-4.55-.51-8-.51s-6.89 1.28-8.2.49c-.14-.08-.11-.32-.21-.45-.44-.52-1.91 0-1.91 0s-.77 1.38-.34 1.91c.09.11.29.12.33.26.36 1.13-1 3.28-1.43 5.6s.2 4.47-.56 5.6c-.3.45-.89.68-1 1.22s.42.76.56 1.21c.36 1.13-1 3.28-1.43 5.6s.2 4.48-.56 5.61c-.09.13-.29.14-.43.26-.62.52-.34 1.9-.34 1.9s1.29.53 1.91 0a1.741 1.741 0 0 0 .38-.44 49.681 49.681 0 0 0 8 .51c1.63 0 3.17 0 4.52-.11a33.727 33.727 0 0 0 3.68-.38 1.11 1.11 0 0 0 .18.38v.07c.43.53 1.9 0 1.9 0v-.07c.23-.3.75-1.36.38-1.83zM362 243.47a6.29 6.29 0 0 1-6.33-7.7l1.33-7.45a9.57 9.57 0 0 1 9.05-7.68 6.29 6.29 0 0 1 6.33 7.71l-1.38 7.44a9.56 9.56 0 0 1-9 7.68z" style="stroke-miterlimit:10;stroke:#263238;fill:none"/>
            <path data-name="Path 21773" d="m371 235.79 1.33-7.44a6.29 6.29 0 0 0-6.33-7.71 9.57 9.57 0 0 0-9.05 7.68l-1.33 7.45a6.29 6.29 0 0 0 6.33 7.7 9.56 9.56 0 0 0 9.05-7.68z" style="stroke-miterlimit:10;stroke:#263238;fill:none"/>
        </g>
        <g>
            <path data-name="Path 21774" d="M224.77 118.75A23.15 23.15 0 0 1 203 141.86h-62.7a23.16 23.16 0 0 1-.3-46.17 33.13 33.13 0 0 1 66.18.36 23.16 23.16 0 0 1 18.59 22.7z" style="stroke-miterlimit:10;stroke:#263238;fill:#fff" transform="translate(-28.287 -63.857)"/>
            <path data-name="Path 21775" d="M147.35 86.4a29.6 29.6 0 0 1 27.28-18.1" style="stroke-linecap:round;stroke-linejoin:round;stroke:#263238;fill:none" transform="translate(-28.287 -63.857)"/>
            <path data-name="Path 21776" d="M145.08 96.23a28.622 28.622 0 0 1 .73-5.1" style="stroke-linecap:round;stroke-linejoin:round;stroke:#263238;fill:none" transform="translate(-28.287 -63.857)"/>
            <path data-name="Path 21777" d="M173 254.76c1.53 3.46 3.08 6.85 4.67 10.14" style="stroke-linecap:round;stroke-linejoin:round;stroke:#263238;fill:none" transform="translate(-28.287 -63.857)"/>
            <path data-name="Path 21778" d="M139.91 156.66s12 47 29.1 88.72" style="stroke-linecap:round;stroke-linejoin:round;stroke:#263238;fill:none" transform="translate(-28.287 -63.857)"/>
            <path data-name="Path 21779" d="M207.28 191.65c.08 1.8.07 3.13.18 4.74" style="stroke-linecap:round;stroke-linejoin:round;stroke:#263238;fill:none" transform="translate(-28.287 -63.857)"/>
            <path data-name="Path 21780" d="M207.28 148.44c-.09.85-.74 21.76-.26 38.62" style="stroke-linecap:round;stroke-linejoin:round;stroke:#263238;fill:none" transform="translate(-28.287 -63.857)"/>
            <path data-name="Path 21781" d="M236.28 287.13 215 319.58l-40.78-30.15 20.32-.75-1.3-3.17a685.112 685.112 0 0 1-41.85-146l-4.08-24 50.07-.52-.24 7.57a684.651 684.651 0 0 0 20 165.3z" style="stroke-miterlimit:10;fill:#007bc0;stroke:#263238" transform="translate(-28.287 -63.857)"/>
            <path data-name="Path 21782" d="M169.64 116.89h18.6l.06 6.55a358.129 358.129 0 0 0 2.37 38.18h0l-28 1.4-1.45-8.31a163.452 163.452 0 0 1-2.42-24.47h0l10.9-13.32" style="stroke-linecap:round;stroke-linejoin:round;stroke:#263238;fill:#fff" transform="translate(-28.287 -63.857)"/>
            <path data-name="Path 21783" d="m170.85 129.97-11.99.17 10.79-13.22z" style="stroke-linecap:round;stroke-linejoin:round;stroke:#263238;fill:#fff" transform="translate(-28.287 -63.857)"/>
            <path data-name="Path 21786" d="m153.25 222.08 27.14-5.85q-5.05-22.08-8.07-44.55l-30.09 6.49q4.5 22.2 11.02 43.91z" style="stroke-linecap:round;stroke-linejoin:round;stroke:#263238;fill:#fff" transform="translate(-28.287 -63.857)"/>
            <path data-name="Path 21787" d="m175.38 206.83-22 4.75c-2.56-9.45-3.72-14.2-5.8-23.76l23.31-5c1.53 9.64 2.44 14.45 4.49 24.01z" style="fill:#263238;stroke-linecap:round;stroke-linejoin:round;stroke:#263238" transform="translate(-28.287 -63.857)"/>
            <path data-name="Path 21788" d="M166 196.05a536.96 536.96 0 0 0-4 13.67l13.38-2.88c-3.85-4.3-5.73-6.46-9.38-10.79z" style="stroke-linecap:round;stroke-linejoin:round;stroke:#263238;fill:#fff" transform="translate(-28.287 -63.857)"/>
            <path data-name="Path 21789" d="M158 194.84c-2 6.72-2.9 10.07-4.68 16.74l16.34-3.52c-4.75-5.27-7.08-7.91-11.66-13.22z" style="stroke-linecap:round;stroke-linejoin:round;stroke:#263238;fill:#fff" transform="translate(-28.287 -63.857)"/>
            <path data-name="Path 21790" d="M170.2 189.48a2.47 2.47 0 0 1-1.8 2.9 2.31 2.31 0 0 1-2.7-1.92 2.48 2.48 0 0 1 1.8-2.93 2.3 2.3 0 0 1 2.7 1.95z" style="stroke-linecap:round;stroke-linejoin:round;stroke:#263238;fill:#fff" transform="translate(-28.287 -63.857)"/>
            <path data-name="Path 21791" d="m191.66 250.64 30.83 2.36a115.45 115.45 0 0 1-6.15-44.28l-30.05-7.25a127.3 127.3 0 0 0 5.37 49.17z" style="stroke-linecap:round;stroke-linejoin:round;stroke:#263238;fill:#fff" transform="translate(-28.287 -63.857)"/>
            <path data-name="Path 21792" d="M214 230.54c.92 6.71-3.17 11.45-9.92 10.68s-13.53-7.22-14.35-14.52 4.61-12.12 11.26-10.78 12.14 7.92 13.01 14.62z" style="fill:#263238;stroke-linecap:round;stroke-linejoin:round;stroke:#263238" transform="translate(-28.287 -63.857)"/>
            <path data-name="Path 21793" d="M208.93 229.74c-4.88-3.38-7.27-5.12-12-8.71a102.443 102.443 0 0 0 1.66 13.81c4.1-2.14 6.16-3.16 10.34-5.1z" style="stroke-linecap:round;stroke-linejoin:round;stroke:#263238;fill:#fff" transform="translate(-28.287 -63.857)"/>
        </g>
        <g>
            <path data-name="Path 21794" d="M206 370.32c15.69-7.44 74.76 12 74.76 12l-3.76 8.2s-91.26-10.59-71-20.2z" style="fill:#263238;stroke-linecap:round;stroke-linejoin:round;stroke:#263238" transform="translate(-28.287 -63.857)"/>
            <path data-name="Path 21795" d="M276.91 391.25a133.354 133.354 0 0 1-15.22-6.25c-15.8-7.76-46.81-21.32-58.11-14.38-15.45 9.47-5.15 35.65 29.77 52.94s60.88 17.55 69.21 9.45c7.6-7.35-6.3-35.07-25.65-41.76z" style="fill:#263238;stroke-linecap:round;stroke-linejoin:round;stroke:#263238" transform="translate(-28.287 -63.857)"/>
            <path data-name="Path 21796" d="M284.61 219s-1.65 5.91-1 8 3.17 4.54 2.66 7-3.27 5.42-3 7.36 3.52 2.88 3.52 2.88 4.63 8.92 6 12 2.35 2.2 5.41 2 10.37-4.34 14.73-7.76 1.09-17.24-4.76-27.26-17.4-12.22-20.38-10.28-3.18 6.06-3.18 6.06z" style="fill:#fff" transform="translate(-28.287 -63.857)"/>
            <g data-name="Group 21173" style="clip-path:url(#lrmafsgo5a)" transform="translate(-28.287 -63.857)">
                <path data-name="Path 21797" d="M302.19 216.58c-1.91 4.48-4.51 12.31-2.75 18.34 2.65 9.06 5.13 14 1.36 20.27-.68 1.08-1.34 2.06-2 2.91 3.35-.69 10-4.47 14-7.65 4.35-3.42 1.09-17.24-4.76-27.26a22.28 22.28 0 0 0-5.85-6.61z" style="fill:#007bc0"/>
                <path data-name="Path 21798" d="M302.19 216.58c-1.91 4.48-4.51 12.31-2.75 18.34 2.65 9.06 5.13 14 1.36 20.27-.68 1.08-1.34 2.06-2 2.91 3.35-.69 10-4.47 14-7.65 4.35-3.42 1.09-17.24-4.76-27.26a22.28 22.28 0 0 0-5.85-6.61z" style="opacity:.5;fill:#fff"/>
                <path data-name="Path 21799" d="M287.34 228.85s.63-3.11 3.94-.28" style="stroke-linecap:round;stroke-linejoin:round;stroke:#263238;fill:none"/>
                <path data-name="Path 21800" d="M290 234.13c.32 1.06.18 2-.33 2.19s-1.16-.58-1.48-1.64-.18-2 .31-2.17 1.2.57 1.5 1.62z" style="fill:#263238"/>
            </g>
            <path data-name="Path 21802" d="M284.61 219s-1.65 5.91-1 8 3.17 4.54 2.66 7-3.27 5.42-3 7.36 3.52 2.88 3.52 2.88 4.63 8.92 6 12 2.35 2.2 5.41 2 10.37-4.34 14.73-7.76 1.09-17.24-4.76-27.26-17.4-12.22-20.38-10.28-3.18 6.06-3.18 6.06z" style="stroke-linecap:round;stroke-linejoin:round;stroke:#263238;fill:none" transform="translate(-28.287 -63.857)"/>
            <path data-name="Path 21803" d="M286.76 353.36s-6.15-5.71-8-5.87-4.57.81-5.27.75-2.31-.67-3.54-.06a11.841 11.841 0 0 0-2.52 1.94 29.119 29.119 0 0 0-3.68 1.58c-2 1-6.88 6.05-7.68 7.17s-.16 1.88 1.07 1.27 7.93-5 7.93-5 5.64 3.3 6.93 4.87a12.74 12.74 0 0 0 6 4.23 37.591 37.591 0 0 0 7 1.29s4.63-4.1 4.16-7.46a6.76 6.76 0 0 0-2.4-4.71z" style="stroke-linecap:round;stroke-linejoin:round;stroke:#263238;fill:#fff" transform="translate(-28.287 -63.857)"/>
            <path data-name="Path 21804" d="M329.6 275.22a30.579 30.579 0 0 0-4.64 2.57c-2.72 1.83-5.4 5.81-6.33 14.38s-.83 28.89-.93 37.52c-.23 20-26.49 19.81-31.07 21.58s-8.88 6.81-6.73 11.23c1.91 3.93 7.25 4.32 11.61 4.11 5.85-.29 36-1.9 40.44-5.46 6.46-5.18 5-12.35 5.81-20.6 2.59-25 2.93-50.83 2.93-50.83a14.7 14.7 0 0 0-11.09-14.5z" style="stroke-linecap:round;stroke-linejoin:round;stroke:#263238;fill:#fff" transform="translate(-28.287 -63.857)"/>
            <path data-name="Path 21805" d="M306.17 256.36s4.4 1.35 3.73 5.08-1.36 7.11-1.36 7.11 24 .68 23.71-.68-7.11-24.38-7.11-24.38-12.87-.68-18.97 12.87z" style="fill:#fff" transform="translate(-28.287 -63.857)"/>
            <g data-name="Group 21174" style="clip-path:url(#cj9gunzk4b)" transform="translate(-28.287 -63.857)">
                <path data-name="Path 21806" d="m327.59 253.63-17.69 7.81-.31 1.82s14.8-2 19.07-6.06l-1.07-3.57" style="fill:#007bc0"/>
                <path data-name="Path 21807" d="m327.59 253.63-17.69 7.81-.31 1.82s14.8-2 19.07-6.06l-1.07-3.57" style="opacity:.5;fill:#fff"/>
            </g>
            <path data-name="Path 21809" d="M306.17 256.36s4.4 1.35 3.73 5.08-1.36 7.11-1.36 7.11 24 .68 23.71-.68-7.11-24.38-7.11-24.38-12.87-.68-18.97 12.87z" style="stroke-linecap:round;stroke-linejoin:round;stroke:#263238;fill:none" transform="translate(-28.287 -63.857)"/>
            <path data-name="Path 21810" d="M283.82 272.61c-7 4.43-4.93 9.26-3.24 17.65 3.82 18.91 8.94 55.45 7 64.65-2.28 10.76-8.69 17.62-17.5 17.62-4.09 0-5.05 3.93-9.48 2-9.48-4.07-16.62-1.1-20 1.69-13.89 11.52 3.66 52.2 24 62 18.2 8.73 37.71 3 47.32-.89 3.44-1.4 7.09-.74 10.69.18 18.88 4.77 34.12-11.48 35.81-26 2.6-22.36-4.4-23.37-7.92-48.09a60.186 60.186 0 0 1-.33-8.13c-.11-17.1 6.78-33 5.07-58.93-.68-10.23-2.29-23.35-9.14-27.09-28.7-15.72-62.05 3.2-62.28 3.34z" style="fill:#007bc0" transform="translate(-28.287 -63.857)"/>
            <g data-name="Group 21176" style="clip-path:url(#v5i95uk3qc)" transform="translate(-28.287 -63.857)">
                <path data-name="Path 21811" d="m302.58 324.32-4.41 26.48c-.59 3.55-1.25 7.26-3.46 10.09s-6.51 4.4-9.51 2.42c-.28-4 3.12-7.06 5.58-10.18 6.64-8.38 7.45-19.84 7.75-30.53.27-9.89-.38-28.65 10-34.16-1.01 11.93-3.98 24.05-5.95 35.88z" style="opacity:.2"/>
                <path data-name="Path 21812" d="m309.38 365.52.46.6c-.86 1.07-2.36 1.34-3.72 1.56s-2.87.53-3.69 1.63-.19 3.18 1.19 3.07c-1.76.14-14.81-.34-12.62-4.67 1.14-2.23 15.66-1.93 18.38-2.19z" style="opacity:.2"/>
                <path data-name="Path 21813" d="M283 388c.69.6 1.44 1.55.94 2.31s-1.69.46-2.49 0c-3.62-2.08-7-5.73-8.12-9.8 3.11.01 7.34 5.39 9.67 7.49z" style="opacity:.2"/>
                <path data-name="Path 21814" d="M269.47 384.65a13.72 13.72 0 0 0 2 7.11l-3.84-5.12a50.79 50.79 0 0 0 20.7 22.36 16.74 16.74 0 0 1-7.75-9.92c.4 1.41 3.69-.2 3.14-2.08-.5-1.66-2.73-1.13-4.05-1.7-4.48-1.88-7.59-6.77-10.2-10.65z" style="opacity:.2"/>
                <g data-name="Group 21175" style="opacity:.2">
                    <path data-name="Path 21815" d="M236.08 391.13c8.85 16.23 25.2 28.54 40.61 38.76C295 442 313 435.42 329.55 432c-3.56 2.14-2.69 3.91.9 4.63 5.63-.1 10.67-3.16 15.14-6.59s8.2-8.56 12.84-17.29c-2.14 14-18.9 28.34-33.33 25.31-5-1-9.18-1.52-12.46-.54-3.86 1.15-4.72 1.4-11.78 3.39-12.65 3.56-30.64 3.28-42.4-6.11a57.38 57.38 0 0 1-16.41-21.9 77.241 77.241 0 0 1-5.94-21.57z"/>
                </g>
                <path data-name="Path 21816" d="M351.64 333.8c-.07 6.05-1.55 12-1.87 18.05.27-5.07-1.25-10.56-1.23-15.74 0-3.87-.74-11.91 1.65-15.05a43 43 0 0 1 1.45 12.74z" style="opacity:.2"/>
            </g>
            <path data-name="Path 21818" d="M283.82 272.61c-7 4.43-4.93 9.26-3.24 17.65 3.82 18.91 8.94 55.45 7 64.65-2.28 10.76-8.69 17.62-17.5 17.62-4.09 0-5.05 3.93-9.48 2-9.48-4.07-16.62-1.1-20 1.69-13.89 11.52 3.66 52.2 24 62 18.2 8.73 37.71 3 47.32-.89 3.44-1.4 7.09-.74 10.69.18 18.88 4.77 34.12-11.48 35.81-26 2.6-22.36-4.4-23.37-7.92-48.09a60.186 60.186 0 0 1-.33-8.13c-.11-17.1 6.78-33 5.07-58.93-.68-10.23-2.29-23.35-9.14-27.09-28.7-15.72-62.05 3.2-62.28 3.34z" style="stroke-linecap:round;stroke-linejoin:round;stroke:#263238;fill:none" transform="translate(-28.287 -63.857)"/>
            <path data-name="Path 21819" d="M248.33 352.65s-7.07-4.53-8.94-4.35-4.35 1.6-5 1.66-2.39-.24-3.5.57a12 12 0 0 0-2.13 2.36 28.931 28.931 0 0 0-3.35 2.21c-1.76 1.35-5.69 7.17-6.28 8.42s.18 1.87 1.28 1.06c.81-.61 4.19-3.78 5.91-5.4a2.2 2.2 0 0 1 2.32-.45c1.89.74 5.27 2.13 6.36 3.06a12.8 12.8 0 0 0 6.71 3.1 37.429 37.429 0 0 0 7.1 0s3.84-4.86 2.77-8.07a6.7 6.7 0 0 0-3.25-4.17z" style="fill:#fff" transform="translate(-28.287 -63.857)"/>
            <g data-name="Group 21177" style="clip-path:url(#2v48n5w4yd)" transform="translate(-28.287 -63.857)">
                <path data-name="Path 21820" d="M294.08 331.47c-2.6 6.93-6.67 13.48-12.61 17.89-4.44 3.29-9.71 5.25-15 7q-7.25 2.44-14.62 4.52c-1.57.44-3.4.83-4.73-.12a3.76 3.76 0 0 1-1.17-3.93 11 11 0 0 1 2.06-3.8 7.66 7.66 0 0 0-5.1 4.81c-.43 1.24-.6 2.71-1.66 3.51a2.88 2.88 0 0 1-4-1 4.68 4.68 0 0 1 0-4.41 13.819 13.819 0 0 1 2.82-3.6c-1.14-.35-2.22.68-2.82 1.71s-1.11 2.25-2.2 2.72c-1.34.57-2.82-.27-4.23-.61a8 8 0 0 0-7.15 2.25 18.46 18.46 0 0 0-4.13 6.56 8.92 8.92 0 0 1 14.3-3.23 16.259 16.259 0 0 0 3 2.7 8.17 8.17 0 0 0 3.86.65 132.62 132.62 0 0 0 38.66-5.8c5.33-1.64 10.88-3.84 14.13-8.38 2.54-3.53 3.32-8 3.88-12.31q.89-6.83 1.24-13.69c.22-4.12.8-8.78.12-12.85-1.36 6.56-2.28 13.1-4.65 19.41z" style="fill:#007bc0"/>
                <path data-name="Path 21821" d="M294.08 331.47c-2.6 6.93-6.67 13.48-12.61 17.89-4.44 3.29-9.71 5.25-15 7q-7.25 2.44-14.62 4.52c-1.57.44-3.4.83-4.73-.12a3.76 3.76 0 0 1-1.17-3.93 11 11 0 0 1 2.06-3.8 7.66 7.66 0 0 0-5.1 4.81c-.43 1.24-.6 2.71-1.66 3.51a2.88 2.88 0 0 1-4-1 4.68 4.68 0 0 1 0-4.41 13.819 13.819 0 0 1 2.82-3.6c-1.14-.35-2.22.68-2.82 1.71s-1.11 2.25-2.2 2.72c-1.34.57-2.82-.27-4.23-.61a8 8 0 0 0-7.15 2.25 18.46 18.46 0 0 0-4.13 6.56 8.92 8.92 0 0 1 14.3-3.23 16.259 16.259 0 0 0 3 2.7 8.17 8.17 0 0 0 3.86.65 132.62 132.62 0 0 0 38.66-5.8c5.33-1.64 10.88-3.84 14.13-8.38 2.54-3.53 3.32-8 3.88-12.31q.89-6.83 1.24-13.69c.22-4.12.8-8.78.12-12.85-1.36 6.56-2.28 13.1-4.65 19.41z" style="opacity:.5;fill:#fff"/>
            </g>
            <path data-name="Path 21823" d="M248.33 352.65s-7.07-4.53-8.94-4.35-4.35 1.6-5 1.66-2.39-.24-3.5.57a12 12 0 0 0-2.13 2.36 28.931 28.931 0 0 0-3.35 2.21c-1.76 1.35-5.69 7.17-6.28 8.42s.18 1.87 1.28 1.06c.81-.61 4.19-3.78 5.91-5.4a2.2 2.2 0 0 1 2.32-.45c1.89.74 5.27 2.13 6.36 3.06a12.8 12.8 0 0 0 6.71 3.1 37.429 37.429 0 0 0 7.1 0s3.84-4.86 2.77-8.07a6.7 6.7 0 0 0-3.25-4.17z" style="stroke-linecap:round;stroke-linejoin:round;stroke:#263238;fill:none" transform="translate(-28.287 -63.857)"/>
            <path data-name="Path 21824" d="M299 292.71c-.45-6.81-6.75-20.07-13.48-21.2a31.594 31.594 0 0 0-4.41 2.94c-2.56 2.05-3.33 6.14-3.56 14.76s1.36 28.45.34 46.74c0 .34-25.51 14.11-29.93 16.25s-7.28 6.17-4.77 10.4c2.23 3.75 7 2.94 11.33 2.36 5.81-.77 33-6.45 37.94-11.51 9.78-10.16 6.54-60.74 6.54-60.74z" style="fill:#fff" transform="translate(-28.287 -63.857)"/>
            <g data-name="Group 21178" style="clip-path:url(#6sjx9kd4me)" transform="translate(-28.287 -63.857)">
                <path data-name="Path 21825" d="M294.08 331.47c-2.6 6.93-6.67 13.48-12.61 17.89-4.44 3.29-9.71 5.25-15 7q-7.25 2.44-14.62 4.52c-1.57.44-3.4.83-4.73-.12a3.76 3.76 0 0 1-1.17-3.93 11 11 0 0 1 2.06-3.8 7.66 7.66 0 0 0-5.1 4.81c-.43 1.24-.6 2.71-1.66 3.51a2.88 2.88 0 0 1-4-1 4.68 4.68 0 0 1 0-4.41 13.819 13.819 0 0 1 2.82-3.6c-1.14-.35-2.22.68-2.82 1.71s-1.11 2.25-2.2 2.72c-1.34.57-2.82-.27-4.23-.61a8 8 0 0 0-7.15 2.25 18.46 18.46 0 0 0-4.13 6.56 8.92 8.92 0 0 1 14.3-3.23 16.259 16.259 0 0 0 3 2.7 8.17 8.17 0 0 0 3.86.65 132.62 132.62 0 0 0 38.66-5.8c5.33-1.64 10.88-3.84 14.13-8.38 2.54-3.53 3.32-8 3.88-12.31q.89-6.83 1.24-13.69c.22-4.12.8-8.78.12-12.85-1.36 6.56-2.28 13.1-4.65 19.41z" style="fill:#007bc0"/>
                <path data-name="Path 21826" d="M294.08 331.47c-2.6 6.93-6.67 13.48-12.61 17.89-4.44 3.29-9.71 5.25-15 7q-7.25 2.44-14.62 4.52c-1.57.44-3.4.83-4.73-.12a3.76 3.76 0 0 1-1.17-3.93 11 11 0 0 1 2.06-3.8 7.66 7.66 0 0 0-5.1 4.81c-.43 1.24-.6 2.71-1.66 3.51a2.88 2.88 0 0 1-4-1 4.68 4.68 0 0 1 0-4.41 13.819 13.819 0 0 1 2.82-3.6c-1.14-.35-2.22.68-2.82 1.71s-1.11 2.25-2.2 2.72c-1.34.57-2.82-.27-4.23-.61a8 8 0 0 0-7.15 2.25 18.46 18.46 0 0 0-4.13 6.56 8.92 8.92 0 0 1 14.3-3.23 16.259 16.259 0 0 0 3 2.7 8.17 8.17 0 0 0 3.86.65 132.62 132.62 0 0 0 38.66-5.8c5.33-1.64 10.88-3.84 14.13-8.38 2.54-3.53 3.32-8 3.88-12.31q.89-6.83 1.24-13.69c.22-4.12.8-8.78.12-12.85-1.36 6.56-2.28 13.1-4.65 19.41z" style="opacity:.5;fill:#fff"/>
            </g>
            <path data-name="Path 21828" d="M299 292.71c-.45-6.81-6.75-20.07-13.48-21.2a31.594 31.594 0 0 0-4.41 2.94c-2.56 2.05-3.33 6.14-3.56 14.76s1.36 28.45.34 46.74c0 .34-25.51 14.11-29.93 16.25s-7.28 6.17-4.77 10.4c2.23 3.75 7 2.94 11.33 2.36 5.81-.77 33-6.45 37.94-11.51 9.78-10.16 6.54-60.74 6.54-60.74z" style="stroke-linecap:round;stroke-linejoin:round;stroke:#263238;fill:none" transform="translate(-28.287 -63.857)"/>
            <path data-name="Path 21829" d="M348.17 233.54c4.29-8.37.5-19.24-5.08-26.82-9.18-12.49-28.66-16.19-43.31-14.21-6.86.93-13.74 4.26-17.3 10.2s-2.7 14.67 3 18.66c5.31 3.75 13.74 3.14 17 8.79 3.44 6-2.27 13.22-2.36 20.16-.07 4.37 2.15 8.52 2.17 12.9-.08 0 33.71-5.85 45.88-29.68z" style="fill:#263238;stroke-linecap:round;stroke-linejoin:round;stroke:#263238" transform="translate(-28.287 -63.857)"/>
            <path data-name="Path 21830" d="M249.83 351.36s.1 1-4-1.7c-3.9-2.54-14.06 6.78-10.15 13.14l.33 1.09c.44 1.48 3.28.52 4.74 1a11.37 11.37 0 0 0 5.59.5c3.06-.32-5.4-5.39 3.49-14.03z" style="fill:#fff" transform="translate(-28.287 -63.857)"/>
            <g data-name="Group 21179" style="clip-path:url(#uxdinhqu7f)" transform="translate(-28.287 -63.857)">
                <path data-name="Path 21831" d="M294.08 331.47c-2.6 6.93-6.67 13.48-12.61 17.89-4.44 3.29-9.71 5.25-15 7q-7.25 2.44-14.62 4.52c-1.57.44-3.4.83-4.73-.12a3.76 3.76 0 0 1-1.17-3.93 11 11 0 0 1 2.06-3.8 7.66 7.66 0 0 0-5.1 4.81c-.43 1.24-.6 2.71-1.66 3.51a2.88 2.88 0 0 1-4-1 4.68 4.68 0 0 1 0-4.41 13.819 13.819 0 0 1 2.82-3.6c-1.14-.35-2.22.68-2.82 1.71s-1.11 2.25-2.2 2.72c-1.34.57-2.82-.27-4.23-.61a8 8 0 0 0-7.15 2.25 18.46 18.46 0 0 0-4.13 6.56 8.92 8.92 0 0 1 14.3-3.23 16.259 16.259 0 0 0 3 2.7 8.17 8.17 0 0 0 3.86.65 132.62 132.62 0 0 0 38.66-5.8c5.33-1.64 10.88-3.84 14.13-8.38 2.54-3.53 3.32-8 3.88-12.31q.89-6.83 1.24-13.69c.22-4.12.8-8.78.12-12.85-1.36 6.56-2.28 13.1-4.65 19.41z" style="fill:#007bc0"/>
                <path data-name="Path 21832" d="M294.08 331.47c-2.6 6.93-6.67 13.48-12.61 17.89-4.44 3.29-9.71 5.25-15 7q-7.25 2.44-14.62 4.52c-1.57.44-3.4.83-4.73-.12a3.76 3.76 0 0 1-1.17-3.93 11 11 0 0 1 2.06-3.8 7.66 7.66 0 0 0-5.1 4.81c-.43 1.24-.6 2.71-1.66 3.51a2.88 2.88 0 0 1-4-1 4.68 4.68 0 0 1 0-4.41 13.819 13.819 0 0 1 2.82-3.6c-1.14-.35-2.22.68-2.82 1.71s-1.11 2.25-2.2 2.72c-1.34.57-2.82-.27-4.23-.61a8 8 0 0 0-7.15 2.25 18.46 18.46 0 0 0-4.13 6.56 8.92 8.92 0 0 1 14.3-3.23 16.259 16.259 0 0 0 3 2.7 8.17 8.17 0 0 0 3.86.65 132.62 132.62 0 0 0 38.66-5.8c5.33-1.64 10.88-3.84 14.13-8.38 2.54-3.53 3.32-8 3.88-12.31q.89-6.83 1.24-13.69c.22-4.12.8-8.78.12-12.85-1.36 6.56-2.28 13.1-4.65 19.41z" style="opacity:.5;fill:#fff"/>
            </g>
            <path data-name="Path 21834" d="M249.83 351.36s.1 1-4-1.7c-3.9-2.54-14.06 6.78-10.15 13.14l.33 1.09c.44 1.48 3.28.52 4.74 1a11.37 11.37 0 0 0 5.59.5c3.06-.32-5.4-5.39 3.49-14.03z" style="stroke-linecap:round;stroke-linejoin:round;stroke:#263238;fill:none" transform="translate(-28.287 -63.857)"/>
            <path data-name="Path 21835" d="M294.93 197.46c-2.93 3.62-2.71 8.94-1.06 13.29s4.49 8.15 6.56 12.32 4.63 8.47 2.9 12.8a60.81 60.81 0 0 0 .89-28.6" style="stroke:#757575;stroke-linecap:round;stroke-linejoin:round;fill:none" transform="translate(-28.287 -63.857)"/>
            <path data-name="Path 21836" d="M307.9 194.53c15.3 14.73 19.91 29.07 20.6 42.29" style="stroke:#757575;stroke-linecap:round;stroke-linejoin:round;fill:none" transform="translate(-28.287 -63.857)"/>
            <path data-name="Path 21837" d="M300.15 201.84a57.16 57.16 0 0 1 3.37 29.51" style="stroke:#757575;stroke-linecap:round;stroke-linejoin:round;fill:none" transform="translate(-28.287 -63.857)"/>
            <path data-name="Path 21838" d="M286.73 200.71a13.23 13.23 0 0 0-4.06 7.83" style="stroke:#757575;stroke-linecap:round;stroke-linejoin:round;fill:none" transform="translate(-28.287 -63.857)"/>
            <path data-name="Path 21839" d="M290.57 199.53a14 14 0 0 0-.3 10.92" style="stroke:#757575;stroke-linecap:round;stroke-linejoin:round;fill:none" transform="translate(-28.287 -63.857)"/>
            <path data-name="Path 21840" d="M323.5 199.14a28.59 28.59 0 0 1 13.86 22.23" style="stroke:#757575;stroke-linecap:round;stroke-linejoin:round;fill:none" transform="translate(-28.287 -63.857)"/>
            <path data-name="Path 21841" d="M334.58 201.75a13.22 13.22 0 0 1 4.34 4.7" style="stroke:#757575;stroke-linecap:round;stroke-linejoin:round;fill:none" transform="translate(-28.287 -63.857)"/>
            <path data-name="Path 21842" d="M266.32 379.91a43.76 43.76 0 0 0 21 29.07" style="stroke-linecap:round;stroke-linejoin:round;stroke:#263238;fill:none" transform="translate(-28.287 -63.857)"/>
            <path data-name="Path 21843" d="M272.05 376.26a15.77 15.77 0 0 0 11.25 14.45" style="stroke-linecap:round;stroke-linejoin:round;stroke:#263238;fill:none" transform="translate(-28.287 -63.857)"/>
            <path data-name="Path 21844" d="m310.47 365.2-17.1 2.23c-.85.11-1.84.32-2.19 1.11a1.72 1.72 0 0 0 .62 1.94 4.84 4.84 0 0 0 2 .81 116 116 0 0 0 22.64 2.94" style="stroke-linecap:round;stroke-linejoin:round;stroke:#263238;fill:none" transform="translate(-28.287 -63.857)"/>
            <path data-name="Path 21845" d="M309.13 438.46a61.609 61.609 0 0 1 17.25-5.21" style="stroke-linecap:round;stroke-linejoin:round;stroke:#263238;fill:none" transform="translate(-28.287 -63.857)"/>
            <path data-name="Path 21846" d="M248.82 352a7.76 7.76 0 0 0-3.22 2.11c-.91.93-1.68 2-2.55 2.95a1.51 1.51 0 0 1-.53.44.56.56 0 0 1-.64-.11.81.81 0 0 1 0-.76 7.89 7.89 0 0 1 2.18-3.24" style="stroke-linecap:round;stroke-linejoin:round;stroke:#263238;fill:#fff" transform="translate(-28.287 -63.857)"/>
            <path data-name="Path 21847" d="m304.91 290.89-5.52 19.28" style="stroke-linecap:round;stroke-linejoin:round;stroke:#263238;fill:#fff" transform="translate(-28.287 -63.857)"/>
            <path data-name="Path 21848" d="M350.35 318.75c-2.33 17.74-.8 39.25 2.35 55.81" style="stroke-linecap:round;stroke-linejoin:round;stroke:#263238;fill:none" transform="translate(-28.287 -63.857)"/>
            <path data-name="Path 21849" d="m351.18 312.36-.35 2.86" style="stroke-linecap:round;stroke-linejoin:round;stroke:#263238;fill:none" transform="translate(-28.287 -63.857)"/>
        </g>
    </g>
</svg>
